<svg width="785" height="442" viewBox="0 0 785 442" fill="none" xmlns="http://www.w3.org/2000/svg">
<rect width="785" height="442" fill="#98C1D9"/>
<path d="M85.6797 95.7578L95.0938 159H78.2578L77.4375 147.633H71.5391L70.5625 159H53.5312L61.8906 95.7578H85.6797ZM76.9688 136.422C76.1354 129.26 75.3021 120.419 74.4688 109.898C72.8021 121.982 71.7604 130.823 71.3438 136.422H76.9688ZM130.936 95.7578V159H115.155V155.25C113.644 156.812 112.056 157.984 110.389 158.766C108.722 159.547 106.978 159.938 105.155 159.938C102.707 159.938 100.584 159.299 98.7875 158.023C96.9906 156.721 95.8318 155.224 95.3109 153.531C94.8161 151.839 94.5687 149.078 94.5687 145.25V120.992C94.5687 117.008 94.8161 114.182 95.3109 112.516C95.8318 110.849 97.0036 109.391 98.8266 108.141C100.649 106.865 102.824 106.227 105.35 106.227C107.303 106.227 109.087 106.578 110.702 107.281C112.342 107.984 113.827 109.039 115.155 110.445V95.7578H130.936ZM115.155 120.211C115.155 118.31 114.985 117.034 114.647 116.383C114.334 115.732 113.696 115.406 112.733 115.406C111.795 115.406 111.157 115.706 110.819 116.305C110.506 116.878 110.35 118.18 110.35 120.211V145.602C110.35 147.711 110.506 149.104 110.819 149.781C111.131 150.432 111.73 150.758 112.616 150.758C113.631 150.758 114.308 150.393 114.647 149.664C114.985 148.909 115.155 147.086 115.155 144.195V120.211ZM166.817 107.164L159.434 159H138.848L130.919 107.164H145.02L149.434 144.977C149.773 142.216 150.346 135.445 151.153 124.664C151.622 118.648 152.143 112.815 152.716 107.164H166.817ZM202.503 125.367V138.062C202.503 142.724 202.269 146.148 201.8 148.336C201.331 150.497 200.329 152.529 198.792 154.43C197.256 156.305 195.277 157.698 192.855 158.609C190.459 159.495 187.698 159.938 184.573 159.938C181.084 159.938 178.128 159.56 175.706 158.805C173.284 158.023 171.396 156.865 170.042 155.328C168.714 153.766 167.764 151.891 167.191 149.703C166.618 147.49 166.331 144.182 166.331 139.781V126.5C166.331 121.682 166.852 117.919 167.894 115.211C168.935 112.503 170.81 110.328 173.519 108.688C176.227 107.047 179.691 106.227 183.909 106.227C187.451 106.227 190.485 106.76 193.011 107.828C195.563 108.87 197.529 110.237 198.909 111.93C200.29 113.622 201.227 115.367 201.722 117.164C202.243 118.961 202.503 121.695 202.503 125.367ZM186.722 121.461C186.722 118.805 186.579 117.138 186.292 116.461C186.006 115.758 185.394 115.406 184.456 115.406C183.519 115.406 182.894 115.758 182.581 116.461C182.269 117.138 182.113 118.805 182.113 121.461V144.859C182.113 147.307 182.269 148.909 182.581 149.664C182.894 150.393 183.506 150.758 184.417 150.758C185.355 150.758 185.967 150.419 186.253 149.742C186.566 149.065 186.722 147.607 186.722 145.367V121.461ZM240.22 126.734H225.337V120.758C225.337 118.674 225.168 117.268 224.83 116.539C224.491 115.784 223.866 115.406 222.955 115.406C222.043 115.406 221.431 115.732 221.119 116.383C220.806 117.034 220.65 118.492 220.65 120.758V145.211C220.65 147.06 220.884 148.453 221.353 149.391C221.822 150.302 222.512 150.758 223.423 150.758C224.491 150.758 225.207 150.276 225.572 149.312C225.962 148.349 226.158 146.526 226.158 143.844V137.672H240.22C240.194 141.812 240.038 144.924 239.752 147.008C239.491 149.065 238.619 151.188 237.134 153.375C235.676 155.536 233.762 157.177 231.392 158.297C229.022 159.391 226.093 159.938 222.603 159.938C218.15 159.938 214.621 159.182 212.017 157.672C209.413 156.135 207.564 154 206.47 151.266C205.403 148.505 204.869 144.599 204.869 139.547V124.82C204.869 120.419 205.311 117.099 206.197 114.859C207.082 112.62 208.97 110.628 211.861 108.883C214.752 107.112 218.267 106.227 222.408 106.227C226.522 106.227 230.038 107.099 232.955 108.844C235.871 110.589 237.811 112.789 238.775 115.445C239.739 118.102 240.22 121.865 240.22 126.734ZM256.648 127.242H241.844V123.766C241.844 119.755 242.299 116.669 243.211 114.508C244.148 112.32 246.01 110.393 248.797 108.727C251.583 107.06 255.203 106.227 259.656 106.227C264.995 106.227 269.018 107.177 271.727 109.078C274.435 110.953 276.062 113.271 276.609 116.031C277.156 118.766 277.43 124.417 277.43 132.984V159H262.078V154.391C261.115 156.24 259.865 157.633 258.328 158.57C256.818 159.482 255.008 159.938 252.898 159.938C250.138 159.938 247.599 159.169 245.281 157.633C242.99 156.07 241.844 152.672 241.844 147.438V143.18C241.844 139.299 242.456 136.656 243.68 135.25C244.904 133.844 247.938 132.203 252.781 130.328C257.964 128.297 260.737 126.93 261.102 126.227C261.466 125.523 261.648 124.091 261.648 121.93C261.648 119.221 261.44 117.464 261.023 116.656C260.633 115.823 259.969 115.406 259.031 115.406C257.964 115.406 257.299 115.758 257.039 116.461C256.779 117.138 256.648 118.922 256.648 121.812V127.242ZM261.648 134.352C259.122 136.201 257.651 137.75 257.234 139C256.844 140.25 256.648 142.047 256.648 144.391C256.648 147.073 256.818 148.805 257.156 149.586C257.521 150.367 258.224 150.758 259.266 150.758C260.255 150.758 260.893 150.458 261.18 149.859C261.492 149.234 261.648 147.62 261.648 145.016V134.352ZM297.1 100.25V108.414H301.358V116.617H297.1V144.352C297.1 147.763 297.269 149.664 297.608 150.055C297.972 150.445 299.444 150.641 302.022 150.641V159H295.655C292.061 159 289.496 158.857 287.959 158.57C286.423 158.258 285.069 157.568 283.897 156.5C282.725 155.406 281.996 154.169 281.709 152.789C281.423 151.383 281.28 148.102 281.28 142.945V116.617H277.881V108.414H281.28V100.25H297.1ZM338.177 134H317.747V145.211C317.747 147.555 317.916 149.065 318.255 149.742C318.593 150.419 319.244 150.758 320.208 150.758C321.406 150.758 322.2 150.315 322.591 149.43C323.007 148.518 323.216 146.773 323.216 144.195V137.359H338.177V141.188C338.177 144.391 337.968 146.852 337.552 148.57C337.161 150.289 336.223 152.125 334.739 154.078C333.255 156.031 331.367 157.503 329.075 158.492C326.809 159.456 323.958 159.938 320.52 159.938C317.187 159.938 314.244 159.456 311.692 158.492C309.14 157.529 307.148 156.214 305.716 154.547C304.309 152.854 303.333 151.005 302.786 149C302.239 146.969 301.966 144.026 301.966 140.172V125.055C301.966 120.523 302.578 116.956 303.802 114.352C305.026 111.721 307.031 109.716 309.817 108.336C312.604 106.93 315.807 106.227 319.427 106.227C323.854 106.227 327.499 107.073 330.364 108.766C333.255 110.432 335.273 112.659 336.419 115.445C337.591 118.206 338.177 122.099 338.177 127.125V134ZM322.356 125.562V121.773C322.356 119.091 322.213 117.359 321.927 116.578C321.64 115.797 321.054 115.406 320.169 115.406C319.075 115.406 318.398 115.745 318.137 116.422C317.877 117.073 317.747 118.857 317.747 121.773V125.562H322.356Z" fill="#EE6C4D"/>
<path d="M372.83 95.7578V103.766C369.574 103.766 367.647 103.922 367.048 104.234C366.476 104.521 366.189 105.367 366.189 106.773V108.414H372.83V116.617H369.08V159H353.298V116.617H350.056V108.414H353.298C353.298 105.003 353.416 102.724 353.65 101.578C353.884 100.432 354.457 99.4167 355.369 98.5312C356.306 97.6198 357.608 96.9297 359.275 96.4609C360.942 95.9922 363.533 95.7578 367.048 95.7578H372.83ZM409.141 125.367V138.062C409.141 142.724 408.906 146.148 408.438 148.336C407.969 150.497 406.966 152.529 405.43 154.43C403.893 156.305 401.914 157.698 399.492 158.609C397.096 159.495 394.336 159.938 391.211 159.938C387.721 159.938 384.766 159.56 382.344 158.805C379.922 158.023 378.034 156.865 376.68 155.328C375.352 153.766 374.401 151.891 373.828 149.703C373.255 147.49 372.969 144.182 372.969 139.781V126.5C372.969 121.682 373.49 117.919 374.531 115.211C375.573 112.503 377.448 110.328 380.156 108.688C382.865 107.047 386.328 106.227 390.547 106.227C394.089 106.227 397.122 106.76 399.648 107.828C402.201 108.87 404.167 110.237 405.547 111.93C406.927 113.622 407.865 115.367 408.359 117.164C408.88 118.961 409.141 121.695 409.141 125.367ZM393.359 121.461C393.359 118.805 393.216 117.138 392.93 116.461C392.643 115.758 392.031 115.406 391.094 115.406C390.156 115.406 389.531 115.758 389.219 116.461C388.906 117.138 388.75 118.805 388.75 121.461V144.859C388.75 147.307 388.906 148.909 389.219 149.664C389.531 150.393 390.143 150.758 391.055 150.758C391.992 150.758 392.604 150.419 392.891 149.742C393.203 149.065 393.359 147.607 393.359 145.367V121.461ZM427.756 107.164L427.131 113.961C429.423 109.091 432.743 106.513 437.092 106.227V124.469C434.202 124.469 432.079 124.859 430.725 125.641C429.371 126.422 428.538 127.516 428.225 128.922C427.913 130.302 427.756 133.505 427.756 138.531V159H411.975V107.164H427.756ZM71.6328 302.501V310.125H56.6016V302.501H71.6328ZM71.6328 313.052V361H56.6016V313.052H71.6328ZM89.5388 313.052L89.2859 317.46C90.3458 315.701 91.6345 314.389 93.1521 313.521C94.6937 312.63 96.4642 312.185 98.4636 312.185C100.969 312.185 103.016 312.775 104.606 313.955C106.196 315.135 107.22 316.629 107.677 318.436C108.135 320.218 108.364 323.205 108.364 327.396V361H93.7663V327.794C93.7663 324.494 93.6579 322.482 93.4411 321.76C93.2243 321.037 92.6221 320.676 91.6345 320.676C90.5987 320.676 89.9483 321.097 89.6833 321.94C89.4183 322.759 89.2859 324.976 89.2859 328.589V361H74.6882V313.052H89.5388ZM152.631 313.052L148.44 347.739C147.789 353.231 147.235 356.977 146.777 358.977C146.344 360.976 145.609 362.626 144.573 363.927C143.538 365.228 142.092 366.179 140.237 366.781C138.407 367.408 135.468 367.721 131.421 367.721H122.569V360.061C124.833 360.061 126.29 359.952 126.941 359.735C127.591 359.494 127.916 358.977 127.916 358.182C127.916 357.796 127.615 356.122 127.013 353.159L119.027 313.052H132.288L137.058 345.391L139.37 313.052H152.631ZM186.038 329.89V341.633C186.038 345.945 185.821 349.112 185.388 351.136C184.954 353.135 184.027 355.014 182.605 356.772C181.184 358.507 179.353 359.796 177.113 360.639C174.897 361.458 172.344 361.867 169.453 361.867C166.225 361.867 163.491 361.518 161.251 360.819C159.011 360.097 157.264 359.025 156.012 357.604C154.783 356.158 153.904 354.424 153.374 352.4C152.844 350.353 152.579 347.294 152.579 343.223V330.938C152.579 326.481 153.061 323 154.024 320.495C154.988 317.99 156.722 315.979 159.227 314.461C161.733 312.943 164.936 312.185 168.839 312.185C172.115 312.185 174.921 312.678 177.258 313.666C179.618 314.63 181.437 315.894 182.714 317.46C183.99 319.026 184.858 320.64 185.315 322.302C185.797 323.964 186.038 326.493 186.038 329.89ZM171.44 326.276C171.44 323.819 171.308 322.278 171.043 321.651C170.778 321.001 170.212 320.676 169.345 320.676C168.477 320.676 167.899 321.001 167.61 321.651C167.321 322.278 167.177 323.819 167.177 326.276V347.92C167.177 350.184 167.321 351.666 167.61 352.364C167.899 353.039 168.465 353.376 169.308 353.376C170.176 353.376 170.742 353.063 171.007 352.437C171.296 351.81 171.44 350.461 171.44 348.39V326.276ZM222.083 313.052V361H207.232L207.485 357.025C206.473 358.639 205.221 359.856 203.727 360.675C202.258 361.47 200.559 361.867 198.632 361.867C196.44 361.867 194.622 361.482 193.176 360.711C191.731 359.94 190.659 358.916 189.961 357.64C189.286 356.363 188.865 355.038 188.696 353.665C188.527 352.268 188.443 349.51 188.443 345.391V313.052H203.041V345.68C203.041 349.413 203.149 351.63 203.366 352.328C203.607 353.027 204.233 353.376 205.245 353.376C206.329 353.376 206.967 353.015 207.16 352.292C207.377 351.569 207.485 349.245 207.485 345.318V313.052H222.083ZM239.7 313.052L239.121 319.339C241.241 314.834 244.312 312.45 248.335 312.185V329.059C245.661 329.059 243.698 329.42 242.446 330.143C241.193 330.865 240.422 331.877 240.133 333.178C239.844 334.454 239.7 337.417 239.7 342.066V361H225.102V313.052H239.7ZM307.417 313.052L301.599 361H285.737C284.87 355.146 283.87 347.438 282.738 337.875C282.353 342.066 281.811 346.306 281.112 350.594L279.486 361H263.624L257.445 313.052H270.019C270.116 314.304 271.176 323.446 273.199 340.477C273.344 338.742 274.428 329.601 276.451 313.052H288.555L291.518 340.477C291.976 332.479 293.084 323.338 294.843 313.052H307.417ZM340.643 329.89V341.633C340.643 345.945 340.426 349.112 339.993 351.136C339.559 353.135 338.632 355.014 337.21 356.772C335.789 358.507 333.958 359.796 331.718 360.639C329.502 361.458 326.949 361.867 324.058 361.867C320.83 361.867 318.096 361.518 315.856 360.819C313.616 360.097 311.869 359.025 310.617 357.604C309.388 356.158 308.509 354.424 307.979 352.4C307.449 350.353 307.184 347.294 307.184 343.223V330.938C307.184 326.481 307.666 323 308.629 320.495C309.593 317.99 311.327 315.979 313.833 314.461C316.338 312.943 319.541 312.185 323.444 312.185C326.72 312.185 329.526 312.678 331.863 313.666C334.223 314.63 336.042 315.894 337.319 317.46C338.596 319.026 339.463 320.64 339.92 322.302C340.402 323.964 340.643 326.493 340.643 329.89ZM326.045 326.276C326.045 323.819 325.913 322.278 325.648 321.651C325.383 321.001 324.817 320.676 323.95 320.676C323.083 320.676 322.504 321.001 322.215 321.651C321.926 322.278 321.782 323.819 321.782 326.276V347.92C321.782 350.184 321.926 351.666 322.215 352.364C322.504 353.039 323.07 353.376 323.914 353.376C324.781 353.376 325.347 353.063 325.612 352.437C325.901 351.81 326.045 350.461 326.045 348.39V326.276ZM357.862 313.052L357.284 319.339C359.404 314.834 362.475 312.45 366.498 312.185V329.059C363.824 329.059 361.861 329.42 360.609 330.143C359.356 330.865 358.585 331.877 358.296 333.178C358.007 334.454 357.862 337.417 357.862 342.066V361H343.265V313.052H357.862ZM399.002 313.052L393.076 332.166L400.772 361H386.717L382.164 340.115V361H367.566V302.501H382.164V327.071L386.717 313.052H399.002ZM415.607 313.052L415.354 317.279C416.655 315.569 418.088 314.292 419.654 313.449C421.22 312.606 422.93 312.185 424.785 312.185C427.049 312.185 429 312.799 430.638 314.027C432.3 315.232 433.336 316.629 433.746 318.219C434.155 319.809 434.36 322.507 434.36 326.312V346.511C434.36 350.871 434.095 353.978 433.565 355.833C433.059 357.664 431.999 359.133 430.385 360.241C428.796 361.325 426.868 361.867 424.604 361.867C422.797 361.867 421.123 361.446 419.582 360.603C418.04 359.759 416.631 358.507 415.354 356.845V367.829H400.756V313.052H415.607ZM419.762 326.999C419.762 324.036 419.654 322.242 419.437 321.615C419.22 320.989 418.618 320.676 417.63 320.676C416.667 320.676 416.041 321.037 415.752 321.76C415.487 322.482 415.354 324.229 415.354 326.999V346.872C415.354 349.763 415.499 351.569 415.788 352.292C416.077 353.015 416.703 353.376 417.667 353.376C418.606 353.376 419.184 353.051 419.401 352.4C419.642 351.726 419.762 350.112 419.762 347.559V326.999ZM452.013 302.501V361H436.982V302.501H452.013ZM468.112 331.624H454.418V328.408C454.418 324.699 454.84 321.844 455.683 319.845C456.55 317.821 458.272 316.039 460.85 314.497C463.427 312.955 466.775 312.185 470.895 312.185C475.833 312.185 479.554 313.064 482.06 314.822C484.565 316.557 486.07 318.701 486.576 321.254C487.082 323.783 487.335 329.01 487.335 336.936V361H473.135V356.736C472.244 358.447 471.087 359.735 469.666 360.603C468.269 361.446 466.595 361.867 464.644 361.867C462.09 361.867 459.742 361.157 457.598 359.735C455.478 358.29 454.418 355.146 454.418 350.305V346.366C454.418 342.777 454.984 340.332 456.116 339.031C457.248 337.73 460.055 336.213 464.535 334.479C469.329 332.6 471.894 331.335 472.232 330.685C472.569 330.034 472.737 328.709 472.737 326.71C472.737 324.205 472.545 322.579 472.159 321.832C471.798 321.061 471.184 320.676 470.316 320.676C469.329 320.676 468.715 321.001 468.474 321.651C468.233 322.278 468.112 323.928 468.112 326.602V331.624ZM472.737 338.2C470.401 339.91 469.04 341.344 468.654 342.5C468.293 343.656 468.112 345.318 468.112 347.486C468.112 349.967 468.269 351.569 468.582 352.292C468.919 353.015 469.57 353.376 470.533 353.376C471.449 353.376 472.039 353.099 472.304 352.545C472.593 351.967 472.737 350.473 472.737 348.064V338.2ZM522.404 331.154H508.638V325.626C508.638 323.699 508.481 322.398 508.168 321.724C507.855 321.025 507.277 320.676 506.433 320.676C505.59 320.676 505.024 320.977 504.735 321.579C504.446 322.181 504.302 323.53 504.302 325.626V348.245C504.302 349.955 504.518 351.244 504.952 352.111C505.386 352.954 506.024 353.376 506.867 353.376C507.855 353.376 508.517 352.93 508.854 352.039C509.216 351.148 509.396 349.462 509.396 346.98V341.271H522.404C522.38 345.102 522.235 347.98 521.971 349.907C521.73 351.81 520.923 353.773 519.55 355.797C518.201 357.796 516.43 359.314 514.238 360.35C512.046 361.361 509.336 361.867 506.108 361.867C501.989 361.867 498.725 361.169 496.316 359.771C493.907 358.35 492.197 356.375 491.185 353.846C490.198 351.292 489.704 347.679 489.704 343.006V329.384C489.704 325.313 490.113 322.242 490.932 320.17C491.751 318.098 493.498 316.256 496.172 314.642C498.846 313.004 502.097 312.185 505.928 312.185C509.734 312.185 512.985 312.992 515.683 314.605C518.381 316.219 520.176 318.255 521.067 320.712C521.958 323.169 522.404 326.65 522.404 331.154ZM557.618 337.875H538.72V348.245C538.72 350.413 538.877 351.81 539.19 352.437C539.503 353.063 540.105 353.376 540.997 353.376C542.105 353.376 542.839 352.966 543.201 352.147C543.586 351.304 543.779 349.69 543.779 347.306V340.982H557.618V344.523C557.618 347.486 557.425 349.763 557.04 351.353C556.678 352.942 555.811 354.641 554.438 356.447C553.065 358.254 551.319 359.615 549.199 360.53C547.103 361.422 544.465 361.867 541.286 361.867C538.202 361.867 535.48 361.422 533.12 360.53C530.759 359.639 528.916 358.423 527.591 356.881C526.291 355.315 525.387 353.605 524.881 351.75C524.376 349.871 524.123 347.149 524.123 343.584V329.601C524.123 325.409 524.689 322.109 525.821 319.7C526.953 317.267 528.808 315.412 531.385 314.136C533.963 312.835 536.926 312.185 540.274 312.185C544.369 312.185 547.741 312.967 550.391 314.533C553.065 316.075 554.932 318.134 555.992 320.712C557.076 323.265 557.618 326.867 557.618 331.516V337.875ZM542.984 330.07V326.565C542.984 324.084 542.851 322.482 542.586 321.76C542.321 321.037 541.779 320.676 540.96 320.676C539.949 320.676 539.322 320.989 539.082 321.615C538.841 322.217 538.72 323.868 538.72 326.565V330.07H542.984Z" fill="#293241"/>
<path d="M73.4512 234.479H56.4258V230.48C56.4258 225.868 56.9499 222.32 57.998 219.834C59.0762 217.318 61.2174 215.102 64.4219 213.186C67.6263 211.269 71.7891 210.311 76.9102 210.311C83.0495 210.311 87.6764 211.404 90.791 213.59C93.9056 215.746 95.7773 218.411 96.4062 221.586C97.0352 224.73 97.3496 231.229 97.3496 241.082V271H79.6953V265.699C78.5872 267.826 77.1497 269.428 75.3828 270.506C73.6458 271.554 71.5645 272.078 69.1387 272.078C65.9642 272.078 63.0443 271.195 60.3789 269.428C57.7435 267.631 56.4258 263.723 56.4258 257.703V252.807C56.4258 248.344 57.1296 245.305 58.5371 243.688C59.9447 242.07 63.4336 240.184 69.0039 238.027C74.9635 235.691 78.153 234.119 78.5723 233.311C78.9915 232.502 79.2012 230.855 79.2012 228.369C79.2012 225.255 78.9616 223.233 78.4824 222.305C78.0332 221.346 77.2695 220.867 76.1914 220.867C74.9635 220.867 74.1999 221.271 73.9004 222.08C73.6009 222.859 73.4512 224.91 73.4512 228.234V234.479ZM79.2012 242.654C76.2962 244.781 74.6042 246.562 74.125 248C73.6758 249.438 73.4512 251.504 73.4512 254.199C73.4512 257.284 73.6458 259.275 74.0352 260.174C74.4544 261.072 75.263 261.521 76.4609 261.521C77.599 261.521 78.3327 261.177 78.6621 260.488C79.0215 259.77 79.2012 257.913 79.2012 254.918V242.654ZM159.457 211.389L152.224 271H132.504C131.426 263.723 130.183 254.139 128.775 242.25C128.296 247.461 127.622 252.732 126.754 258.062L124.732 271H105.011L97.3298 211.389H112.963C113.082 212.946 114.4 224.311 116.916 245.484C117.095 243.328 118.443 231.963 120.959 211.389H136.008L139.691 245.484C140.26 235.542 141.638 224.176 143.824 211.389H159.457ZM175.923 234.479H158.898V230.48C158.898 225.868 159.422 222.32 160.47 219.834C161.548 217.318 163.69 215.102 166.894 213.186C170.098 211.269 174.261 210.311 179.382 210.311C185.522 210.311 190.149 211.404 193.263 213.59C196.378 215.746 198.25 218.411 198.878 221.586C199.507 224.73 199.822 231.229 199.822 241.082V271H182.168V265.699C181.059 267.826 179.622 269.428 177.855 270.506C176.118 271.554 174.037 272.078 171.611 272.078C168.436 272.078 165.516 271.195 162.851 269.428C160.216 267.631 158.898 263.723 158.898 257.703V252.807C158.898 248.344 159.602 245.305 161.009 243.688C162.417 242.07 165.906 240.184 171.476 238.027C177.436 235.691 180.625 234.119 181.044 233.311C181.464 232.502 181.673 230.855 181.673 228.369C181.673 225.255 181.434 223.233 180.955 222.305C180.505 221.346 179.742 220.867 178.664 220.867C177.436 220.867 176.672 221.271 176.373 222.08C176.073 222.859 175.923 224.91 175.923 228.234V234.479ZM181.673 242.654C178.768 244.781 177.076 246.562 176.597 248C176.148 249.438 175.923 251.504 175.923 254.199C175.923 257.284 176.118 259.275 176.507 260.174C176.927 261.072 177.735 261.521 178.933 261.521C180.071 261.521 180.805 261.177 181.134 260.488C181.494 259.77 181.673 257.913 181.673 254.918V242.654ZM221.454 211.389L220.736 219.205C223.371 213.605 227.189 210.64 232.191 210.311V231.289C228.866 231.289 226.426 231.738 224.868 232.637C223.311 233.535 222.353 234.793 221.993 236.41C221.634 237.997 221.454 241.681 221.454 247.461V271H203.306V211.389H221.454ZM274.622 242.25H251.128V255.143C251.128 257.838 251.323 259.575 251.712 260.354C252.101 261.132 252.85 261.521 253.958 261.521C255.336 261.521 256.249 261.012 256.698 259.994C257.177 258.946 257.417 256.939 257.417 253.975V246.113H274.622V250.516C274.622 254.199 274.383 257.029 273.903 259.006C273.454 260.982 272.376 263.094 270.669 265.34C268.962 267.586 266.791 269.278 264.155 270.416C261.55 271.524 258.271 272.078 254.317 272.078C250.484 272.078 247.1 271.524 244.165 270.416C241.23 269.308 238.939 267.796 237.292 265.879C235.675 263.932 234.552 261.806 233.923 259.5C233.294 257.164 232.98 253.78 232.98 249.348V231.963C232.98 226.752 233.683 222.649 235.091 219.654C236.498 216.63 238.804 214.324 242.009 212.736C245.213 211.119 248.897 210.311 253.06 210.311C258.151 210.311 262.343 211.284 265.638 213.23C268.962 215.147 271.283 217.708 272.601 220.912C273.948 224.087 274.622 228.564 274.622 234.344V242.25ZM256.429 232.547V228.189C256.429 225.105 256.264 223.113 255.935 222.215C255.605 221.316 254.931 220.867 253.913 220.867C252.655 220.867 251.877 221.257 251.577 222.035C251.278 222.784 251.128 224.835 251.128 228.189V232.547H256.429ZM296.3 211.389L295.985 216.869C297.303 214.683 298.905 213.051 300.792 211.973C302.708 210.865 304.91 210.311 307.395 210.311C310.51 210.311 313.055 211.044 315.032 212.512C317.009 213.979 318.281 215.836 318.85 218.082C319.419 220.298 319.704 224.012 319.704 229.223V271H301.555V229.717C301.555 225.614 301.421 223.113 301.151 222.215C300.882 221.316 300.133 220.867 298.905 220.867C297.617 220.867 296.809 221.391 296.479 222.439C296.15 223.458 295.985 226.213 295.985 230.705V271H277.837V211.389H296.3ZM364.336 242.25H340.842V255.143C340.842 257.838 341.037 259.575 341.426 260.354C341.816 261.132 342.564 261.521 343.672 261.521C345.05 261.521 345.963 261.012 346.413 259.994C346.892 258.946 347.131 256.939 347.131 253.975V246.113H364.336V250.516C364.336 254.199 364.097 257.029 363.618 259.006C363.169 260.982 362.09 263.094 360.383 265.34C358.676 267.586 356.505 269.278 353.87 270.416C351.264 271.524 347.985 272.078 344.032 272.078C340.198 272.078 336.814 271.524 333.879 270.416C330.945 269.308 328.654 267.796 327.006 265.879C325.389 263.932 324.266 261.806 323.637 259.5C323.008 257.164 322.694 253.78 322.694 249.348V231.963C322.694 226.752 323.398 222.649 324.805 219.654C326.213 216.63 328.519 214.324 331.723 212.736C334.928 211.119 338.611 210.311 342.774 210.311C347.865 210.311 352.058 211.284 355.352 213.23C358.676 215.147 360.997 217.708 362.315 220.912C363.663 224.087 364.336 228.564 364.336 234.344V242.25ZM346.143 232.547V228.189C346.143 225.105 345.978 223.113 345.649 222.215C345.32 221.316 344.646 220.867 343.628 220.867C342.37 220.867 341.591 221.257 341.292 222.035C340.992 222.784 340.842 224.835 340.842 228.189V232.547H346.143ZM404.612 230.436H388.53V227.201C388.53 224.446 388.365 222.709 388.035 221.99C387.736 221.242 386.957 220.867 385.7 220.867C384.681 220.867 383.918 221.212 383.409 221.9C382.899 222.559 382.645 223.562 382.645 224.91C382.645 226.737 382.765 228.085 383.004 228.953C383.274 229.792 384.037 230.72 385.295 231.738C386.583 232.757 389.203 234.239 393.157 236.186C398.427 238.761 401.886 241.187 403.534 243.463C405.181 245.739 406.004 249.048 406.004 253.391C406.004 258.242 405.375 261.911 404.117 264.396C402.86 266.852 400.748 268.754 397.784 270.102C394.849 271.419 391.3 272.078 387.137 272.078C382.525 272.078 378.572 271.359 375.278 269.922C372.013 268.484 369.767 266.538 368.539 264.082C367.312 261.626 366.698 257.913 366.698 252.941V250.066H382.78V253.84C382.78 257.044 382.974 259.126 383.364 260.084C383.783 261.042 384.591 261.521 385.789 261.521C387.077 261.521 387.976 261.207 388.485 260.578C388.994 259.919 389.248 258.557 389.248 256.49C389.248 253.645 388.919 251.863 388.26 251.145C387.571 250.426 384.052 248.299 377.703 244.766C372.373 241.771 369.123 239.061 367.955 236.635C366.787 234.179 366.203 231.274 366.203 227.92C366.203 223.158 366.832 219.654 368.09 217.408C369.348 215.132 371.474 213.38 374.469 212.152C377.494 210.924 380.998 210.311 384.981 210.311C388.934 210.311 392.288 210.82 395.043 211.838C397.828 212.826 399.955 214.144 401.422 215.791C402.92 217.438 403.818 218.965 404.117 220.373C404.447 221.781 404.612 223.982 404.612 226.977V230.436ZM445.156 230.436H429.074V227.201C429.074 224.446 428.91 222.709 428.58 221.99C428.281 221.242 427.502 220.867 426.244 220.867C425.226 220.867 424.462 221.212 423.953 221.9C423.444 222.559 423.19 223.562 423.19 224.91C423.19 226.737 423.309 228.085 423.549 228.953C423.818 229.792 424.582 230.72 425.84 231.738C427.128 232.757 429.748 234.239 433.701 236.186C438.972 238.761 442.431 241.187 444.078 243.463C445.725 245.739 446.549 249.048 446.549 253.391C446.549 258.242 445.92 261.911 444.662 264.396C443.404 266.852 441.293 268.754 438.328 270.102C435.393 271.419 431.844 272.078 427.682 272.078C423.07 272.078 419.117 271.359 415.822 269.922C412.558 268.484 410.312 266.538 409.084 264.082C407.856 261.626 407.242 257.913 407.242 252.941V250.066H423.324V253.84C423.324 257.044 423.519 259.126 423.908 260.084C424.328 261.042 425.136 261.521 426.334 261.521C427.622 261.521 428.52 261.207 429.029 260.578C429.539 259.919 429.793 258.557 429.793 256.49C429.793 253.645 429.464 251.863 428.805 251.145C428.116 250.426 424.597 248.299 418.248 244.766C412.917 241.771 409.668 239.061 408.5 236.635C407.332 234.179 406.748 231.274 406.748 227.92C406.748 223.158 407.377 219.654 408.635 217.408C409.893 215.132 412.019 213.38 415.014 212.152C418.039 210.924 421.542 210.311 425.525 210.311C429.479 210.311 432.833 210.82 435.588 211.838C438.373 212.826 440.499 214.144 441.967 215.791C443.464 217.438 444.363 218.965 444.662 220.373C444.992 221.781 445.156 223.982 445.156 226.977V230.436Z" fill="white"/>
<path d="M709.811 289.705C707.753 289.697 705.711 289.34 703.772 288.65V349.305C703.783 353.391 702.583 357.388 700.323 360.792C698.064 364.195 694.846 366.853 691.077 368.429C687.307 370.005 683.155 370.429 679.146 369.646C675.136 368.864 671.447 366.911 668.547 364.033C665.647 366.911 661.959 368.864 657.949 369.646C653.939 370.429 649.787 370.005 646.018 368.429C642.248 366.853 639.031 364.195 636.771 360.792C634.511 357.388 633.311 353.391 633.322 349.305V245.815C630.081 249.843 625.489 252.56 620.398 253.462C615.307 254.365 610.062 253.392 605.633 250.724L574.507 231.799C572.408 230.541 570.58 228.879 569.129 226.909C567.677 224.939 566.633 222.699 566.055 220.322C565.477 217.944 565.377 215.475 565.762 213.058C566.147 210.642 567.009 208.326 568.297 206.245C570.872 202.147 574.945 199.215 579.648 198.074C584.352 196.932 589.315 197.671 593.482 200.133L611.058 210.835L618.078 198.562C621.125 193.294 625.502 188.919 630.77 185.873C636.038 182.828 642.014 181.219 648.099 181.207H649.744C645.497 177.902 642.211 173.521 640.226 168.519C638.241 163.517 637.628 158.075 638.452 152.757C639.318 146.512 642.141 140.703 646.517 136.164C650.892 131.626 656.594 128.591 662.803 127.498C669.501 126.206 676.439 127.202 682.502 130.328C688.565 133.454 693.402 138.527 696.234 144.733C699.067 150.939 699.73 157.916 698.119 164.545C696.508 171.173 692.715 177.068 687.35 181.281H692.505C701.928 181.32 710.952 185.089 717.604 191.763C724.256 198.438 727.994 207.475 728 216.899V271.393C727.994 276.227 726.079 280.862 722.673 284.291C719.267 287.721 714.644 289.666 709.811 289.705ZM715.726 216.899C715.72 210.709 713.258 204.775 708.882 200.399C704.505 196.022 698.572 193.561 692.382 193.554H684.601C682.135 193.559 679.734 192.767 677.755 191.297C675.776 189.826 674.325 187.755 673.618 185.393C672.912 183.031 672.988 180.503 673.834 178.188C674.681 175.872 676.253 173.892 678.317 172.542C681.805 170.234 684.388 166.792 685.629 162.798C686.87 158.804 686.693 154.504 685.128 150.625C683.563 146.747 680.706 143.528 677.04 141.515C673.374 139.501 669.125 138.816 665.012 139.575C661.34 140.222 657.965 142.014 655.373 144.695C652.78 147.376 651.102 150.808 650.579 154.5C650.019 157.951 650.473 161.49 651.884 164.688C653.296 167.886 655.605 170.606 658.532 172.518C660.603 173.861 662.184 175.838 663.039 178.153C663.894 180.469 663.977 182.999 663.276 185.366C662.575 187.733 661.126 189.809 659.147 191.285C657.169 192.761 654.765 193.557 652.297 193.554H648.075C644.146 193.561 640.287 194.598 636.885 196.562C633.482 198.526 630.654 201.349 628.683 204.748L618.52 222.373C618.112 223.083 617.566 223.705 616.914 224.202C616.261 224.698 615.516 225.059 614.722 225.262C613.928 225.466 613.102 225.508 612.291 225.387C611.48 225.266 610.702 224.984 610.002 224.557L587.125 210.615C585.728 209.799 584.069 209.558 582.498 209.943C580.927 210.328 579.567 211.308 578.705 212.676C578.271 213.378 577.982 214.159 577.855 214.974C577.727 215.789 577.764 216.622 577.963 217.422C578.162 218.223 578.519 218.975 579.013 219.636C579.507 220.296 580.129 220.851 580.841 221.268L611.966 240.292C613.854 241.421 616.089 241.825 618.252 241.427C620.416 241.03 622.361 239.858 623.724 238.132L634.599 224.287C635.385 223.28 636.467 222.544 637.692 222.181C638.917 221.818 640.225 221.847 641.433 222.263C642.641 222.68 643.689 223.463 644.431 224.503C645.173 225.544 645.571 226.79 645.571 228.067V349.305C645.509 350.448 645.681 351.59 646.076 352.664C646.47 353.738 647.08 354.72 647.866 355.55C648.653 356.381 649.601 357.042 650.652 357.494C651.703 357.946 652.834 358.179 653.978 358.179C655.122 358.179 656.254 357.946 657.305 357.494C658.356 357.042 659.304 356.381 660.091 355.55C660.877 354.72 661.487 353.738 661.881 352.664C662.276 351.59 662.448 350.448 662.386 349.305V290.687C662.386 289.059 663.032 287.498 664.183 286.348C665.334 285.197 666.895 284.55 668.523 284.55C670.15 284.55 671.711 285.197 672.862 286.348C674.013 287.498 674.659 289.059 674.659 290.687V349.305C674.598 350.448 674.769 351.59 675.164 352.664C675.558 353.738 676.168 354.72 676.955 355.55C677.741 356.381 678.689 357.042 679.74 357.494C680.791 357.946 681.923 358.179 683.067 358.179C684.211 358.179 685.343 357.946 686.393 357.494C687.444 357.042 688.392 356.381 689.179 355.55C689.966 354.72 690.575 353.738 690.969 352.664C691.364 351.59 691.536 350.448 691.474 349.305V228.067C691.474 226.44 692.121 224.879 693.271 223.728C694.422 222.577 695.983 221.931 697.611 221.931C699.238 221.931 700.799 222.577 701.95 223.728C703.101 224.879 703.748 226.44 703.748 228.067V271.295C703.748 272.896 704.384 274.432 705.516 275.565C706.649 276.697 708.185 277.333 709.786 277.333C711.388 277.333 712.924 276.697 714.056 275.565C715.188 274.432 715.825 272.896 715.825 271.295L715.726 216.899Z" fill="#E0FBFC"/>
<path d="M597.008 142.234L601.38 157.241C601.906 159.064 601.934 160.995 601.461 162.832C600.988 164.67 600.03 166.347 598.688 167.688C597.347 169.03 595.67 169.988 593.832 170.461C591.995 170.934 590.064 170.906 588.241 170.38L573.234 166.008C560.87 172.666 546.523 174.653 532.814 171.608C519.105 168.562 506.949 160.687 498.566 149.42C490.183 138.153 486.133 124.247 487.155 110.241C488.178 96.2351 494.204 83.0643 504.134 73.1343C514.064 63.2043 527.235 57.1777 541.241 56.1553C555.247 55.1329 569.153 59.183 580.42 67.5658C591.687 75.9485 599.562 88.1045 602.608 101.814C605.653 115.523 603.665 129.87 597.008 142.234ZM545.476 67.3845C538.22 67.3819 531.062 69.0551 524.56 72.2737C518.057 75.4922 512.386 80.1691 507.987 85.9397C503.589 91.7104 500.584 98.4188 499.204 105.542C497.825 112.665 498.109 120.011 500.036 127.006C501.962 134.001 505.477 140.457 510.309 145.87C515.14 151.284 521.156 155.508 527.888 158.214C534.62 160.92 541.886 162.034 549.12 161.47C556.354 160.907 563.359 158.68 569.591 154.964C570.269 154.558 571.024 154.298 571.808 154.2C572.592 154.102 573.388 154.168 574.145 154.394L590.085 158.949L585.531 143.009C585.305 142.251 585.238 141.456 585.336 140.671C585.434 139.887 585.694 139.132 586.1 138.454C590.328 131.295 592.585 123.145 592.644 114.831C592.702 106.517 590.56 98.3358 586.434 91.1178C582.308 83.8998 576.346 77.902 569.152 73.7337C561.958 69.5653 553.79 67.3748 545.476 67.3845Z" fill="#E0FBFC"/>
<path d="M545.5 120C542.462 120 540 117.538 540 114.5C540 111.462 542.462 109 545.5 109C548.538 109 551 111.462 551 114.5C551 117.538 548.538 120 545.5 120Z" fill="#E0FBFC"/>
<path d="M522.5 120C519.462 120 517 117.538 517 114.5C517 111.462 519.462 109 522.5 109C525.538 109 528 111.462 528 114.5C528 117.538 525.538 120 522.5 120Z" fill="#E0FBFC"/>
<path d="M568.5 120C565.462 120 563 117.538 563 114.5C563 111.462 565.462 109 568.5 109C571.538 109 574 111.462 574 114.5C574 117.538 571.538 120 568.5 120Z" fill="#E0FBFC"/>
</svg>
