<svg width="785" height="442" viewBox="0 0 785 442" fill="none" xmlns="http://www.w3.org/2000/svg">
<rect x="0.5" y="0.5" width="784" height="441" fill="white" stroke="#E5E5E5"/>
<path d="M56.4697 71.7939H42.0801V62.1553C42.0801 59.3525 41.9206 57.6094 41.6016 56.9258C41.3053 56.2194 40.6331 55.8662 39.585 55.8662C38.4001 55.8662 37.6481 56.2878 37.3291 57.1309C37.0101 57.974 36.8506 59.7969 36.8506 62.5996V88.3027C36.8506 90.9915 37.0101 92.7461 37.3291 93.5664C37.6481 94.3867 38.3659 94.7969 39.4824 94.7969C40.5534 94.7969 41.2484 94.3867 41.5674 93.5664C41.9092 92.7461 42.0801 90.8206 42.0801 87.79V80.8516H56.4697V83.0049C56.4697 88.7243 56.0596 92.7803 55.2393 95.1729C54.4417 97.5654 52.653 99.6618 49.873 101.462C47.1159 103.262 43.7093 104.162 39.6533 104.162C35.4378 104.162 31.9629 103.399 29.2285 101.872C26.4941 100.345 24.6826 98.2376 23.7939 95.5488C22.9053 92.8372 22.4609 88.7699 22.4609 83.3467V67.1797C22.4609 63.1921 22.5977 60.207 22.8711 58.2246C23.1445 56.2194 23.9535 54.2939 25.2979 52.4482C26.665 50.6025 28.5449 49.1556 30.9375 48.1074C33.3529 47.0365 36.1214 46.501 39.2432 46.501C43.4814 46.501 46.9792 47.3213 49.7363 48.9619C52.4935 50.6025 54.305 52.6533 55.1709 55.1143C56.0368 57.5524 56.4697 61.3577 56.4697 66.5303V71.7939ZM75.0293 47.6631V60.1045C76.2142 59.0107 77.4902 58.1904 78.8574 57.6436C80.2474 57.0967 81.7285 56.8232 83.3008 56.8232C85.7161 56.8232 87.7669 57.4385 89.4531 58.6689C91.1621 59.8994 92.1989 61.3236 92.5635 62.9414C92.9508 64.5365 93.1445 67.4645 93.1445 71.7256V103H79.3359V71.0762C79.3359 68.4329 79.1992 66.7354 78.9258 65.9834C78.6751 65.2314 78.0941 64.8555 77.1826 64.8555C76.3395 64.8555 75.7699 65.2428 75.4736 66.0176C75.1774 66.7923 75.0293 68.3304 75.0293 70.6318V103H61.2207V47.6631H75.0293ZM129.204 81.125H111.328V90.9346C111.328 92.9854 111.476 94.307 111.772 94.8994C112.069 95.4919 112.638 95.7881 113.481 95.7881C114.53 95.7881 115.225 95.4007 115.566 94.626C115.931 93.8285 116.113 92.3018 116.113 90.0459V84.0645H129.204V87.4141C129.204 90.2168 129.022 92.3701 128.657 93.874C128.315 95.3779 127.495 96.9844 126.196 98.6934C124.897 100.402 123.245 101.69 121.24 102.556C119.258 103.399 116.763 103.82 113.755 103.82C110.838 103.82 108.263 103.399 106.03 102.556C103.797 101.713 102.054 100.562 100.801 99.1035C99.5703 97.6224 98.7158 96.0046 98.2373 94.25C97.7588 92.4727 97.5195 89.8978 97.5195 86.5254V73.2979C97.5195 69.333 98.055 66.2113 99.126 63.9326C100.197 61.6312 101.951 59.8766 104.39 58.6689C106.828 57.4385 109.631 56.8232 112.798 56.8232C116.672 56.8232 119.862 57.5638 122.368 59.0449C124.897 60.5033 126.663 62.4515 127.666 64.8896C128.691 67.305 129.204 70.7116 129.204 75.1094V81.125ZM115.361 73.7422V70.4268C115.361 68.0798 115.236 66.5645 114.985 65.8809C114.735 65.1973 114.222 64.8555 113.447 64.8555C112.49 64.8555 111.898 65.1517 111.67 65.7441C111.442 66.3138 111.328 67.8747 111.328 70.4268V73.7422H115.361ZM164.272 74.7676H151.25V69.5381C151.25 67.7152 151.102 66.4847 150.806 65.8467C150.509 65.1859 149.963 64.8555 149.165 64.8555C148.368 64.8555 147.832 65.1403 147.559 65.71C147.285 66.2796 147.148 67.5557 147.148 69.5381V90.9346C147.148 92.5524 147.354 93.7715 147.764 94.5918C148.174 95.3893 148.778 95.7881 149.575 95.7881C150.509 95.7881 151.136 95.3665 151.455 94.5234C151.797 93.6803 151.968 92.0853 151.968 89.7383V84.3379H164.272C164.25 87.9609 164.113 90.6839 163.862 92.5068C163.634 94.307 162.871 96.1641 161.572 98.0781C160.296 99.9694 158.621 101.405 156.548 102.385C154.474 103.342 151.911 103.82 148.857 103.82C144.961 103.82 141.873 103.16 139.595 101.838C137.316 100.493 135.698 98.625 134.741 96.2324C133.807 93.8171 133.34 90.3991 133.34 85.9785V73.0928C133.34 69.2419 133.727 66.3366 134.502 64.377C135.277 62.4173 136.929 60.6742 139.458 59.1475C141.987 57.598 145.063 56.8232 148.687 56.8232C152.287 56.8232 155.363 57.5866 157.915 59.1133C160.467 60.64 162.165 62.5654 163.008 64.8896C163.851 67.2139 164.272 70.5065 164.272 74.7676ZM198.145 57.6436L192.539 75.7246L199.819 103H186.523L182.217 83.2441V103H168.408V47.6631H182.217V70.9053L186.523 57.6436H198.145ZM228.496 47.6631V54.875H214.277V47.6631H228.496ZM228.496 57.6436V103H214.277V57.6436H228.496ZM247.534 57.6436L247.295 61.8135C248.298 60.1501 249.517 58.9082 250.952 58.0879C252.41 57.2448 254.085 56.8232 255.977 56.8232C258.346 56.8232 260.283 57.3815 261.787 58.498C263.291 59.6146 264.259 61.0273 264.692 62.7363C265.125 64.4225 265.342 67.248 265.342 71.2129V103H251.533V71.5889C251.533 68.4671 251.431 66.5645 251.226 65.8809C251.021 65.1973 250.451 64.8555 249.517 64.8555C248.537 64.8555 247.922 65.2542 247.671 66.0518C247.42 66.8265 247.295 68.9229 247.295 72.3408V103H233.486V57.6436H247.534Z" fill="#FCA311"/>
<path d="M327.104 57.6436L321.602 103H306.597C305.776 97.4629 304.831 90.1712 303.76 81.125C303.395 85.0898 302.882 89.1003 302.222 93.1562L300.684 103H285.679L279.834 57.6436H291.729C291.82 58.8285 292.822 67.4759 294.736 83.5859C294.873 81.9453 295.898 73.2979 297.812 57.6436H309.263L312.065 83.5859C312.498 76.0208 313.547 67.3734 315.21 57.6436H327.104ZM343.613 47.6631V54.875H329.395V47.6631H343.613ZM343.613 57.6436V103H329.395V57.6436H343.613ZM363.164 51.5938V58.7373H366.89V65.915H363.164V90.1826C363.164 93.1676 363.312 94.8311 363.608 95.1729C363.927 95.5146 365.215 95.6855 367.471 95.6855V103H361.899C358.755 103 356.51 102.875 355.166 102.624C353.822 102.351 352.637 101.747 351.611 100.812C350.586 99.8555 349.948 98.7731 349.697 97.5654C349.447 96.335 349.321 93.4639 349.321 88.9521V65.915H346.348V58.7373H349.321V51.5938H363.164ZM383.74 47.6631V60.1045C384.925 59.0107 386.201 58.1904 387.568 57.6436C388.958 57.0967 390.439 56.8232 392.012 56.8232C394.427 56.8232 396.478 57.4385 398.164 58.6689C399.873 59.8994 400.91 61.3236 401.274 62.9414C401.662 64.5365 401.855 67.4645 401.855 71.7256V103H388.047V71.0762C388.047 68.4329 387.91 66.7354 387.637 65.9834C387.386 65.2314 386.805 64.8555 385.894 64.8555C385.05 64.8555 384.481 65.2428 384.185 66.0176C383.888 66.7923 383.74 68.3304 383.74 70.6318V103H369.932V47.6631H383.74ZM447.93 57.6436L443.965 90.4561C443.35 95.6514 442.826 99.1947 442.393 101.086C441.982 102.977 441.287 104.538 440.308 105.769C439.328 106.999 437.961 107.899 436.206 108.469C434.474 109.061 431.694 109.357 427.866 109.357H419.492V102.111C421.634 102.111 423.013 102.009 423.628 101.804C424.243 101.576 424.551 101.086 424.551 100.334C424.551 99.9694 424.266 98.3857 423.696 95.583L416.143 57.6436H428.687L433.198 88.2344L435.386 57.6436H447.93ZM481.631 73.5713V84.6797C481.631 88.7585 481.426 91.7549 481.016 93.6689C480.605 95.5602 479.728 97.3376 478.384 99.001C477.039 100.642 475.308 101.861 473.188 102.658C471.092 103.433 468.677 103.82 465.942 103.82C462.889 103.82 460.303 103.49 458.184 102.829C456.064 102.146 454.412 101.132 453.228 99.7871C452.065 98.4199 451.234 96.7793 450.732 94.8652C450.231 92.9284 449.98 90.0345 449.98 86.1836V74.5625C449.98 70.347 450.436 67.0544 451.348 64.6846C452.259 62.3148 453.9 60.4121 456.27 58.9766C458.639 57.541 461.67 56.8232 465.361 56.8232C468.46 56.8232 471.115 57.2904 473.325 58.2246C475.558 59.1361 477.279 60.3324 478.486 61.8135C479.694 63.2946 480.514 64.8213 480.947 66.3936C481.403 67.9658 481.631 70.3584 481.631 73.5713ZM467.822 70.1533C467.822 67.8291 467.697 66.3708 467.446 65.7783C467.196 65.1631 466.66 64.8555 465.84 64.8555C465.02 64.8555 464.473 65.1631 464.199 65.7783C463.926 66.3708 463.789 67.8291 463.789 70.1533V90.627C463.789 92.7689 463.926 94.1702 464.199 94.8311C464.473 95.4691 465.008 95.7881 465.806 95.7881C466.626 95.7881 467.161 95.4919 467.412 94.8994C467.686 94.307 467.822 93.0309 467.822 91.0713V70.1533ZM517.827 57.6436V103H503.779L504.019 99.2402C503.062 100.767 501.877 101.918 500.464 102.692C499.074 103.444 497.467 103.82 495.645 103.82C493.571 103.82 491.851 103.456 490.483 102.727C489.116 101.997 488.102 101.029 487.441 99.8213C486.803 98.6136 486.405 97.3604 486.245 96.0615C486.086 94.7399 486.006 92.1309 486.006 88.2344V57.6436H499.814V88.5078C499.814 92.0397 499.917 94.1361 500.122 94.7969C500.35 95.4577 500.942 95.7881 501.899 95.7881C502.925 95.7881 503.529 95.4463 503.711 94.7627C503.916 94.0791 504.019 91.8802 504.019 88.166V57.6436H517.827ZM536.592 57.6436L536.045 63.5908C538.05 59.3298 540.955 57.0739 544.761 56.8232V72.7852C542.231 72.7852 540.374 73.127 539.189 73.8105C538.005 74.4941 537.275 75.4512 537.002 76.6816C536.729 77.8893 536.592 80.6921 536.592 85.0898V103H522.783V57.6436H536.592Z" fill="black"/>
<path d="M138.069 358.663L146.307 414H131.575L130.857 404.054H125.696L124.842 414H109.939L117.254 358.663H138.069ZM130.447 394.244C129.718 387.978 128.989 380.242 128.26 371.036C126.801 381.609 125.89 389.345 125.525 394.244H130.447ZM176.556 383.136H164.319V380.675C164.319 378.578 164.194 377.257 163.943 376.71C163.715 376.14 163.123 375.855 162.166 375.855C161.391 375.855 160.81 376.118 160.423 376.642C160.035 377.143 159.842 377.906 159.842 378.932C159.842 380.322 159.933 381.347 160.115 382.008C160.32 382.646 160.901 383.352 161.858 384.127C162.838 384.902 164.832 386.03 167.84 387.511C171.85 389.47 174.482 391.316 175.735 393.048C176.989 394.78 177.615 397.298 177.615 400.602C177.615 404.293 177.137 407.084 176.18 408.976C175.223 410.844 173.616 412.291 171.36 413.316C169.127 414.319 166.427 414.82 163.26 414.82C159.751 414.82 156.743 414.273 154.236 413.18C151.753 412.086 150.044 410.605 149.109 408.736C148.175 406.868 147.708 404.042 147.708 400.26V398.072H159.944V400.943C159.944 403.382 160.092 404.965 160.389 405.694C160.708 406.424 161.323 406.788 162.234 406.788C163.214 406.788 163.898 406.549 164.285 406.07C164.673 405.569 164.866 404.532 164.866 402.96C164.866 400.795 164.616 399.439 164.114 398.893C163.59 398.346 160.913 396.728 156.082 394.039C152.026 391.76 149.554 389.698 148.665 387.853C147.776 385.984 147.332 383.774 147.332 381.222C147.332 377.599 147.811 374.933 148.768 373.224C149.725 371.492 151.342 370.159 153.621 369.225C155.923 368.29 158.589 367.823 161.619 367.823C164.627 367.823 167.179 368.211 169.275 368.985C171.395 369.737 173.012 370.74 174.129 371.993C175.268 373.246 175.952 374.409 176.18 375.479C176.43 376.55 176.556 378.225 176.556 380.504V383.136ZM195.525 358.663V365.875H181.307V358.663H195.525ZM195.525 368.644V414H181.307V368.644H195.525ZM212.854 386.212H199.9V383.17C199.9 379.661 200.299 376.961 201.097 375.069C201.917 373.155 203.546 371.469 205.984 370.011C208.423 368.552 211.59 367.823 215.486 367.823C220.158 367.823 223.678 368.655 226.048 370.318C228.418 371.959 229.842 373.987 230.32 376.402C230.799 378.795 231.038 383.74 231.038 391.236V414H217.605V409.967C216.762 411.585 215.669 412.804 214.324 413.624C213.003 414.422 211.419 414.82 209.573 414.82C207.158 414.82 204.936 414.148 202.908 412.804C200.903 411.437 199.9 408.463 199.9 403.883V400.157C199.9 396.762 200.436 394.449 201.507 393.219C202.578 391.988 205.232 390.553 209.471 388.912C214.005 387.135 216.432 385.938 216.751 385.323C217.07 384.708 217.229 383.455 217.229 381.563C217.229 379.194 217.047 377.656 216.683 376.949C216.341 376.22 215.76 375.855 214.939 375.855C214.005 375.855 213.424 376.163 213.196 376.778C212.968 377.371 212.854 378.932 212.854 381.461V386.212ZM217.229 392.433C215.019 394.05 213.732 395.406 213.367 396.5C213.025 397.594 212.854 399.166 212.854 401.217C212.854 403.564 213.003 405.079 213.299 405.763C213.618 406.446 214.233 406.788 215.145 406.788C216.01 406.788 216.569 406.526 216.819 406.002C217.093 405.455 217.229 404.042 217.229 401.764V392.433ZM249.837 368.644L249.598 372.813C250.6 371.15 251.819 369.908 253.255 369.088C254.713 368.245 256.388 367.823 258.279 367.823C260.649 367.823 262.586 368.382 264.09 369.498C265.594 370.615 266.562 372.027 266.995 373.736C267.428 375.423 267.645 378.248 267.645 382.213V414H253.836V382.589C253.836 379.467 253.733 377.564 253.528 376.881C253.323 376.197 252.754 375.855 251.819 375.855C250.84 375.855 250.224 376.254 249.974 377.052C249.723 377.826 249.598 379.923 249.598 383.341V414H235.789V368.644H249.837ZM310.062 358.663L318.299 414H303.567L302.85 404.054H297.688L296.834 414H281.932L289.246 358.663H310.062ZM302.439 394.244C301.71 387.978 300.981 380.242 300.252 371.036C298.794 381.609 297.882 389.345 297.518 394.244H302.439ZM333.987 368.644L333.748 372.95C334.819 371.241 336.095 369.965 337.576 369.122C339.057 368.256 340.743 367.823 342.635 367.823C346.326 367.823 349.231 369.532 351.351 372.95C352.513 371.241 353.823 369.965 355.281 369.122C356.74 368.256 358.357 367.823 360.135 367.823C362.482 367.823 364.419 368.393 365.945 369.532C367.495 370.672 368.486 372.073 368.919 373.736C369.352 375.377 369.568 378.054 369.568 381.769V414H356.17V384.435C356.17 380.561 356.033 378.168 355.76 377.257C355.509 376.323 354.905 375.855 353.948 375.855C352.968 375.855 352.33 376.311 352.034 377.223C351.761 378.134 351.624 380.538 351.624 384.435V414H338.226V385.187C338.226 380.743 338.112 378.077 337.884 377.188C337.679 376.3 337.086 375.855 336.106 375.855C335.491 375.855 334.967 376.095 334.534 376.573C334.101 377.029 333.862 377.599 333.816 378.282C333.771 378.943 333.748 380.367 333.748 382.555V414H320.35V368.644H333.987ZM405.628 392.125H387.752V401.935C387.752 403.985 387.9 405.307 388.196 405.899C388.493 406.492 389.062 406.788 389.905 406.788C390.953 406.788 391.648 406.401 391.99 405.626C392.355 404.828 392.537 403.302 392.537 401.046V395.064H405.628V398.414C405.628 401.217 405.446 403.37 405.081 404.874C404.739 406.378 403.919 407.984 402.62 409.693C401.321 411.402 399.669 412.69 397.664 413.556C395.682 414.399 393.187 414.82 390.179 414.82C387.262 414.82 384.687 414.399 382.454 413.556C380.221 412.713 378.478 411.562 377.225 410.104C375.994 408.622 375.14 407.005 374.661 405.25C374.183 403.473 373.943 400.898 373.943 397.525V384.298C373.943 380.333 374.479 377.211 375.55 374.933C376.621 372.631 378.375 370.877 380.813 369.669C383.252 368.438 386.054 367.823 389.222 367.823C393.095 367.823 396.285 368.564 398.792 370.045C401.321 371.503 403.087 373.451 404.09 375.89C405.115 378.305 405.628 381.712 405.628 386.109V392.125ZM391.785 384.742V381.427C391.785 379.08 391.66 377.564 391.409 376.881C391.159 376.197 390.646 375.855 389.871 375.855C388.914 375.855 388.322 376.152 388.094 376.744C387.866 377.314 387.752 378.875 387.752 381.427V384.742H391.785ZM423.982 368.644L423.436 374.591C425.441 370.33 428.346 368.074 432.151 367.823V383.785C429.622 383.785 427.765 384.127 426.58 384.811C425.395 385.494 424.666 386.451 424.393 387.682C424.119 388.889 423.982 391.692 423.982 396.09V414H410.174V368.644H423.982ZM449.48 358.663V365.875H435.262V358.663H449.48ZM449.48 368.644V414H435.262V368.644H449.48ZM484.993 385.768H471.971V380.538C471.971 378.715 471.823 377.485 471.526 376.847C471.23 376.186 470.683 375.855 469.886 375.855C469.088 375.855 468.553 376.14 468.279 376.71C468.006 377.28 467.869 378.556 467.869 380.538V401.935C467.869 403.552 468.074 404.771 468.484 405.592C468.895 406.389 469.498 406.788 470.296 406.788C471.23 406.788 471.857 406.367 472.176 405.523C472.518 404.68 472.688 403.085 472.688 400.738V395.338H484.993C484.97 398.961 484.834 401.684 484.583 403.507C484.355 405.307 483.592 407.164 482.293 409.078C481.017 410.969 479.342 412.405 477.269 413.385C475.195 414.342 472.632 414.82 469.578 414.82C465.682 414.82 462.594 414.16 460.315 412.838C458.037 411.493 456.419 409.625 455.462 407.232C454.528 404.817 454.061 401.399 454.061 396.979V384.093C454.061 380.242 454.448 377.337 455.223 375.377C455.997 373.417 457.649 371.674 460.179 370.147C462.708 368.598 465.784 367.823 469.407 367.823C473.007 367.823 476.084 368.587 478.636 370.113C481.188 371.64 482.885 373.565 483.729 375.89C484.572 378.214 484.993 381.507 484.993 385.768ZM501.468 386.212H488.514V383.17C488.514 379.661 488.912 376.961 489.71 375.069C490.53 373.155 492.16 371.469 494.598 370.011C497.036 368.552 500.203 367.823 504.1 367.823C508.771 367.823 512.291 368.655 514.661 370.318C517.031 371.959 518.455 373.987 518.934 376.402C519.412 378.795 519.651 383.74 519.651 391.236V414H506.219V409.967C505.376 411.585 504.282 412.804 502.938 413.624C501.616 414.422 500.032 414.82 498.187 414.82C495.771 414.82 493.549 414.148 491.521 412.804C489.516 411.437 488.514 408.463 488.514 403.883V400.157C488.514 396.762 489.049 394.449 490.12 393.219C491.191 391.988 493.846 390.553 498.084 388.912C502.618 387.135 505.045 385.938 505.364 385.323C505.683 384.708 505.843 383.455 505.843 381.563C505.843 379.194 505.66 377.656 505.296 376.949C504.954 376.22 504.373 375.855 503.553 375.855C502.618 375.855 502.037 376.163 501.81 376.778C501.582 377.371 501.468 378.932 501.468 381.461V386.212ZM505.843 392.433C503.632 394.05 502.345 395.406 501.98 396.5C501.639 397.594 501.468 399.166 501.468 401.217C501.468 403.564 501.616 405.079 501.912 405.763C502.231 406.446 502.846 406.788 503.758 406.788C504.624 406.788 505.182 406.526 505.433 406.002C505.706 405.455 505.843 404.042 505.843 401.764V392.433ZM538.45 368.644L538.211 372.813C539.214 371.15 540.433 369.908 541.868 369.088C543.326 368.245 545.001 367.823 546.893 367.823C549.262 367.823 551.199 368.382 552.703 369.498C554.207 370.615 555.175 372.027 555.608 373.736C556.041 375.423 556.258 378.248 556.258 382.213V414H542.449V382.589C542.449 379.467 542.347 377.564 542.142 376.881C541.937 376.197 541.367 375.855 540.433 375.855C539.453 375.855 538.838 376.254 538.587 377.052C538.336 377.826 538.211 379.923 538.211 383.341V414H524.402V368.644H538.45ZM587.464 368.644L587.225 372.643C588.455 371.025 589.811 369.817 591.292 369.02C592.773 368.222 594.391 367.823 596.146 367.823C598.287 367.823 600.133 368.404 601.683 369.566C603.255 370.706 604.235 372.027 604.622 373.531C605.009 375.035 605.203 377.587 605.203 381.188V400.294C605.203 404.418 604.952 407.358 604.451 409.112C603.973 410.844 602.97 412.234 601.443 413.282C599.939 414.308 598.117 414.82 595.975 414.82C594.266 414.82 592.682 414.422 591.224 413.624C589.765 412.826 588.432 411.642 587.225 410.069V420.46H573.416V368.644H587.464ZM591.395 381.837C591.395 379.034 591.292 377.337 591.087 376.744C590.882 376.152 590.312 375.855 589.378 375.855C588.466 375.855 587.874 376.197 587.601 376.881C587.35 377.564 587.225 379.216 587.225 381.837V400.636C587.225 403.37 587.361 405.079 587.635 405.763C587.908 406.446 588.501 406.788 589.412 406.788C590.301 406.788 590.848 406.48 591.053 405.865C591.281 405.227 591.395 403.701 591.395 401.285V381.837ZM641.058 392.125H623.182V401.935C623.182 403.985 623.33 405.307 623.626 405.899C623.922 406.492 624.492 406.788 625.335 406.788C626.383 406.788 627.078 406.401 627.42 405.626C627.785 404.828 627.967 403.302 627.967 401.046V395.064H641.058V398.414C641.058 401.217 640.875 403.37 640.511 404.874C640.169 406.378 639.349 407.984 638.05 409.693C636.751 411.402 635.099 412.69 633.094 413.556C631.111 414.399 628.616 414.82 625.608 414.82C622.692 414.82 620.117 414.399 617.884 413.556C615.651 412.713 613.908 411.562 612.654 410.104C611.424 408.622 610.569 407.005 610.091 405.25C609.612 403.473 609.373 400.898 609.373 397.525V384.298C609.373 380.333 609.909 377.211 610.979 374.933C612.05 372.631 613.805 370.877 616.243 369.669C618.681 368.438 621.484 367.823 624.651 367.823C628.525 367.823 631.715 368.564 634.222 370.045C636.751 371.503 638.517 373.451 639.52 375.89C640.545 378.305 641.058 381.712 641.058 386.109V392.125ZM627.215 384.742V381.427C627.215 379.08 627.09 377.564 626.839 376.881C626.588 376.197 626.076 375.855 625.301 375.855C624.344 375.855 623.751 376.152 623.523 376.744C623.296 377.314 623.182 378.875 623.182 381.427V384.742H627.215ZM676.878 392.125H659.002V401.935C659.002 403.985 659.15 405.307 659.446 405.899C659.743 406.492 660.312 406.788 661.155 406.788C662.203 406.788 662.898 406.401 663.24 405.626C663.605 404.828 663.787 403.302 663.787 401.046V395.064H676.878V398.414C676.878 401.217 676.696 403.37 676.331 404.874C675.989 406.378 675.169 407.984 673.87 409.693C672.571 411.402 670.919 412.69 668.914 413.556C666.932 414.399 664.437 414.82 661.429 414.82C658.512 414.82 655.937 414.399 653.704 413.556C651.471 412.713 649.728 411.562 648.475 410.104C647.244 408.622 646.39 407.005 645.911 405.25C645.433 403.473 645.193 400.898 645.193 397.525V384.298C645.193 380.333 645.729 377.211 646.8 374.933C647.871 372.631 649.625 370.877 652.063 369.669C654.502 368.438 657.304 367.823 660.472 367.823C664.345 367.823 667.535 368.564 670.042 370.045C672.571 371.503 674.337 373.451 675.34 375.89C676.365 378.305 676.878 381.712 676.878 386.109V392.125ZM663.035 384.742V381.427C663.035 379.08 662.91 377.564 662.659 376.881C662.409 376.197 661.896 375.855 661.121 375.855C660.164 375.855 659.572 376.152 659.344 376.744C659.116 377.314 659.002 378.875 659.002 381.427V384.742H663.035ZM695.232 368.644L694.686 374.591C696.691 370.33 699.596 368.074 703.401 367.823V383.785C700.872 383.785 699.015 384.127 697.83 384.811C696.645 385.494 695.916 386.451 695.643 387.682C695.369 388.889 695.232 391.692 695.232 396.09V414H681.424V368.644H695.232ZM734.71 383.136H722.474V380.675C722.474 378.578 722.348 377.257 722.098 376.71C721.87 376.14 721.277 375.855 720.32 375.855C719.546 375.855 718.965 376.118 718.577 376.642C718.19 377.143 717.996 377.906 717.996 378.932C717.996 380.322 718.087 381.347 718.27 382.008C718.475 382.646 719.056 383.352 720.013 384.127C720.993 384.902 722.986 386.03 725.994 387.511C730.005 389.47 732.636 391.316 733.89 393.048C735.143 394.78 735.77 397.298 735.77 400.602C735.77 404.293 735.291 407.084 734.334 408.976C733.377 410.844 731.771 412.291 729.515 413.316C727.282 414.319 724.581 414.82 721.414 414.82C717.905 414.82 714.897 414.273 712.391 413.18C709.907 412.086 708.198 410.605 707.264 408.736C706.329 406.868 705.862 404.042 705.862 400.26V398.072H718.099V400.943C718.099 403.382 718.247 404.965 718.543 405.694C718.862 406.424 719.477 406.788 720.389 406.788C721.368 406.788 722.052 406.549 722.439 406.07C722.827 405.569 723.021 404.532 723.021 402.96C723.021 400.795 722.77 399.439 722.269 398.893C721.744 398.346 719.067 396.728 714.236 394.039C710.18 391.76 707.708 389.698 706.819 387.853C705.931 385.984 705.486 383.774 705.486 381.222C705.486 377.599 705.965 374.933 706.922 373.224C707.879 371.492 709.497 370.159 711.775 369.225C714.077 368.29 716.743 367.823 719.773 367.823C722.781 367.823 725.333 368.211 727.43 368.985C729.549 369.737 731.167 370.74 732.283 371.993C733.423 373.246 734.106 374.409 734.334 375.479C734.585 376.55 734.71 378.225 734.71 380.504V383.136Z" fill="black"/>
<path d="M524.54 314.056C524.54 318.66 520.806 322.392 516.2 322.392C511.594 322.392 507.86 318.66 507.86 314.056C507.86 281.829 481.722 255.704 449.48 255.704C417.238 255.704 391.1 281.829 391.1 314.056C391.1 318.66 387.366 322.392 382.76 322.392C378.154 322.392 374.42 318.66 374.42 314.056C374.42 272.621 408.025 239.032 449.48 239.032C490.934 239.032 524.54 272.621 524.54 314.056ZM449.48 230.696C424.147 230.696 403.61 210.169 403.61 184.848C403.61 159.527 424.147 139 449.48 139C474.813 139 495.35 159.527 495.35 184.848C495.35 210.169 474.813 230.696 449.48 230.696ZM449.48 214.024C465.601 214.024 478.67 200.961 478.67 184.848C478.67 168.735 465.601 155.672 449.48 155.672C433.359 155.672 420.29 168.735 420.29 184.848C420.29 200.961 433.359 214.024 449.48 214.024Z" fill="#14213D"/>
<path d="M416.12 314.056C416.12 318.66 412.386 322.392 407.78 322.392C403.174 322.392 399.44 318.66 399.44 314.056C399.44 281.829 373.302 255.704 341.06 255.704C308.818 255.704 282.68 281.829 282.68 314.056C282.68 318.66 278.946 322.392 274.34 322.392C269.734 322.392 266 318.66 266 314.056C266 272.621 299.606 239.032 341.06 239.032C382.514 239.032 416.12 272.621 416.12 314.056ZM341.06 230.696C315.727 230.696 295.19 210.169 295.19 184.848C295.19 159.527 315.727 139 341.06 139C366.393 139 386.93 159.527 386.93 184.848C386.93 210.169 366.393 230.696 341.06 230.696ZM341.06 214.024C357.181 214.024 370.25 200.961 370.25 184.848C370.25 168.735 357.181 155.672 341.06 155.672C324.939 155.672 311.87 168.735 311.87 184.848C311.87 200.961 324.939 214.024 341.06 214.024Z" fill="#14213D"/>
</svg>
