<svg width="785" height="442" viewBox="0 0 785 442" fill="none" xmlns="http://www.w3.org/2000/svg">
<rect width="785" height="442" fill="#3D405B"/>
<path d="M250.498 86.5283H264.758C274.264 86.5283 280.692 86.8952 284.042 87.6289C287.424 88.3626 290.167 90.2448 292.272 93.2754C294.41 96.2741 295.479 101.075 295.479 107.679C295.479 113.708 294.729 117.759 293.229 119.833C291.73 121.907 288.779 123.151 284.377 123.565C288.365 124.554 291.044 125.878 292.416 127.537C293.788 129.196 294.633 130.727 294.952 132.131C295.303 133.503 295.479 137.315 295.479 143.567V164H276.769V138.256C276.769 134.109 276.434 131.541 275.764 130.552C275.126 129.563 273.419 129.068 270.644 129.068V164H250.498V86.5283ZM270.644 99.7832V117.01C272.909 117.01 274.488 116.707 275.381 116.101C276.306 115.463 276.769 113.437 276.769 110.023V105.765C276.769 103.308 276.322 101.697 275.429 100.932C274.567 100.166 272.972 99.7832 270.644 99.7832ZM346.536 133.375H321.51V147.108C321.51 149.979 321.717 151.83 322.132 152.659C322.547 153.489 323.344 153.903 324.524 153.903C325.992 153.903 326.965 153.361 327.443 152.276C327.954 151.16 328.209 149.022 328.209 145.864V137.49H346.536V142.18C346.536 146.104 346.281 149.118 345.771 151.224C345.292 153.329 344.144 155.578 342.325 157.971C340.507 160.363 338.194 162.166 335.387 163.378C332.611 164.558 329.118 165.148 324.907 165.148C320.824 165.148 317.219 164.558 314.093 163.378C310.966 162.198 308.526 160.587 306.771 158.545C305.049 156.471 303.853 154.206 303.183 151.75C302.513 149.262 302.178 145.657 302.178 140.936V122.417C302.178 116.866 302.927 112.496 304.427 109.306C305.926 106.084 308.382 103.627 311.796 101.937C315.209 100.214 319.133 99.3525 323.567 99.3525C328.991 99.3525 333.457 100.389 336.966 102.463C340.507 104.505 342.979 107.232 344.383 110.646C345.818 114.027 346.536 118.796 346.536 124.953V133.375ZM327.156 123.039V118.397C327.156 115.112 326.981 112.99 326.63 112.033C326.279 111.076 325.561 110.598 324.477 110.598C323.137 110.598 322.307 111.012 321.988 111.842C321.669 112.639 321.51 114.825 321.51 118.397V123.039H327.156ZM370.175 125.097H352.039V120.838C352.039 115.925 352.597 112.145 353.714 109.497C354.862 106.817 357.143 104.457 360.557 102.415C363.97 100.373 368.404 99.3525 373.859 99.3525C380.399 99.3525 385.328 100.517 388.646 102.846C391.963 105.143 393.957 107.982 394.627 111.363C395.297 114.713 395.632 121.635 395.632 132.131V164H376.826V158.354C375.646 160.618 374.115 162.325 372.232 163.474C370.382 164.59 368.165 165.148 365.581 165.148C362.2 165.148 359.089 164.207 356.25 162.325C353.443 160.411 352.039 156.248 352.039 149.836V144.62C352.039 139.867 352.789 136.629 354.288 134.906C355.787 133.184 359.504 131.174 365.438 128.877C371.786 126.389 375.183 124.714 375.63 123.853C376.076 122.991 376.3 121.237 376.3 118.589C376.3 115.271 376.045 113.118 375.534 112.129C375.056 111.108 374.242 110.598 373.094 110.598C371.786 110.598 370.972 111.028 370.653 111.89C370.334 112.719 370.175 114.904 370.175 118.445V125.097ZM376.3 133.806C373.205 136.071 371.403 137.969 370.893 139.5C370.414 141.031 370.175 143.232 370.175 146.104C370.175 149.389 370.382 151.511 370.797 152.468C371.243 153.425 372.105 153.903 373.381 153.903C374.593 153.903 375.375 153.536 375.726 152.803C376.108 152.037 376.3 150.059 376.3 146.869V133.806ZM445.015 124.475H426.783V117.153C426.783 114.601 426.576 112.879 426.161 111.985C425.746 111.06 424.981 110.598 423.864 110.598C422.748 110.598 421.998 110.996 421.615 111.794C421.232 112.591 421.041 114.378 421.041 117.153V147.108C421.041 149.373 421.328 151.08 421.902 152.229C422.477 153.345 423.322 153.903 424.438 153.903C425.746 153.903 426.624 153.313 427.07 152.133C427.549 150.952 427.788 148.719 427.788 145.434V137.873H445.015C444.983 142.945 444.791 146.757 444.44 149.31C444.121 151.83 443.053 154.43 441.234 157.109C439.448 159.757 437.103 161.767 434.2 163.139C431.297 164.479 427.708 165.148 423.434 165.148C417.979 165.148 413.656 164.223 410.466 162.373C407.276 160.491 405.011 157.875 403.671 154.525C402.363 151.144 401.709 146.359 401.709 140.17V122.13C401.709 116.739 402.251 112.671 403.336 109.928C404.421 107.184 406.733 104.744 410.274 102.606C413.815 100.437 418.122 99.3525 423.194 99.3525C428.235 99.3525 432.541 100.421 436.114 102.559C439.687 104.696 442.064 107.392 443.244 110.646C444.424 113.899 445.015 118.509 445.015 124.475ZM470.137 86.5283V103.946C471.796 102.415 473.582 101.267 475.496 100.501C477.442 99.7354 479.516 99.3525 481.717 99.3525C485.098 99.3525 487.969 100.214 490.33 101.937C492.723 103.659 494.174 105.653 494.685 107.918C495.227 110.151 495.498 114.25 495.498 120.216V164H476.166V119.307C476.166 115.606 475.975 113.229 475.592 112.177C475.241 111.124 474.427 110.598 473.151 110.598C471.971 110.598 471.174 111.14 470.759 112.225C470.344 113.309 470.137 115.463 470.137 118.685V164H450.805V86.5283H470.137ZM563.256 122.8V138.352C563.256 144.062 562.969 148.257 562.395 150.937C561.82 153.584 560.592 156.073 558.71 158.401C556.828 160.698 554.403 162.405 551.437 163.521C548.502 164.606 545.12 165.148 541.292 165.148C537.017 165.148 533.396 164.686 530.43 163.761C527.463 162.804 525.15 161.384 523.491 159.502C521.864 157.588 520.7 155.291 519.998 152.611C519.296 149.9 518.945 145.848 518.945 140.457V124.188C518.945 118.286 519.583 113.676 520.859 110.358C522.135 107.041 524.432 104.377 527.75 102.367C531.068 100.357 535.311 99.3525 540.479 99.3525C544.817 99.3525 548.534 100.007 551.628 101.314C554.754 102.59 557.163 104.265 558.854 106.339C560.544 108.412 561.693 110.55 562.299 112.751C562.937 114.952 563.256 118.302 563.256 122.8ZM543.924 118.015C543.924 114.761 543.748 112.719 543.397 111.89C543.047 111.028 542.297 110.598 541.148 110.598C540 110.598 539.234 111.028 538.852 111.89C538.469 112.719 538.277 114.761 538.277 118.015V146.678C538.277 149.676 538.469 151.638 538.852 152.563C539.234 153.457 539.984 153.903 541.101 153.903C542.249 153.903 542.999 153.489 543.35 152.659C543.732 151.83 543.924 150.043 543.924 147.3V118.015ZM613.931 100.501V164H594.264L594.599 158.736C593.259 160.874 591.6 162.485 589.622 163.569C587.676 164.622 585.427 165.148 582.875 165.148C579.972 165.148 577.563 164.638 575.649 163.617C573.735 162.596 572.316 161.241 571.391 159.55C570.497 157.859 569.939 156.104 569.716 154.286C569.493 152.436 569.381 148.783 569.381 143.328V100.501H588.713V143.711C588.713 148.656 588.856 151.59 589.144 152.516C589.463 153.441 590.292 153.903 591.632 153.903C593.067 153.903 593.913 153.425 594.168 152.468C594.455 151.511 594.599 148.432 594.599 143.232V100.501H613.931ZM641.254 92.0312V102.032H646.47V112.081H641.254V146.056C641.254 150.235 641.461 152.563 641.876 153.042C642.323 153.521 644.125 153.76 647.283 153.76V164H639.483C635.081 164 631.939 163.825 630.057 163.474C628.174 163.091 626.516 162.245 625.08 160.938C623.645 159.598 622.751 158.082 622.4 156.392C622.049 154.669 621.874 150.649 621.874 144.333V112.081H617.711V102.032H621.874V92.0312H641.254ZM685.274 101.578V110.252H689.798V118.968H685.274V148.436C685.274 152.061 685.454 154.081 685.814 154.496C686.201 154.911 687.765 155.118 690.504 155.118V164H683.739C679.92 164 677.195 163.848 675.562 163.543C673.93 163.211 672.491 162.478 671.246 161.344C670.001 160.182 669.226 158.867 668.922 157.401C668.618 155.907 668.465 152.42 668.465 146.942V118.968H664.854V110.252H668.465V101.578H685.274ZM731.427 128.265V141.754C731.427 146.707 731.178 150.345 730.68 152.669C730.182 154.966 729.116 157.124 727.484 159.144C725.851 161.136 723.749 162.617 721.175 163.585C718.63 164.526 715.697 164.996 712.376 164.996C708.669 164.996 705.528 164.595 702.955 163.792C700.382 162.962 698.376 161.731 696.937 160.099C695.526 158.438 694.516 156.446 693.907 154.122C693.299 151.77 692.994 148.256 692.994 143.58V129.469C692.994 124.35 693.548 120.352 694.654 117.474C695.761 114.597 697.753 112.286 700.631 110.543C703.508 108.8 707.188 107.928 711.671 107.928C715.434 107.928 718.657 108.495 721.341 109.63C724.053 110.737 726.142 112.189 727.608 113.988C729.075 115.786 730.071 117.64 730.597 119.549C731.15 121.458 731.427 124.364 731.427 128.265ZM714.659 124.115C714.659 121.292 714.507 119.522 714.203 118.802C713.898 118.055 713.248 117.682 712.252 117.682C711.256 117.682 710.592 118.055 710.26 118.802C709.928 119.522 709.762 121.292 709.762 124.115V148.976C709.762 151.576 709.928 153.278 710.26 154.081C710.592 154.855 711.242 155.243 712.21 155.243C713.207 155.243 713.857 154.883 714.161 154.164C714.493 153.444 714.659 151.895 714.659 149.515V124.115ZM334.649 212.924L329.835 252.768C329.088 259.077 328.451 263.379 327.926 265.676C327.428 267.972 326.584 269.868 325.394 271.362C324.204 272.856 322.544 273.949 320.414 274.641C318.311 275.36 314.935 275.72 310.287 275.72H300.118V266.921C302.719 266.921 304.393 266.796 305.14 266.547C305.887 266.271 306.261 265.676 306.261 264.763C306.261 264.32 305.915 262.397 305.223 258.994L296.051 212.924H311.283L316.761 250.07L319.417 212.924H334.649ZM375.572 232.265V245.754C375.572 250.707 375.323 254.345 374.825 256.669C374.327 258.966 373.262 261.124 371.629 263.144C369.997 265.136 367.894 266.617 365.321 267.585C362.775 268.526 359.842 268.996 356.522 268.996C352.814 268.996 349.674 268.595 347.101 267.792C344.527 266.962 342.521 265.731 341.083 264.099C339.671 262.438 338.661 260.446 338.053 258.122C337.444 255.77 337.14 252.256 337.14 247.58V233.469C337.14 228.35 337.693 224.352 338.8 221.474C339.907 218.597 341.899 216.286 344.776 214.543C347.654 212.8 351.334 211.928 355.816 211.928C359.579 211.928 362.803 212.495 365.487 213.63C368.198 214.737 370.287 216.189 371.754 217.988C373.22 219.786 374.216 221.64 374.742 223.549C375.296 225.458 375.572 228.364 375.572 232.265ZM358.805 228.115C358.805 225.292 358.653 223.522 358.348 222.802C358.044 222.055 357.394 221.682 356.397 221.682C355.401 221.682 354.737 222.055 354.405 222.802C354.073 223.522 353.907 225.292 353.907 228.115V252.976C353.907 255.576 354.073 257.278 354.405 258.081C354.737 258.855 355.388 259.243 356.356 259.243C357.352 259.243 358.002 258.883 358.307 258.164C358.639 257.444 358.805 255.895 358.805 253.515V228.115ZM419.525 212.924V268H402.467L402.757 263.435C401.595 265.288 400.156 266.686 398.441 267.626C396.753 268.54 394.802 268.996 392.589 268.996C390.071 268.996 387.982 268.553 386.322 267.668C384.662 266.783 383.43 265.607 382.628 264.14C381.853 262.674 381.369 261.152 381.175 259.575C380.982 257.97 380.885 254.802 380.885 250.07V212.924H397.652V250.402C397.652 254.691 397.777 257.237 398.026 258.039C398.303 258.841 399.022 259.243 400.184 259.243C401.429 259.243 402.162 258.828 402.384 257.998C402.633 257.167 402.757 254.497 402.757 249.987V212.924H419.525ZM442.311 212.924L441.646 220.146C444.081 214.972 447.609 212.233 452.23 211.928V231.311C449.159 231.311 446.904 231.726 445.465 232.556C444.026 233.386 443.141 234.548 442.809 236.042C442.477 237.508 442.311 240.912 442.311 246.252V268H425.543V212.924H442.311Z" fill="#F2CC8F"/>
<path d="M509.007 241.438H487.301V253.349C487.301 255.839 487.481 257.444 487.84 258.164C488.2 258.883 488.892 259.243 489.916 259.243C491.188 259.243 492.032 258.772 492.447 257.832C492.89 256.863 493.111 255.009 493.111 252.27V245.007H509.007V249.074C509.007 252.478 508.786 255.092 508.343 256.918C507.928 258.745 506.932 260.695 505.355 262.771C503.778 264.846 501.772 266.409 499.337 267.46C496.93 268.484 493.9 268.996 490.248 268.996C486.706 268.996 483.579 268.484 480.868 267.46C478.156 266.437 476.039 265.039 474.518 263.269C473.023 261.47 471.986 259.506 471.405 257.375C470.824 255.217 470.533 252.09 470.533 247.995V231.933C470.533 227.119 471.183 223.328 472.484 220.561C473.784 217.766 475.915 215.636 478.875 214.169C481.836 212.675 485.239 211.928 489.085 211.928C493.789 211.928 497.663 212.827 500.707 214.626C503.778 216.397 505.922 218.763 507.14 221.723C508.385 224.656 509.007 228.793 509.007 234.133V241.438ZM492.198 232.473V228.447C492.198 225.597 492.046 223.757 491.742 222.927C491.437 222.097 490.815 221.682 489.874 221.682C488.712 221.682 487.993 222.041 487.716 222.761C487.439 223.452 487.301 225.348 487.301 228.447V232.473H492.198ZM531.793 200.805V268H514.527V200.805H531.793ZM575.829 241.438H554.122V253.349C554.122 255.839 554.302 257.444 554.662 258.164C555.021 258.883 555.713 259.243 556.737 259.243C558.01 259.243 558.854 258.772 559.269 257.832C559.711 256.863 559.933 255.009 559.933 252.27V245.007H575.829V249.074C575.829 252.478 575.607 255.092 575.165 256.918C574.75 258.745 573.753 260.695 572.176 262.771C570.599 264.846 568.593 266.409 566.158 267.46C563.751 268.484 560.721 268.996 557.069 268.996C553.527 268.996 550.401 268.484 547.689 267.46C544.977 266.437 542.861 265.039 541.339 263.269C539.845 261.47 538.807 259.506 538.226 257.375C537.645 255.217 537.354 252.09 537.354 247.995V231.933C537.354 227.119 538.005 223.328 539.305 220.561C540.606 217.766 542.736 215.636 545.697 214.169C548.657 212.675 552.061 211.928 555.907 211.928C560.611 211.928 564.484 212.827 567.528 214.626C570.599 216.397 572.743 218.763 573.961 221.723C575.206 224.656 575.829 228.793 575.829 234.133V241.438ZM559.02 232.473V228.447C559.02 225.597 558.867 223.757 558.563 222.927C558.259 222.097 557.636 221.682 556.695 221.682C555.533 221.682 554.814 222.041 554.537 222.761C554.26 223.452 554.122 225.348 554.122 228.447V232.473H559.02ZM618.412 233.718H602.599V227.368C602.599 225.154 602.419 223.66 602.059 222.885C601.699 222.083 601.035 221.682 600.067 221.682C599.098 221.682 598.448 222.028 598.116 222.719C597.784 223.411 597.618 224.96 597.618 227.368V253.349C597.618 255.314 597.867 256.794 598.365 257.79C598.863 258.758 599.597 259.243 600.565 259.243C601.699 259.243 602.46 258.731 602.848 257.707C603.263 256.683 603.47 254.746 603.47 251.896V245.339H618.412C618.384 249.738 618.218 253.045 617.914 255.258C617.637 257.444 616.71 259.699 615.133 262.023C613.583 264.32 611.55 266.063 609.032 267.253C606.514 268.415 603.401 268.996 599.693 268.996C594.962 268.996 591.213 268.194 588.446 266.589C585.679 264.956 583.714 262.688 582.552 259.782C581.418 256.849 580.851 252.699 580.851 247.331V231.684C580.851 227.008 581.321 223.48 582.262 221.101C583.202 218.721 585.208 216.604 588.28 214.75C591.351 212.869 595.086 211.928 599.486 211.928C603.858 211.928 607.593 212.855 610.692 214.709C613.791 216.563 615.852 218.901 616.876 221.723C617.9 224.545 618.412 228.544 618.412 233.718ZM641.114 205.578V214.252H645.638V222.968H641.114V252.436C641.114 256.061 641.294 258.081 641.654 258.496C642.041 258.911 643.604 259.118 646.344 259.118V268H639.579C635.76 268 633.035 267.848 631.402 267.543C629.77 267.211 628.331 266.478 627.086 265.344C625.841 264.182 625.066 262.867 624.762 261.401C624.457 259.907 624.305 256.42 624.305 250.942V222.968H620.694V214.252H624.305V205.578H641.114ZM687.308 241.438H665.602V253.349C665.602 255.839 665.781 257.444 666.141 258.164C666.501 258.883 667.193 259.243 668.216 259.243C669.489 259.243 670.333 258.772 670.748 257.832C671.191 256.863 671.412 255.009 671.412 252.27V245.007H687.308V249.074C687.308 252.478 687.087 255.092 686.644 256.918C686.229 258.745 685.233 260.695 683.656 262.771C682.079 264.846 680.073 266.409 677.638 267.46C675.23 268.484 672.201 268.996 668.548 268.996C665.007 268.996 661.88 268.484 659.168 267.46C656.457 266.437 654.34 265.039 652.818 263.269C651.324 261.47 650.287 259.506 649.706 257.375C649.125 255.217 648.834 252.09 648.834 247.995V231.933C648.834 227.119 649.484 223.328 650.785 220.561C652.085 217.766 654.216 215.636 657.176 214.169C660.137 212.675 663.54 211.928 667.386 211.928C672.09 211.928 675.964 212.827 679.007 214.626C682.079 216.397 684.223 218.763 685.44 221.723C686.686 224.656 687.308 228.793 687.308 234.133V241.438ZM670.499 232.473V228.447C670.499 225.597 670.347 223.757 670.042 222.927C669.738 222.097 669.116 221.682 668.175 221.682C667.013 221.682 666.293 222.041 666.017 222.761C665.74 223.452 665.602 225.348 665.602 228.447V232.473H670.499ZM730.97 200.805V268H714.203V264.016C712.598 265.676 710.91 266.921 709.139 267.751C707.368 268.581 705.514 268.996 703.578 268.996C700.977 268.996 698.722 268.318 696.812 266.962C694.903 265.579 693.672 263.988 693.119 262.189C692.593 260.391 692.33 257.458 692.33 253.391V227.617C692.33 223.383 692.593 220.381 693.119 218.61C693.672 216.84 694.917 215.29 696.854 213.962C698.791 212.606 701.101 211.928 703.785 211.928C705.86 211.928 707.756 212.302 709.471 213.049C711.214 213.796 712.792 214.917 714.203 216.411V200.805H730.97ZM714.203 226.787C714.203 224.767 714.023 223.411 713.663 222.719C713.331 222.028 712.653 221.682 711.629 221.682C710.633 221.682 709.955 222 709.596 222.636C709.264 223.245 709.098 224.628 709.098 226.787V253.764C709.098 256.005 709.264 257.486 709.596 258.205C709.928 258.897 710.564 259.243 711.505 259.243C712.584 259.243 713.303 258.855 713.663 258.081C714.023 257.278 714.203 255.341 714.203 252.27V226.787ZM487.384 336.265V349.754C487.384 354.707 487.135 358.345 486.637 360.669C486.139 362.966 485.073 365.124 483.441 367.144C481.808 369.136 479.706 370.617 477.132 371.585C474.587 372.526 471.654 372.996 468.333 372.996C464.626 372.996 461.485 372.595 458.912 371.792C456.339 370.962 454.333 369.731 452.894 368.099C451.483 366.438 450.473 364.446 449.864 362.122C449.256 359.77 448.951 356.256 448.951 351.58V337.469C448.951 332.35 449.505 328.352 450.611 325.474C451.718 322.597 453.71 320.286 456.588 318.543C459.465 316.8 463.146 315.928 467.628 315.928C471.391 315.928 474.614 316.495 477.298 317.63C480.01 318.737 482.099 320.189 483.565 321.988C485.032 323.786 486.028 325.64 486.554 327.549C487.107 329.458 487.384 332.364 487.384 336.265ZM470.616 332.115C470.616 329.292 470.464 327.522 470.16 326.802C469.855 326.055 469.205 325.682 468.209 325.682C467.213 325.682 466.549 326.055 466.217 326.802C465.885 327.522 465.719 329.292 465.719 332.115V356.976C465.719 359.576 465.885 361.278 466.217 362.081C466.549 362.855 467.199 363.243 468.167 363.243C469.164 363.243 469.814 362.883 470.118 362.164C470.45 361.444 470.616 359.895 470.616 357.515V332.115ZM514.32 304.805V313.313C510.861 313.313 508.814 313.479 508.177 313.812C507.569 314.116 507.264 315.015 507.264 316.509V318.252H514.32V326.968H510.335V372H493.568V326.968H490.123V318.252H493.568C493.568 314.628 493.692 312.207 493.941 310.989C494.19 309.772 494.799 308.693 495.768 307.752C496.764 306.784 498.147 306.05 499.918 305.552C501.689 305.054 504.442 304.805 508.177 304.805H514.32ZM538.89 304.805V313.313C535.431 313.313 533.384 313.479 532.748 313.812C532.139 314.116 531.834 315.015 531.834 316.509V318.252H538.89V326.968H534.906V372H518.138V326.968H514.693V318.252H518.138C518.138 314.628 518.263 312.207 518.512 310.989C518.761 309.772 519.369 308.693 520.338 307.752C521.334 306.784 522.717 306.05 524.488 305.552C526.259 305.054 529.012 304.805 532.748 304.805H538.89ZM559.352 304.805V313.562H542.086V304.805H559.352ZM559.352 316.924V372H542.086V316.924H559.352ZM602.474 337.718H586.661V331.368C586.661 329.154 586.481 327.66 586.122 326.885C585.762 326.083 585.098 325.682 584.129 325.682C583.161 325.682 582.511 326.028 582.179 326.719C581.847 327.411 581.681 328.96 581.681 331.368V357.349C581.681 359.314 581.93 360.794 582.428 361.79C582.926 362.758 583.659 363.243 584.627 363.243C585.762 363.243 586.523 362.731 586.91 361.707C587.325 360.683 587.533 358.746 587.533 355.896V349.339H602.474C602.446 353.738 602.28 357.045 601.976 359.258C601.699 361.444 600.772 363.699 599.195 366.023C597.646 368.32 595.612 370.063 593.094 371.253C590.576 372.415 587.464 372.996 583.756 372.996C579.024 372.996 575.275 372.194 572.508 370.589C569.741 368.956 567.777 366.688 566.615 363.782C565.48 360.849 564.913 356.699 564.913 351.331V335.684C564.913 331.008 565.383 327.48 566.324 325.101C567.265 322.721 569.271 320.604 572.342 318.75C575.414 316.869 579.149 315.928 583.548 315.928C587.92 315.928 591.655 316.855 594.754 318.709C597.853 320.563 599.915 322.901 600.938 325.723C601.962 328.545 602.474 332.544 602.474 337.718ZM624.762 304.805V313.562H607.496V304.805H624.762ZM624.762 316.924V372H607.496V316.924H624.762ZM645.804 338.257H630.074V334.563C630.074 330.302 630.558 327.024 631.527 324.727C632.523 322.403 634.501 320.355 637.462 318.584C640.423 316.814 644.269 315.928 649 315.928C654.672 315.928 658.947 316.938 661.825 318.958C664.702 320.95 666.432 323.413 667.013 326.346C667.594 329.251 667.884 335.255 667.884 344.358V372H651.573V367.103C650.549 369.067 649.221 370.547 647.589 371.543C645.984 372.512 644.061 372.996 641.82 372.996C638.887 372.996 636.189 372.18 633.727 370.547C631.292 368.887 630.074 365.276 630.074 359.715V355.191C630.074 351.068 630.724 348.26 632.025 346.766C633.325 345.271 636.549 343.528 641.695 341.536C647.201 339.378 650.148 337.925 650.536 337.178C650.923 336.431 651.117 334.909 651.117 332.613C651.117 329.735 650.895 327.868 650.453 327.01C650.038 326.124 649.332 325.682 648.336 325.682C647.201 325.682 646.496 326.055 646.219 326.802C645.943 327.522 645.804 329.417 645.804 332.488V338.257ZM651.117 345.811C648.433 347.776 646.869 349.422 646.427 350.75C646.012 352.078 645.804 353.987 645.804 356.478C645.804 359.327 645.984 361.167 646.344 361.998C646.731 362.828 647.478 363.243 648.585 363.243C649.636 363.243 650.314 362.924 650.619 362.288C650.951 361.624 651.117 359.909 651.117 357.142V345.811ZM690.919 304.805V372H673.653V304.805H690.919ZM731.219 334.522H716.361V331.534C716.361 328.988 716.209 327.383 715.904 326.719C715.628 326.028 714.908 325.682 713.746 325.682C712.805 325.682 712.1 326 711.629 326.636C711.159 327.245 710.924 328.172 710.924 329.417C710.924 331.105 711.035 332.35 711.256 333.152C711.505 333.927 712.21 334.785 713.373 335.726C714.562 336.666 716.983 338.036 720.636 339.834C725.506 342.214 728.701 344.455 730.223 346.558C731.745 348.661 732.506 351.718 732.506 355.73C732.506 360.213 731.925 363.602 730.763 365.899C729.601 368.168 727.65 369.925 724.911 371.17C722.199 372.387 718.92 372.996 715.074 372.996C710.813 372.996 707.161 372.332 704.117 371.004C701.101 369.676 699.026 367.877 697.892 365.608C696.757 363.34 696.19 359.909 696.19 355.315V352.659H711.048V356.146C711.048 359.106 711.228 361.029 711.588 361.915C711.975 362.8 712.722 363.243 713.829 363.243C715.019 363.243 715.849 362.952 716.319 362.371C716.79 361.762 717.025 360.503 717.025 358.594C717.025 355.966 716.721 354.319 716.112 353.655C715.475 352.991 712.224 351.027 706.358 347.762C701.433 344.995 698.431 342.491 697.352 340.25C696.273 337.981 695.733 335.297 695.733 332.198C695.733 327.798 696.314 324.561 697.477 322.486C698.639 320.383 700.603 318.764 703.37 317.63C706.165 316.495 709.402 315.928 713.082 315.928C716.734 315.928 719.833 316.399 722.379 317.339C724.952 318.252 726.917 319.47 728.272 320.992C729.656 322.514 730.486 323.925 730.763 325.225C731.067 326.526 731.219 328.559 731.219 331.326V334.522Z" fill="#E07A5F"/>
<path d="M158.87 179.877L156.184 143.567C173.64 112.637 177.668 111.292 175.654 105.913C162.898 77 164.241 68.2588 156.184 68.2588C91.0618 69.6036 85.6909 64.8968 83.0054 72.2932C62.1931 128.102 64.8786 93.8099 89.0477 143.567C74.949 357.389 74.2777 345.286 77.6345 348.648C112.545 380.251 119.259 397.061 127.315 388.992L159.541 356.717C166.255 349.321 170.283 347.976 169.611 343.269L166.926 310.322C187.067 320.408 189.752 324.442 195.123 322.425C197.137 321.752 198.48 319.735 199.151 317.718L205.865 284.771C206.536 280.736 206.536 284.771 158.87 179.877ZM148.128 222.238L100.461 174.497L102.475 148.946H143.428C142.757 149.619 147.456 218.203 148.128 222.238ZM149.47 242.41L152.156 283.426L97.1041 228.289L99.7895 192.652L149.47 242.41ZM93.0759 281.409L95.7613 245.772L153.499 303.598L156.184 341.252L154.841 342.597L93.0759 281.409ZM93.7473 81.7067H151.485L162.226 107.93L145.442 135.498H99.1182L82.3341 107.93L93.7473 81.7067ZM122.616 374.872L89.0477 341.252L91.7332 298.891L144.771 352.01L122.616 374.872ZM187.738 306.287L168.269 295.529L166.255 291.495C165.583 285.443 162.226 228.289 161.555 217.531L192.438 284.098L187.738 306.287Z" fill="#81B29A"/>
</svg>
