<svg width="785" height="442" viewBox="0 0 785 442" fill="none" xmlns="http://www.w3.org/2000/svg">
<rect width="785" height="442" fill="#457B9D"/>
<path d="M567.158 41.3061C571.382 39.8629 576.057 40.805 579.417 43.7634L639.277 96.7014L694.567 107.296C722.879 112.711 741.487 140.14 736.059 168.449C731.294 193.346 709.467 210.7 685.005 210.82L670.841 242.623C668.431 248.021 662.695 250.826 657.156 249.785C656.223 249.605 655.311 249.326 654.408 248.924C648.149 246.134 645.32 238.771 648.128 232.491L659.493 206.97L619.604 199.346L544.424 226.412C542.288 227.195 540.029 227.336 537.871 226.934C535.798 226.532 533.8 225.59 532.135 224.186C528.732 221.276 527.16 216.76 527.991 212.389L558.961 50.7362C559.813 46.3527 562.921 42.7523 567.158 41.3061ZM711.633 163.765C714.484 148.949 704.711 134.563 689.896 131.721L643.468 122.822L633.147 176.613L679.593 185.503C694.42 188.35 708.804 178.581 711.633 163.765ZM556.524 195.635L607.725 177.195L620.036 112.891L579.288 76.8362L556.524 195.635Z" fill="#F1FAEE"/>
<path d="M486.121 100.606L515.504 106.223C522.236 107.528 526.659 114.036 525.375 120.787C524.082 127.528 517.562 131.942 510.811 130.658L481.438 125.02C474.678 123.736 470.273 117.225 471.558 110.484C472.86 103.724 479.358 99.3042 486.121 100.606ZM520.808 76.8797C519.155 76.5496 517.529 75.8866 516.044 74.8544L497.144 61.6109C491.516 57.6715 490.142 49.9156 494.093 44.2959C498.018 38.6673 505.782 37.3261 511.39 41.2356L530.31 54.4911C535.918 58.4246 537.301 66.1684 533.35 71.7971C530.46 75.9286 525.474 77.7738 520.808 76.8797ZM477.273 165.339L499.725 160.013C506.407 158.429 513.115 162.563 514.69 169.242C516.275 175.933 512.131 182.636 505.461 184.22L482.992 189.534C481.237 189.957 479.481 189.975 477.804 189.654C473.139 188.772 469.196 185.219 468.041 180.305C466.448 173.605 470.582 166.917 477.273 165.339Z" fill="#F1FAEE"/>
<path d="M28.9219 65.1367H46.3828C58.0234 65.1367 65.8945 65.5859 69.9961 66.4844C74.1367 67.3828 77.4961 69.6875 80.0742 73.3984C82.6914 77.0703 84 82.9492 84 91.0352C84 98.418 83.082 103.379 81.2461 105.918C79.4102 108.457 75.7969 109.98 70.4062 110.488C75.2891 111.699 78.5703 113.32 80.25 115.352C81.9297 117.383 82.9648 119.258 83.3555 120.977C83.7852 122.656 84 127.324 84 134.98V160H61.0898V128.477C61.0898 123.398 60.6797 120.254 59.8594 119.043C59.0781 117.832 56.9883 117.227 53.5898 117.227V160H28.9219V65.1367ZM53.5898 81.3672V102.461C56.3633 102.461 58.2969 102.09 59.3906 101.348C60.5234 100.566 61.0898 98.0859 61.0898 93.9062V88.6914C61.0898 85.6836 60.543 83.7109 59.4492 82.7734C58.3945 81.8359 56.4414 81.3672 53.5898 81.3672ZM146.52 122.5H115.875V139.316C115.875 142.832 116.129 145.098 116.637 146.113C117.145 147.129 118.121 147.637 119.566 147.637C121.363 147.637 122.555 146.973 123.141 145.645C123.766 144.277 124.078 141.66 124.078 137.793V127.539H146.52V133.281C146.52 138.086 146.207 141.777 145.582 144.355C144.996 146.934 143.59 149.688 141.363 152.617C139.137 155.547 136.305 157.754 132.867 159.238C129.469 160.684 125.191 161.406 120.035 161.406C115.035 161.406 110.621 160.684 106.793 159.238C102.965 157.793 99.9766 155.82 97.8281 153.32C95.7188 150.781 94.2539 148.008 93.4336 145C92.6133 141.953 92.2031 137.539 92.2031 131.758V109.082C92.2031 102.285 93.1211 96.9336 94.957 93.0273C96.793 89.082 99.8008 86.0742 103.98 84.0039C108.16 81.8945 112.965 80.8398 118.395 80.8398C125.035 80.8398 130.504 82.1094 134.801 84.6484C139.137 87.1484 142.164 90.4883 143.883 94.668C145.641 98.8086 146.52 104.648 146.52 112.188V122.5ZM122.789 109.844V104.16C122.789 100.137 122.574 97.5391 122.145 96.3672C121.715 95.1953 120.836 94.6094 119.508 94.6094C117.867 94.6094 116.852 95.1172 116.461 96.1328C116.07 97.1094 115.875 99.7852 115.875 104.16V109.844H122.789ZM178.395 82.2461L177.984 89.1016C180.094 86.3281 182.418 84.2578 184.957 82.8906C187.496 81.5234 190.27 80.8398 193.277 80.8398C196.949 80.8398 200.113 81.8359 202.77 83.8281C205.465 85.7812 207.145 88.0469 207.809 90.625C208.473 93.2031 208.805 97.5781 208.805 103.75V136.504C208.805 143.574 208.375 148.613 207.516 151.621C206.695 154.59 204.977 156.973 202.359 158.77C199.781 160.527 196.656 161.406 192.984 161.406C190.055 161.406 187.34 160.723 184.84 159.355C182.34 157.988 180.055 155.957 177.984 153.262V171.074H154.312V82.2461H178.395ZM185.133 104.863C185.133 100.059 184.957 97.1484 184.605 96.1328C184.254 95.1172 183.277 94.6094 181.676 94.6094C180.113 94.6094 179.098 95.1953 178.629 96.3672C178.199 97.5391 177.984 100.371 177.984 104.863V137.09C177.984 141.777 178.219 144.707 178.688 145.879C179.156 147.051 180.172 147.637 181.734 147.637C183.258 147.637 184.195 147.109 184.547 146.055C184.938 144.961 185.133 142.344 185.133 138.203V104.863ZM270.211 109.551V128.594C270.211 135.586 269.859 140.723 269.156 144.004C268.453 147.246 266.949 150.293 264.645 153.145C262.34 155.957 259.371 158.047 255.738 159.414C252.145 160.742 248.004 161.406 243.316 161.406C238.082 161.406 233.648 160.84 230.016 159.707C226.383 158.535 223.551 156.797 221.52 154.492C219.527 152.148 218.102 149.336 217.242 146.055C216.383 142.734 215.953 137.773 215.953 131.172V111.25C215.953 104.023 216.734 98.3789 218.297 94.3164C219.859 90.2539 222.672 86.9922 226.734 84.5312C230.797 82.0703 235.992 80.8398 242.32 80.8398C247.633 80.8398 252.184 81.6406 255.973 83.2422C259.801 84.8047 262.75 86.8555 264.82 89.3945C266.891 91.9336 268.297 94.5508 269.039 97.2461C269.82 99.9414 270.211 104.043 270.211 109.551ZM246.539 103.691C246.539 99.707 246.324 97.207 245.895 96.1914C245.465 95.1367 244.547 94.6094 243.141 94.6094C241.734 94.6094 240.797 95.1367 240.328 96.1914C239.859 97.207 239.625 99.707 239.625 103.691V138.789C239.625 142.461 239.859 144.863 240.328 145.996C240.797 147.09 241.715 147.637 243.082 147.637C244.488 147.637 245.406 147.129 245.836 146.113C246.305 145.098 246.539 142.91 246.539 139.551V103.691ZM301.734 82.2461L300.797 92.4414C304.234 85.1367 309.215 81.2695 315.738 80.8398V108.203C311.402 108.203 308.219 108.789 306.188 109.961C304.156 111.133 302.906 112.773 302.438 114.883C301.969 116.953 301.734 121.758 301.734 129.297V160H278.062V82.2461H301.734ZM346.031 71.875V84.1211H352.418V96.4258H346.031V138.027C346.031 143.145 346.285 145.996 346.793 146.582C347.34 147.168 349.547 147.461 353.414 147.461V160H343.863C338.473 160 334.625 159.785 332.32 159.355C330.016 158.887 327.984 157.852 326.227 156.25C324.469 154.609 323.375 152.754 322.945 150.684C322.516 148.574 322.301 143.652 322.301 135.918V96.4258H317.203V84.1211H322.301V71.875H346.031Z" fill="#E63946"/>
<path d="M377.33 361.163V375.445C377.33 380.689 377.066 384.542 376.539 387.003C376.012 389.435 374.884 391.72 373.155 393.858C371.427 395.968 369.2 397.535 366.476 398.561C363.78 399.557 360.675 400.055 357.159 400.055C353.233 400.055 349.908 399.63 347.184 398.78C344.459 397.901 342.335 396.598 340.812 394.869C339.317 393.111 338.248 391.002 337.604 388.541C336.959 386.051 336.637 382.33 336.637 377.379V362.438C336.637 357.018 337.223 352.784 338.395 349.737C339.566 346.69 341.676 344.244 344.723 342.398C347.77 340.553 351.666 339.63 356.412 339.63C360.396 339.63 363.81 340.23 366.651 341.432C369.522 342.604 371.734 344.142 373.287 346.046C374.84 347.95 375.895 349.913 376.451 351.935C377.037 353.956 377.33 357.032 377.33 361.163ZM359.576 356.769C359.576 353.78 359.415 351.905 359.093 351.144C358.771 350.353 358.082 349.957 357.027 349.957C355.973 349.957 355.27 350.353 354.918 351.144C354.566 351.905 354.391 353.78 354.391 356.769V383.092C354.391 385.846 354.566 387.647 354.918 388.497C355.27 389.317 355.958 389.728 356.983 389.728C358.038 389.728 358.727 389.347 359.049 388.585C359.4 387.823 359.576 386.183 359.576 383.663V356.769ZM400.973 340.685L400.27 348.331C402.848 342.853 406.583 339.952 411.476 339.63V360.152C408.224 360.152 405.836 360.592 404.312 361.471C402.789 362.35 401.852 363.58 401.5 365.162C401.148 366.715 400.973 370.318 400.973 375.973V399H383.219V340.685H400.973ZM449.664 327.853V337.125H431.383V327.853H449.664ZM449.664 340.685V399H431.383V340.685H449.664ZM474.142 340.685L473.834 346.046C475.123 343.907 476.69 342.311 478.536 341.256C480.411 340.172 482.564 339.63 484.996 339.63C488.043 339.63 490.533 340.348 492.467 341.783C494.4 343.219 495.646 345.035 496.202 347.232C496.759 349.4 497.037 353.033 497.037 358.131V399H479.283V358.614C479.283 354.601 479.151 352.154 478.888 351.275C478.624 350.396 477.892 349.957 476.69 349.957C475.431 349.957 474.64 350.47 474.317 351.495C473.995 352.491 473.834 355.187 473.834 359.581V399H456.08V340.685H474.142ZM542.433 362.701H525.689V355.978C525.689 353.634 525.499 352.052 525.118 351.231C524.737 350.382 524.034 349.957 523.009 349.957C521.983 349.957 521.295 350.323 520.943 351.056C520.592 351.788 520.416 353.429 520.416 355.978V383.487C520.416 385.567 520.68 387.135 521.207 388.189C521.734 389.215 522.511 389.728 523.536 389.728C524.737 389.728 525.543 389.186 525.953 388.102C526.393 387.018 526.612 384.967 526.612 381.949V375.006H542.433C542.403 379.664 542.228 383.165 541.905 385.509C541.612 387.823 540.631 390.211 538.961 392.672C537.32 395.104 535.167 396.949 532.501 398.209C529.835 399.439 526.539 400.055 522.613 400.055C517.604 400.055 513.634 399.205 510.704 397.506C507.774 395.777 505.694 393.375 504.464 390.299C503.263 387.193 502.662 382.799 502.662 377.115V360.548C502.662 355.597 503.16 351.861 504.156 349.342C505.152 346.822 507.276 344.581 510.528 342.618C513.78 340.626 517.735 339.63 522.394 339.63C527.022 339.63 530.978 340.611 534.259 342.574C537.54 344.537 539.723 347.013 540.807 350.001C541.891 352.989 542.433 357.223 542.433 362.701ZM566.031 327.853V337.125H547.75V327.853H566.031ZM566.031 340.685V399H547.75V340.685H566.031ZM612.833 327.853V399H595.079V394.781C593.38 396.539 591.593 397.857 589.718 398.736C587.843 399.615 585.88 400.055 583.829 400.055C581.075 400.055 578.688 399.337 576.666 397.901C574.645 396.437 573.341 394.752 572.755 392.848C572.198 390.943 571.92 387.838 571.92 383.531V356.241C571.92 351.759 572.198 348.58 572.755 346.705C573.341 344.83 574.659 343.189 576.71 341.783C578.761 340.348 581.207 339.63 584.049 339.63C586.246 339.63 588.253 340.025 590.069 340.816C591.915 341.607 593.585 342.794 595.079 344.376V327.853H612.833ZM595.079 355.362C595.079 353.224 594.889 351.788 594.508 351.056C594.156 350.323 593.438 349.957 592.354 349.957C591.3 349.957 590.582 350.294 590.201 350.968C589.85 351.612 589.674 353.077 589.674 355.362V383.927C589.674 386.3 589.85 387.867 590.201 388.629C590.553 389.361 591.227 389.728 592.223 389.728C593.365 389.728 594.127 389.317 594.508 388.497C594.889 387.647 595.079 385.597 595.079 382.345V355.362ZM659.415 370.875H636.432V383.487C636.432 386.124 636.622 387.823 637.003 388.585C637.384 389.347 638.116 389.728 639.2 389.728C640.548 389.728 641.441 389.229 641.881 388.233C642.35 387.208 642.584 385.245 642.584 382.345V374.654H659.415V378.961C659.415 382.564 659.181 385.333 658.712 387.267C658.272 389.2 657.218 391.266 655.548 393.463C653.878 395.66 651.754 397.315 649.176 398.429C646.627 399.513 643.419 400.055 639.552 400.055C635.802 400.055 632.491 399.513 629.62 398.429C626.749 397.345 624.508 395.865 622.896 393.99C621.314 392.086 620.216 390.006 619.601 387.75C618.985 385.465 618.678 382.154 618.678 377.818V360.812C618.678 355.714 619.366 351.7 620.743 348.771C622.12 345.812 624.376 343.556 627.511 342.003C630.646 340.421 634.249 339.63 638.321 339.63C643.302 339.63 647.403 340.582 650.626 342.486C653.878 344.361 656.148 346.866 657.438 350.001C658.756 353.106 659.415 357.486 659.415 363.141V370.875ZM641.617 361.383V357.12C641.617 354.103 641.456 352.154 641.134 351.275C640.812 350.396 640.152 349.957 639.156 349.957C637.926 349.957 637.164 350.338 636.871 351.1C636.578 351.832 636.432 353.839 636.432 357.12V361.383H641.617ZM683.321 340.685L683.014 346.046C684.303 343.907 685.87 342.311 687.716 341.256C689.591 340.172 691.744 339.63 694.176 339.63C697.223 339.63 699.713 340.348 701.646 341.783C703.58 343.219 704.825 345.035 705.382 347.232C705.938 349.4 706.217 353.033 706.217 358.131V399H688.463V358.614C688.463 354.601 688.331 352.154 688.067 351.275C687.804 350.396 687.071 349.957 685.87 349.957C684.61 349.957 683.819 350.47 683.497 351.495C683.175 352.491 683.014 355.187 683.014 359.581V399H665.26V340.685H683.321ZM731.09 332.906V342.091H735.88V351.319H731.09V382.521C731.09 386.358 731.28 388.497 731.661 388.937C732.071 389.376 733.727 389.596 736.627 389.596V399H729.464C725.421 399 722.535 398.839 720.807 398.517C719.078 398.165 717.555 397.389 716.236 396.188C714.918 394.957 714.098 393.565 713.775 392.013C713.453 390.431 713.292 386.739 713.292 380.938V351.319H709.469V342.091H713.292V332.906H731.09Z" fill="#F1FAEE"/>
<path d="M114.615 215.481V232.01C116.189 230.557 117.885 229.467 119.701 228.741C121.548 228.014 123.516 227.651 125.604 227.651C128.813 227.651 131.538 228.468 133.778 230.103C136.049 231.738 137.426 233.63 137.911 235.779C138.425 237.898 138.683 241.789 138.683 247.45V289H120.337V246.587C120.337 243.075 120.155 240.82 119.792 239.821C119.459 238.822 118.687 238.322 117.476 238.322C116.356 238.322 115.599 238.837 115.206 239.866C114.812 240.896 114.615 242.939 114.615 245.997V289H96.2695V215.481H114.615ZM161.433 252.082H144.223V248.04C144.223 243.378 144.752 239.791 145.812 237.278C146.902 234.735 149.066 232.495 152.306 230.557C155.545 228.62 159.753 227.651 164.93 227.651C171.136 227.651 175.813 228.756 178.961 230.966C182.11 233.146 184.002 235.84 184.638 239.049C185.273 242.228 185.591 248.797 185.591 258.757V289H167.745V283.642C166.625 285.791 165.172 287.411 163.386 288.5C161.63 289.56 159.526 290.09 157.074 290.09C153.865 290.09 150.913 289.197 148.219 287.411C145.555 285.594 144.223 281.644 144.223 275.559V270.609C144.223 266.098 144.934 263.025 146.357 261.391C147.78 259.756 151.307 257.849 156.938 255.669C162.962 253.308 166.186 251.718 166.61 250.901C167.034 250.083 167.246 248.418 167.246 245.906C167.246 242.757 167.003 240.714 166.519 239.775C166.065 238.807 165.293 238.322 164.203 238.322C162.962 238.322 162.19 238.731 161.887 239.548C161.584 240.335 161.433 242.409 161.433 245.77V252.082ZM167.246 260.346C164.309 262.496 162.599 264.297 162.114 265.75C161.66 267.203 161.433 269.292 161.433 272.017C161.433 275.135 161.63 277.148 162.023 278.056C162.447 278.964 163.265 279.418 164.476 279.418C165.626 279.418 166.368 279.07 166.701 278.374C167.064 277.647 167.246 275.771 167.246 272.743V260.346ZM211.248 220.703V230.194H216.198V239.73H211.248V271.971C211.248 275.937 211.445 278.147 211.838 278.601C212.262 279.055 213.973 279.282 216.97 279.282V289H209.568C205.39 289 202.408 288.833 200.622 288.5C198.836 288.137 197.262 287.335 195.899 286.094C194.537 284.822 193.689 283.384 193.356 281.78C193.023 280.145 192.857 276.331 192.857 270.336V239.73H188.906V230.194H192.857V220.703H211.248ZM261.79 259.938H238.04V272.97C238.04 275.695 238.237 277.451 238.63 278.238C239.024 279.025 239.781 279.418 240.901 279.418C242.293 279.418 243.217 278.904 243.671 277.875C244.155 276.815 244.397 274.787 244.397 271.79V263.843H261.79V268.293C261.79 272.017 261.547 274.877 261.063 276.875C260.609 278.874 259.519 281.008 257.793 283.278C256.068 285.549 253.873 287.259 251.209 288.41C248.575 289.53 245.26 290.09 241.264 290.09C237.389 290.09 233.968 289.53 231.001 288.41C228.035 287.29 225.719 285.761 224.054 283.823C222.419 281.855 221.284 279.706 220.648 277.375C220.012 275.014 219.694 271.593 219.694 267.112V249.539C219.694 244.271 220.406 240.124 221.829 237.096C223.251 234.039 225.583 231.708 228.822 230.103C232.061 228.468 235.785 227.651 239.993 227.651C245.139 227.651 249.377 228.635 252.708 230.603C256.068 232.54 258.414 235.128 259.746 238.368C261.108 241.577 261.79 246.103 261.79 251.945V259.938ZM243.398 250.129V245.724C243.398 242.606 243.232 240.593 242.899 239.685C242.566 238.776 241.885 238.322 240.855 238.322C239.584 238.322 238.797 238.716 238.494 239.503C238.191 240.26 238.04 242.333 238.04 245.724V250.129H243.398ZM324.819 251.491H307.518V244.543C307.518 242.122 307.321 240.487 306.927 239.639C306.534 238.761 305.807 238.322 304.748 238.322C303.688 238.322 302.977 238.701 302.613 239.458C302.25 240.214 302.068 241.91 302.068 244.543V272.97C302.068 275.12 302.341 276.739 302.886 277.829C303.431 278.889 304.233 279.418 305.292 279.418C306.534 279.418 307.366 278.858 307.79 277.738C308.244 276.618 308.471 274.499 308.471 271.381V264.206H324.819C324.789 269.02 324.607 272.637 324.274 275.059C323.971 277.451 322.957 279.918 321.231 282.461C319.536 284.974 317.311 286.881 314.556 288.183C311.801 289.454 308.396 290.09 304.339 290.09C299.162 290.09 295.06 289.212 292.033 287.456C289.005 285.67 286.856 283.188 285.584 280.009C284.343 276.8 283.723 272.259 283.723 266.386V249.266C283.723 244.15 284.237 240.29 285.267 237.687C286.296 235.083 288.491 232.767 291.851 230.739C295.211 228.68 299.298 227.651 304.112 227.651C308.895 227.651 312.982 228.665 316.373 230.693C319.763 232.722 322.019 235.28 323.139 238.368C324.259 241.456 324.819 245.83 324.819 251.491ZM348.659 228.741L347.933 236.642C350.597 230.981 354.457 227.984 359.512 227.651V248.857C356.152 248.857 353.685 249.312 352.11 250.22C350.536 251.128 349.567 252.399 349.204 254.034C348.841 255.639 348.659 259.362 348.659 265.205V289H330.313V228.741H348.659ZM382.535 215.481V225.062H363.645V215.481H382.535ZM382.535 228.741V289H363.645V228.741H382.535ZM407.284 228.741L406.966 234.462C408.389 232.192 410.084 230.497 412.052 229.376C414.02 228.226 416.26 227.651 418.772 227.651C423.677 227.651 427.537 229.921 430.352 234.462C431.896 232.192 433.637 230.497 435.574 229.376C437.512 228.226 439.661 227.651 442.022 227.651C445.141 227.651 447.714 228.408 449.742 229.921C451.801 231.435 453.118 233.297 453.693 235.507C454.268 237.687 454.556 241.244 454.556 246.178V289H436.755V249.72C436.755 244.574 436.573 241.395 436.21 240.184C435.877 238.943 435.075 238.322 433.803 238.322C432.501 238.322 431.654 238.928 431.26 240.139C430.897 241.35 430.715 244.543 430.715 249.72V289H412.915V250.719C412.915 244.816 412.763 241.274 412.46 240.093C412.188 238.913 411.401 238.322 410.099 238.322C409.282 238.322 408.585 238.64 408.01 239.276C407.435 239.881 407.117 240.638 407.057 241.546C406.996 242.424 406.966 244.316 406.966 247.223V289H389.165V228.741H407.284ZM502.463 259.938H478.714V272.97C478.714 275.695 478.911 277.451 479.304 278.238C479.698 279.025 480.455 279.418 481.575 279.418C482.967 279.418 483.891 278.904 484.345 277.875C484.829 276.815 485.071 274.787 485.071 271.79V263.843H502.463V268.293C502.463 272.017 502.221 274.877 501.737 276.875C501.283 278.874 500.193 281.008 498.467 283.278C496.742 285.549 494.547 287.259 491.883 288.41C489.249 289.53 485.934 290.09 481.938 290.09C478.063 290.09 474.642 289.53 471.675 288.41C468.708 287.29 466.393 285.761 464.728 283.823C463.093 281.855 461.958 279.706 461.322 277.375C460.686 275.014 460.368 271.593 460.368 267.112V249.539C460.368 244.271 461.08 240.124 462.502 237.096C463.925 234.039 466.256 231.708 469.496 230.103C472.735 228.468 476.458 227.651 480.667 227.651C485.813 227.651 490.051 228.635 493.381 230.603C496.742 232.54 499.088 235.128 500.42 238.368C501.782 241.577 502.463 246.103 502.463 251.945V259.938ZM484.072 250.129V245.724C484.072 242.606 483.906 240.593 483.573 239.685C483.24 238.776 482.559 238.322 481.529 238.322C480.258 238.322 479.471 238.716 479.168 239.503C478.865 240.26 478.714 242.333 478.714 245.724V250.129H484.072Z" fill="#F1FAEE"/>
<path d="M29.0625 279.465H36.002V275.846H42.9746V279.465H66.5488C69.4486 279.465 71.0645 279.321 71.3965 279.033C71.7285 278.723 71.8945 277.473 71.8945 275.281H79V280.693C79 283.748 78.8783 285.928 78.6348 287.234C78.3691 288.54 77.7826 289.691 76.875 290.688C75.9453 291.684 74.8939 292.303 73.7207 292.547C72.5254 292.79 69.7363 292.912 65.3535 292.912H42.9746V295.801H36.002V292.912H29.0625V279.465ZM25.2441 259.477H37.3301C36.2676 258.326 35.4707 257.086 34.9395 255.758C34.4082 254.408 34.1426 252.969 34.1426 251.441C34.1426 249.095 34.7402 247.103 35.9355 245.465C37.1309 243.805 38.5143 242.798 40.0859 242.443C41.6354 242.067 44.4798 241.879 48.6191 241.879H79V255.293H47.9883C45.4206 255.293 43.7715 255.426 43.041 255.691C42.3105 255.935 41.9453 256.499 41.9453 257.385C41.9453 258.204 42.3216 258.757 43.0742 259.045C43.8268 259.333 45.321 259.477 47.5566 259.477H79V272.891H25.2441V259.477ZM57.75 206.85V224.215H67.2793C69.2715 224.215 70.5553 224.071 71.1309 223.783C71.7064 223.495 71.9941 222.942 71.9941 222.123C71.9941 221.105 71.6178 220.43 70.8652 220.098C70.0905 219.743 68.6074 219.566 66.416 219.566H60.6055V206.85H63.8594C66.582 206.85 68.6738 207.027 70.1348 207.381C71.5957 207.713 73.1562 208.51 74.8164 209.771C76.4766 211.033 77.7272 212.638 78.5684 214.586C79.3874 216.512 79.7969 218.936 79.7969 221.857C79.7969 224.691 79.3874 227.192 78.5684 229.361C77.7493 231.531 76.6315 233.224 75.2148 234.441C73.776 235.637 72.2044 236.467 70.5 236.932C68.7734 237.396 66.2721 237.629 62.9961 237.629H50.1465C46.2949 237.629 43.2624 237.109 41.0488 236.068C38.8132 235.028 37.1087 233.324 35.9355 230.955C34.7402 228.587 34.1426 225.864 34.1426 222.787C34.1426 219.024 34.862 215.925 36.3008 213.49C37.7174 211.033 39.61 209.318 41.9785 208.344C44.3249 207.348 47.6341 206.85 51.9063 206.85H57.75ZM50.5781 220.297H47.3574C45.0775 220.297 43.6055 220.419 42.9414 220.662C42.2773 220.906 41.9453 221.404 41.9453 222.156C41.9453 223.086 42.2331 223.661 42.8086 223.883C43.362 224.104 44.8783 224.215 47.3574 224.215H50.5781V220.297Z" fill="#F1FAEE"/>
</svg>
