<svg width="785" height="442" viewBox="0 0 785 442" fill="none" xmlns="http://www.w3.org/2000/svg">
<rect width="785" height="442" fill="#EAE2B7"/>
<path d="M346.119 64.4111H332.755V60.3096C332.755 58.3955 332.584 57.1764 332.242 56.6523C331.9 56.1283 331.331 55.8662 330.533 55.8662C329.667 55.8662 329.007 56.2194 328.551 56.9258C328.118 57.6322 327.901 58.7031 327.901 60.1387C327.901 61.9844 328.152 63.3743 328.653 64.3086C329.132 65.2428 330.488 66.3708 332.721 67.6924C339.124 71.4977 343.157 74.6195 344.82 77.0576C346.484 79.4958 347.315 83.4264 347.315 88.8496C347.315 92.7917 346.848 95.6969 345.914 97.5654C345.003 99.4339 343.225 101.006 340.582 102.282C337.939 103.535 334.863 104.162 331.354 104.162C327.503 104.162 324.21 103.433 321.476 101.975C318.764 100.516 316.987 98.6592 316.144 96.4033C315.3 94.1475 314.879 90.946 314.879 86.7988V83.1758H328.243V89.9092C328.243 91.9827 328.425 93.3158 328.79 93.9082C329.177 94.5007 329.85 94.7969 330.807 94.7969C331.764 94.7969 332.47 94.4209 332.926 93.6689C333.404 92.917 333.644 91.8005 333.644 90.3193C333.644 87.0609 333.199 84.9303 332.311 83.9277C331.399 82.9251 329.155 81.2503 325.577 78.9033C322 76.5335 319.63 74.8132 318.468 73.7422C317.306 72.6712 316.337 71.1901 315.562 69.2988C314.811 67.4076 314.435 64.9922 314.435 62.0527C314.435 57.8145 314.97 54.7155 316.041 52.7559C317.135 50.7962 318.889 49.2695 321.305 48.1758C323.72 47.0592 326.637 46.501 330.055 46.501C333.792 46.501 336.97 47.1048 339.591 48.3125C342.234 49.5202 343.977 51.0469 344.82 52.8926C345.686 54.7155 346.119 57.8258 346.119 62.2236V64.4111ZM365.499 57.6436L365.26 61.6426C366.49 60.0247 367.846 58.8171 369.327 58.0195C370.808 57.222 372.426 56.8232 374.181 56.8232C376.323 56.8232 378.168 57.4043 379.718 58.5664C381.29 59.7057 382.27 61.0273 382.657 62.5312C383.045 64.0352 383.238 66.5872 383.238 70.1875V89.2939C383.238 93.4183 382.988 96.3577 382.486 98.1123C382.008 99.8441 381.005 101.234 379.479 102.282C377.975 103.308 376.152 103.82 374.01 103.82C372.301 103.82 370.717 103.422 369.259 102.624C367.8 101.826 366.467 100.642 365.26 99.0693V109.46H351.451V57.6436H365.499ZM369.43 70.8369C369.43 68.0342 369.327 66.3366 369.122 65.7441C368.917 65.1517 368.347 64.8555 367.413 64.8555C366.502 64.8555 365.909 65.1973 365.636 65.8809C365.385 66.5645 365.26 68.2165 365.26 70.8369V89.6357C365.26 92.3701 365.396 94.0791 365.67 94.7627C365.943 95.4463 366.536 95.7881 367.447 95.7881C368.336 95.7881 368.883 95.4805 369.088 94.8652C369.316 94.2272 369.43 92.7005 369.43 90.2852V70.8369ZM419.093 81.125H401.217V90.9346C401.217 92.9854 401.365 94.307 401.661 94.8994C401.957 95.4919 402.527 95.7881 403.37 95.7881C404.418 95.7881 405.113 95.4007 405.455 94.626C405.82 93.8285 406.002 92.3018 406.002 90.0459V84.0645H419.093V87.4141C419.093 90.2168 418.91 92.3701 418.546 93.874C418.204 95.3779 417.384 96.9844 416.085 98.6934C414.786 100.402 413.134 101.69 411.129 102.556C409.146 103.399 406.651 103.82 403.644 103.82C400.727 103.82 398.152 103.399 395.919 102.556C393.686 101.713 391.943 100.562 390.689 99.1035C389.459 97.6224 388.604 96.0046 388.126 94.25C387.647 92.4727 387.408 89.8978 387.408 86.5254V73.2979C387.408 69.333 387.944 66.2113 389.015 63.9326C390.086 61.6312 391.84 59.8766 394.278 58.6689C396.716 57.4385 399.519 56.8232 402.687 56.8232C406.56 56.8232 409.75 57.5638 412.257 59.0449C414.786 60.5033 416.552 62.4515 417.555 64.8896C418.58 67.305 419.093 70.7116 419.093 75.1094V81.125ZM405.25 73.7422V70.4268C405.25 68.0798 405.125 66.5645 404.874 65.8809C404.623 65.1973 404.111 64.8555 403.336 64.8555C402.379 64.8555 401.786 65.1517 401.559 65.7441C401.331 66.3138 401.217 67.8747 401.217 70.4268V73.7422H405.25ZM435.978 75.2119H423.023V72.1699C423.023 68.6608 423.422 65.9606 424.22 64.0693C425.04 62.1553 426.669 60.4691 429.107 59.0107C431.546 57.5524 434.713 56.8232 438.609 56.8232C443.281 56.8232 446.801 57.6549 449.171 59.3184C451.541 60.959 452.965 62.987 453.443 65.4023C453.922 67.7949 454.161 72.7396 454.161 80.2363V103H440.729V98.9668C439.885 100.585 438.792 101.804 437.447 102.624C436.126 103.422 434.542 103.82 432.696 103.82C430.281 103.82 428.059 103.148 426.031 101.804C424.026 100.437 423.023 97.4629 423.023 92.8828V89.1572C423.023 85.762 423.559 83.4492 424.63 82.2188C425.701 80.9883 428.355 79.5527 432.594 77.9121C437.128 76.1348 439.555 74.9385 439.874 74.3232C440.193 73.708 440.353 72.4548 440.353 70.5635C440.353 68.1937 440.17 66.6556 439.806 65.9492C439.464 65.2201 438.883 64.8555 438.062 64.8555C437.128 64.8555 436.547 65.1631 436.319 65.7783C436.091 66.3708 435.978 67.9316 435.978 70.4609V75.2119ZM440.353 81.4326C438.142 83.0505 436.855 84.4062 436.49 85.5C436.148 86.5938 435.978 88.166 435.978 90.2168C435.978 92.5638 436.126 94.0791 436.422 94.7627C436.741 95.4463 437.356 95.7881 438.268 95.7881C439.133 95.7881 439.692 95.526 439.942 95.002C440.216 94.4551 440.353 93.0423 440.353 90.7637V81.4326ZM488.648 57.6436L483.043 75.7246L490.323 103H477.027L472.721 83.2441V103H458.912V47.6631H472.721V70.9053L477.027 57.6436H488.648ZM536.021 73.5713V84.6797C536.021 88.7585 535.816 91.7549 535.406 93.6689C534.996 95.5602 534.119 97.3376 532.774 99.001C531.43 100.642 529.698 101.861 527.579 102.658C525.483 103.433 523.067 103.82 520.333 103.82C517.28 103.82 514.693 103.49 512.574 102.829C510.455 102.146 508.803 101.132 507.618 99.7871C506.456 98.4199 505.624 96.7793 505.123 94.8652C504.622 92.9284 504.371 90.0345 504.371 86.1836V74.5625C504.371 70.347 504.827 67.0544 505.738 64.6846C506.65 62.3148 508.29 60.4121 510.66 58.9766C513.03 57.541 516.061 56.8232 519.752 56.8232C522.851 56.8232 525.506 57.2904 527.716 58.2246C529.949 59.1361 531.669 60.3324 532.877 61.8135C534.085 63.2946 534.905 64.8213 535.338 66.3936C535.794 67.9658 536.021 70.3584 536.021 73.5713ZM522.213 70.1533C522.213 67.8291 522.088 66.3708 521.837 65.7783C521.586 65.1631 521.051 64.8555 520.23 64.8555C519.41 64.8555 518.863 65.1631 518.59 65.7783C518.316 66.3708 518.18 67.8291 518.18 70.1533V90.627C518.18 92.7689 518.316 94.1702 518.59 94.8311C518.863 95.4691 519.399 95.7881 520.196 95.7881C521.017 95.7881 521.552 95.4919 521.803 94.8994C522.076 94.307 522.213 93.0309 522.213 91.0713V70.1533ZM572.218 57.6436V103H558.17L558.409 99.2402C557.452 100.767 556.267 101.918 554.854 102.692C553.465 103.444 551.858 103.82 550.035 103.82C547.962 103.82 546.241 103.456 544.874 102.727C543.507 101.997 542.493 101.029 541.832 99.8213C541.194 98.6136 540.795 97.3604 540.636 96.0615C540.476 94.7399 540.396 92.1309 540.396 88.2344V57.6436H554.205V88.5078C554.205 92.0397 554.308 94.1361 554.513 94.7969C554.741 95.4577 555.333 95.7881 556.29 95.7881C557.315 95.7881 557.919 95.4463 558.102 94.7627C558.307 94.0791 558.409 91.8802 558.409 88.166V57.6436H572.218ZM591.734 51.5938V58.7373H595.46V65.915H591.734V90.1826C591.734 93.1676 591.882 94.8311 592.179 95.1729C592.498 95.5146 593.785 95.6855 596.041 95.6855V103H590.47C587.325 103 585.081 102.875 583.736 102.624C582.392 102.351 581.207 101.747 580.182 100.812C579.156 99.8555 578.518 98.7731 578.268 97.5654C578.017 96.335 577.892 93.4639 577.892 88.9521V65.915H574.918V58.7373H577.892V51.5938H591.734Z" fill="#F77F00"/>
<path d="M625.094 47.6631V54.875H610.875V47.6631H625.094ZM625.094 57.6436V103H610.875V57.6436H625.094ZM647.687 47.6631V54.6699C644.838 54.6699 643.152 54.8066 642.628 55.0801C642.127 55.3307 641.876 56.0713 641.876 57.3018V58.7373H647.687V65.915H644.405V103H630.597V65.915H627.76V58.7373H630.597C630.597 55.7523 630.699 53.7585 630.904 52.7559C631.109 51.7533 631.611 50.8646 632.408 50.0898C633.229 49.2923 634.368 48.6885 635.826 48.2783C637.285 47.8682 639.552 47.6631 642.628 47.6631H647.687ZM691.607 57.6436L687.643 90.4561C687.027 95.6514 686.503 99.1947 686.07 101.086C685.66 102.977 684.965 104.538 683.985 105.769C683.006 106.999 681.638 107.899 679.884 108.469C678.152 109.061 675.372 109.357 671.544 109.357H663.17V102.111C665.312 102.111 666.69 102.009 667.306 101.804C667.921 101.576 668.229 101.086 668.229 100.334C668.229 99.9694 667.944 98.3857 667.374 95.583L659.82 57.6436H672.364L676.876 88.2344L679.063 57.6436H691.607ZM725.309 73.5713V84.6797C725.309 88.7585 725.104 91.7549 724.693 93.6689C724.283 95.5602 723.406 97.3376 722.062 99.001C720.717 100.642 718.985 101.861 716.866 102.658C714.77 103.433 712.354 103.82 709.62 103.82C706.567 103.82 703.98 103.49 701.861 102.829C699.742 102.146 698.09 101.132 696.905 99.7871C695.743 98.4199 694.911 96.7793 694.41 94.8652C693.909 92.9284 693.658 90.0345 693.658 86.1836V74.5625C693.658 70.347 694.114 67.0544 695.025 64.6846C695.937 62.3148 697.577 60.4121 699.947 58.9766C702.317 57.541 705.348 56.8232 709.039 56.8232C712.138 56.8232 714.793 57.2904 717.003 58.2246C719.236 59.1361 720.956 60.3324 722.164 61.8135C723.372 63.2946 724.192 64.8213 724.625 66.3936C725.081 67.9658 725.309 70.3584 725.309 73.5713ZM711.5 70.1533C711.5 67.8291 711.375 66.3708 711.124 65.7783C710.873 65.1631 710.338 64.8555 709.518 64.8555C708.697 64.8555 708.15 65.1631 707.877 65.7783C707.604 66.3708 707.467 67.8291 707.467 70.1533V90.627C707.467 92.7689 707.604 94.1702 707.877 94.8311C708.15 95.4691 708.686 95.7881 709.483 95.7881C710.304 95.7881 710.839 95.4919 711.09 94.8994C711.363 94.307 711.5 93.0309 711.5 91.0713V70.1533ZM761.505 57.6436V103H747.457L747.696 99.2402C746.739 100.767 745.554 101.918 744.142 102.692C742.752 103.444 741.145 103.82 739.322 103.82C737.249 103.82 735.528 103.456 734.161 102.727C732.794 101.997 731.78 101.029 731.119 99.8213C730.481 98.6136 730.082 97.3604 729.923 96.0615C729.763 94.7399 729.684 92.1309 729.684 88.2344V57.6436H743.492V88.5078C743.492 92.0397 743.595 94.1361 743.8 94.7969C744.028 95.4577 744.62 95.7881 745.577 95.7881C746.603 95.7881 747.206 95.4463 747.389 94.7627C747.594 94.0791 747.696 91.8802 747.696 88.166V57.6436H761.505ZM408.497 280.212H395.543V277.17C395.543 273.661 395.942 270.961 396.739 269.069C397.56 267.155 399.189 265.469 401.627 264.011C404.065 262.552 407.232 261.823 411.129 261.823C415.8 261.823 419.321 262.655 421.69 264.318C424.06 265.959 425.484 267.987 425.963 270.402C426.441 272.795 426.681 277.74 426.681 285.236V308H413.248V303.967C412.405 305.585 411.311 306.804 409.967 307.624C408.645 308.422 407.062 308.82 405.216 308.82C402.8 308.82 400.579 308.148 398.551 306.804C396.546 305.437 395.543 302.463 395.543 297.883V294.157C395.543 290.762 396.078 288.449 397.149 287.219C398.22 285.988 400.875 284.553 405.113 282.912C409.648 281.135 412.075 279.938 412.394 279.323C412.713 278.708 412.872 277.455 412.872 275.563C412.872 273.194 412.69 271.656 412.325 270.949C411.983 270.22 411.402 269.855 410.582 269.855C409.648 269.855 409.067 270.163 408.839 270.778C408.611 271.371 408.497 272.932 408.497 275.461V280.212ZM412.872 286.433C410.662 288.05 409.374 289.406 409.01 290.5C408.668 291.594 408.497 293.166 408.497 295.217C408.497 297.564 408.645 299.079 408.941 299.763C409.26 300.446 409.876 300.788 410.787 300.788C411.653 300.788 412.211 300.526 412.462 300.002C412.735 299.455 412.872 298.042 412.872 295.764V286.433ZM457.613 252.663V265.104C458.798 264.011 460.074 263.19 461.441 262.644C462.831 262.097 464.312 261.823 465.885 261.823C468.3 261.823 470.351 262.438 472.037 263.669C473.746 264.899 474.783 266.324 475.147 267.941C475.535 269.536 475.729 272.465 475.729 276.726V308H461.92V276.076C461.92 273.433 461.783 271.735 461.51 270.983C461.259 270.231 460.678 269.855 459.767 269.855C458.924 269.855 458.354 270.243 458.058 271.018C457.761 271.792 457.613 273.33 457.613 275.632V308H443.805V252.663H457.613ZM492.853 280.212H479.898V277.17C479.898 273.661 480.297 270.961 481.095 269.069C481.915 267.155 483.544 265.469 485.982 264.011C488.421 262.552 491.588 261.823 495.484 261.823C500.156 261.823 503.676 262.655 506.046 264.318C508.416 265.959 509.84 267.987 510.318 270.402C510.797 272.795 511.036 277.74 511.036 285.236V308H497.604V303.967C496.76 305.585 495.667 306.804 494.322 307.624C493.001 308.422 491.417 308.82 489.571 308.82C487.156 308.82 484.934 308.148 482.906 306.804C480.901 305.437 479.898 302.463 479.898 297.883V294.157C479.898 290.762 480.434 288.449 481.505 287.219C482.576 285.988 485.23 284.553 489.469 282.912C494.003 281.135 496.43 279.938 496.749 279.323C497.068 278.708 497.228 277.455 497.228 275.563C497.228 273.194 497.045 271.656 496.681 270.949C496.339 270.22 495.758 269.855 494.938 269.855C494.003 269.855 493.422 270.163 493.194 270.778C492.966 271.371 492.853 272.932 492.853 275.461V280.212ZM497.228 286.433C495.017 288.05 493.73 289.406 493.365 290.5C493.023 291.594 492.853 293.166 492.853 295.217C492.853 297.564 493.001 299.079 493.297 299.763C493.616 300.446 494.231 300.788 495.143 300.788C496.008 300.788 496.567 300.526 496.817 300.002C497.091 299.455 497.228 298.042 497.228 295.764V286.433ZM530.348 256.594V263.737H534.073V270.915H530.348V295.183C530.348 298.168 530.496 299.831 530.792 300.173C531.111 300.515 532.398 300.686 534.654 300.686V308H529.083C525.938 308 523.694 307.875 522.35 307.624C521.005 307.351 519.82 306.747 518.795 305.812C517.77 304.855 517.132 303.773 516.881 302.565C516.63 301.335 516.505 298.464 516.505 293.952V270.915H513.531V263.737H516.505V256.594H530.348ZM568.39 286.125H550.514V295.935C550.514 297.985 550.662 299.307 550.958 299.899C551.254 300.492 551.824 300.788 552.667 300.788C553.715 300.788 554.41 300.401 554.752 299.626C555.117 298.828 555.299 297.302 555.299 295.046V289.064H568.39V292.414C568.39 295.217 568.207 297.37 567.843 298.874C567.501 300.378 566.681 301.984 565.382 303.693C564.083 305.402 562.431 306.69 560.426 307.556C558.443 308.399 555.948 308.82 552.94 308.82C550.024 308.82 547.449 308.399 545.216 307.556C542.983 306.713 541.24 305.562 539.986 304.104C538.756 302.622 537.901 301.005 537.423 299.25C536.944 297.473 536.705 294.898 536.705 291.525V278.298C536.705 274.333 537.241 271.211 538.312 268.933C539.382 266.631 541.137 264.877 543.575 263.669C546.013 262.438 548.816 261.823 551.983 261.823C555.857 261.823 559.047 262.564 561.554 264.045C564.083 265.503 565.849 267.451 566.852 269.89C567.877 272.305 568.39 275.712 568.39 280.109V286.125ZM554.547 278.742V275.427C554.547 273.08 554.422 271.564 554.171 270.881C553.92 270.197 553.408 269.855 552.633 269.855C551.676 269.855 551.083 270.152 550.855 270.744C550.628 271.314 550.514 272.875 550.514 275.427V278.742H554.547ZM615.831 279.768H602.809V274.538C602.809 272.715 602.66 271.485 602.364 270.847C602.068 270.186 601.521 269.855 600.724 269.855C599.926 269.855 599.391 270.14 599.117 270.71C598.844 271.28 598.707 272.556 598.707 274.538V295.935C598.707 297.552 598.912 298.771 599.322 299.592C599.732 300.389 600.336 300.788 601.134 300.788C602.068 300.788 602.695 300.367 603.014 299.523C603.355 298.68 603.526 297.085 603.526 294.738V289.338H615.831C615.808 292.961 615.672 295.684 615.421 297.507C615.193 299.307 614.43 301.164 613.131 303.078C611.855 304.969 610.18 306.405 608.106 307.385C606.033 308.342 603.469 308.82 600.416 308.82C596.52 308.82 593.432 308.16 591.153 306.838C588.875 305.493 587.257 303.625 586.3 301.232C585.366 298.817 584.898 295.399 584.898 290.979V278.093C584.898 274.242 585.286 271.337 586.061 269.377C586.835 267.417 588.487 265.674 591.017 264.147C593.546 262.598 596.622 261.823 600.245 261.823C603.845 261.823 606.922 262.587 609.474 264.113C612.026 265.64 613.723 267.565 614.566 269.89C615.41 272.214 615.831 275.507 615.831 279.768ZM633.775 262.644L633.229 268.591C635.234 264.33 638.139 262.074 641.944 261.823V277.785C639.415 277.785 637.558 278.127 636.373 278.811C635.188 279.494 634.459 280.451 634.186 281.682C633.912 282.889 633.775 285.692 633.775 290.09V308H619.967V262.644H633.775ZM659.273 252.663V259.875H645.055V252.663H659.273ZM659.273 262.644V308H645.055V262.644H659.273ZM677.901 262.644L677.662 266.95C678.733 265.241 680.009 263.965 681.49 263.122C682.971 262.256 684.658 261.823 686.549 261.823C690.24 261.823 693.146 263.532 695.265 266.95C696.427 265.241 697.737 263.965 699.195 263.122C700.654 262.256 702.271 261.823 704.049 261.823C706.396 261.823 708.333 262.393 709.859 263.532C711.409 264.672 712.4 266.073 712.833 267.736C713.266 269.377 713.482 272.054 713.482 275.769V308H700.084V278.435C700.084 274.561 699.947 272.168 699.674 271.257C699.423 270.323 698.819 269.855 697.862 269.855C696.882 269.855 696.244 270.311 695.948 271.223C695.675 272.134 695.538 274.538 695.538 278.435V308H682.14V279.187C682.14 274.743 682.026 272.077 681.798 271.188C681.593 270.3 681 269.855 680.021 269.855C679.405 269.855 678.881 270.095 678.448 270.573C678.015 271.029 677.776 271.599 677.73 272.282C677.685 272.943 677.662 274.367 677.662 276.555V308H664.264V262.644H677.901ZM749.542 286.125H731.666V295.935C731.666 297.985 731.814 299.307 732.11 299.899C732.407 300.492 732.976 300.788 733.819 300.788C734.868 300.788 735.562 300.401 735.904 299.626C736.269 298.828 736.451 297.302 736.451 295.046V289.064H749.542V292.414C749.542 295.217 749.36 297.37 748.995 298.874C748.653 300.378 747.833 301.984 746.534 303.693C745.235 305.402 743.583 306.69 741.578 307.556C739.596 308.399 737.101 308.82 734.093 308.82C731.176 308.82 728.601 308.399 726.368 307.556C724.135 306.713 722.392 305.562 721.139 304.104C719.908 302.622 719.054 301.005 718.575 299.25C718.097 297.473 717.857 294.898 717.857 291.525V278.298C717.857 274.333 718.393 271.211 719.464 268.933C720.535 266.631 722.289 264.877 724.728 263.669C727.166 262.438 729.968 261.823 733.136 261.823C737.009 261.823 740.2 262.564 742.706 264.045C745.235 265.503 747.001 267.451 748.004 269.89C749.029 272.305 749.542 275.712 749.542 280.109V286.125ZM735.699 278.742V275.427C735.699 273.08 735.574 271.564 735.323 270.881C735.073 270.197 734.56 269.855 733.785 269.855C732.828 269.855 732.236 270.152 732.008 270.744C731.78 271.314 731.666 272.875 731.666 275.427V278.742H735.699ZM484.547 363.571V374.68C484.547 378.758 484.342 381.755 483.932 383.669C483.521 385.56 482.644 387.338 481.3 389.001C479.955 390.642 478.224 391.861 476.104 392.658C474.008 393.433 471.593 393.82 468.858 393.82C465.805 393.82 463.219 393.49 461.1 392.829C458.98 392.146 457.328 391.132 456.144 389.787C454.981 388.42 454.15 386.779 453.648 384.865C453.147 382.928 452.896 380.035 452.896 376.184V364.562C452.896 360.347 453.352 357.054 454.264 354.685C455.175 352.315 456.816 350.412 459.186 348.977C461.555 347.541 464.586 346.823 468.277 346.823C471.376 346.823 474.031 347.29 476.241 348.225C478.474 349.136 480.195 350.332 481.402 351.813C482.61 353.295 483.43 354.821 483.863 356.394C484.319 357.966 484.547 360.358 484.547 363.571ZM470.738 360.153C470.738 357.829 470.613 356.371 470.362 355.778C470.112 355.163 469.576 354.855 468.756 354.855C467.936 354.855 467.389 355.163 467.115 355.778C466.842 356.371 466.705 357.829 466.705 360.153V380.627C466.705 382.769 466.842 384.17 467.115 384.831C467.389 385.469 467.924 385.788 468.722 385.788C469.542 385.788 470.077 385.492 470.328 384.899C470.602 384.307 470.738 383.031 470.738 381.071V360.153ZM502.936 347.644L502.389 353.591C504.394 349.33 507.299 347.074 511.104 346.823V362.785C508.575 362.785 506.718 363.127 505.533 363.811C504.348 364.494 503.619 365.451 503.346 366.682C503.072 367.889 502.936 370.692 502.936 375.09V393H489.127V347.644H502.936ZM540.807 337.663V344.875H526.588V337.663H540.807ZM540.807 347.644V393H526.588V347.644H540.807ZM559.845 347.644L559.605 351.813C560.608 350.15 561.827 348.908 563.263 348.088C564.721 347.245 566.396 346.823 568.287 346.823C570.657 346.823 572.594 347.382 574.098 348.498C575.602 349.615 576.57 351.027 577.003 352.736C577.436 354.423 577.652 357.248 577.652 361.213V393H563.844V361.589C563.844 358.467 563.741 356.564 563.536 355.881C563.331 355.197 562.761 354.855 561.827 354.855C560.847 354.855 560.232 355.254 559.981 356.052C559.731 356.826 559.605 358.923 559.605 362.341V393H545.797V347.644H559.845ZM612.96 364.768H599.938V359.538C599.938 357.715 599.789 356.485 599.493 355.847C599.197 355.186 598.65 354.855 597.853 354.855C597.055 354.855 596.52 355.14 596.246 355.71C595.973 356.28 595.836 357.556 595.836 359.538V380.935C595.836 382.552 596.041 383.771 596.451 384.592C596.861 385.389 597.465 385.788 598.263 385.788C599.197 385.788 599.824 385.367 600.143 384.523C600.484 383.68 600.655 382.085 600.655 379.738V374.338H612.96C612.937 377.961 612.8 380.684 612.55 382.507C612.322 384.307 611.559 386.164 610.26 388.078C608.984 389.969 607.309 391.405 605.235 392.385C603.162 393.342 600.598 393.82 597.545 393.82C593.648 393.82 590.561 393.16 588.282 391.838C586.004 390.493 584.386 388.625 583.429 386.232C582.494 383.817 582.027 380.399 582.027 375.979V363.093C582.027 359.242 582.415 356.337 583.189 354.377C583.964 352.417 585.616 350.674 588.146 349.147C590.675 347.598 593.751 346.823 597.374 346.823C600.974 346.823 604.05 347.587 606.603 349.113C609.155 350.64 610.852 352.565 611.695 354.89C612.538 357.214 612.96 360.507 612.96 364.768ZM631.314 337.663V344.875H617.096V337.663H631.314ZM631.314 347.644V393H617.096V347.644H631.314ZM667.716 337.663V393H653.907V389.719C652.586 391.086 651.196 392.111 649.737 392.795C648.279 393.479 646.752 393.82 645.157 393.82C643.015 393.82 641.158 393.262 639.586 392.146C638.014 391.006 637 389.696 636.544 388.215C636.111 386.734 635.895 384.318 635.895 380.969V359.743C635.895 356.257 636.111 353.785 636.544 352.326C637 350.868 638.025 349.592 639.62 348.498C641.215 347.382 643.118 346.823 645.328 346.823C647.037 346.823 648.598 347.131 650.011 347.746C651.446 348.361 652.745 349.284 653.907 350.515V337.663H667.716ZM653.907 359.06C653.907 357.396 653.759 356.28 653.463 355.71C653.189 355.14 652.631 354.855 651.788 354.855C650.968 354.855 650.41 355.118 650.113 355.642C649.84 356.143 649.703 357.282 649.703 359.06V381.276C649.703 383.122 649.84 384.341 650.113 384.934C650.387 385.503 650.911 385.788 651.686 385.788C652.574 385.788 653.167 385.469 653.463 384.831C653.759 384.17 653.907 382.575 653.907 380.046V359.06ZM703.946 371.125H686.07V380.935C686.07 382.985 686.218 384.307 686.515 384.899C686.811 385.492 687.381 385.788 688.224 385.788C689.272 385.788 689.967 385.401 690.309 384.626C690.673 383.828 690.855 382.302 690.855 380.046V374.064H703.946V377.414C703.946 380.217 703.764 382.37 703.399 383.874C703.058 385.378 702.237 386.984 700.938 388.693C699.64 390.402 697.988 391.69 695.982 392.556C694 393.399 691.505 393.82 688.497 393.82C685.58 393.82 683.006 393.399 680.772 392.556C678.539 391.713 676.796 390.562 675.543 389.104C674.312 387.622 673.458 386.005 672.979 384.25C672.501 382.473 672.262 379.898 672.262 376.525V363.298C672.262 359.333 672.797 356.211 673.868 353.933C674.939 351.631 676.694 349.877 679.132 348.669C681.57 347.438 684.373 346.823 687.54 346.823C691.414 346.823 694.604 347.564 697.11 349.045C699.64 350.503 701.406 352.451 702.408 354.89C703.434 357.305 703.946 360.712 703.946 365.109V371.125ZM690.104 363.742V360.427C690.104 358.08 689.978 356.564 689.728 355.881C689.477 355.197 688.964 354.855 688.189 354.855C687.232 354.855 686.64 355.152 686.412 355.744C686.184 356.314 686.07 357.875 686.07 360.427V363.742H690.104ZM722.54 347.644L722.301 351.813C723.303 350.15 724.522 348.908 725.958 348.088C727.416 347.245 729.091 346.823 730.982 346.823C733.352 346.823 735.289 347.382 736.793 348.498C738.297 349.615 739.265 351.027 739.698 352.736C740.131 354.423 740.348 357.248 740.348 361.213V393H726.539V361.589C726.539 358.467 726.437 356.564 726.231 355.881C726.026 355.197 725.457 354.855 724.522 354.855C723.543 354.855 722.927 355.254 722.677 356.052C722.426 356.826 722.301 358.923 722.301 362.341V393H708.492V347.644H722.54ZM759.693 341.594V348.737H763.419V355.915H759.693V380.183C759.693 383.168 759.841 384.831 760.138 385.173C760.457 385.515 761.744 385.686 764 385.686V393H758.429C755.284 393 753.04 392.875 751.695 392.624C750.351 392.351 749.166 391.747 748.141 390.812C747.115 389.855 746.477 388.773 746.227 387.565C745.976 386.335 745.851 383.464 745.851 378.952V355.915H742.877V348.737H745.851V341.594H759.693Z" fill="#D62828"/>
<path d="M445.24 145.246L435.807 223H410.084C408.678 213.508 407.057 201.008 405.221 185.5C404.596 192.297 403.717 199.172 402.584 206.125L399.947 223H374.225L364.205 145.246H384.596C384.752 147.277 386.471 162.102 389.752 189.719C389.986 186.906 391.744 172.082 395.025 145.246H414.654L419.459 189.719C420.201 176.75 421.998 161.926 424.85 145.246H445.24ZM473.541 128.137V140.5H449.166V128.137H473.541ZM473.541 145.246V223H449.166V145.246H473.541ZM507.057 134.875V147.121H513.443V159.426H507.057V201.027C507.057 206.145 507.311 208.996 507.818 209.582C508.365 210.168 510.572 210.461 514.439 210.461V223H504.889C499.498 223 495.65 222.785 493.346 222.355C491.041 221.887 489.01 220.852 487.252 219.25C485.494 217.609 484.4 215.754 483.971 213.684C483.541 211.574 483.326 206.652 483.326 198.918V159.426H478.229V147.121H483.326V134.875H507.057ZM542.74 145.246L542.33 152.395C544.049 149.543 546.139 147.414 548.6 146.008C551.1 144.562 553.971 143.84 557.213 143.84C561.275 143.84 564.596 144.797 567.174 146.711C569.752 148.625 571.412 151.047 572.154 153.977C572.896 156.867 573.268 161.711 573.268 168.508V223H549.596V169.152C549.596 163.801 549.42 160.539 549.068 159.367C548.717 158.195 547.74 157.609 546.139 157.609C544.459 157.609 543.404 158.293 542.975 159.66C542.545 160.988 542.33 164.582 542.33 170.441V223H518.658V145.246H542.74ZM635.084 185.5H604.439V202.316C604.439 205.832 604.693 208.098 605.201 209.113C605.709 210.129 606.686 210.637 608.131 210.637C609.928 210.637 611.119 209.973 611.705 208.645C612.33 207.277 612.643 204.66 612.643 200.793V190.539H635.084V196.281C635.084 201.086 634.771 204.777 634.146 207.355C633.561 209.934 632.154 212.688 629.928 215.617C627.701 218.547 624.869 220.754 621.432 222.238C618.033 223.684 613.756 224.406 608.6 224.406C603.6 224.406 599.186 223.684 595.357 222.238C591.529 220.793 588.541 218.82 586.393 216.32C584.283 213.781 582.818 211.008 581.998 208C581.178 204.953 580.768 200.539 580.768 194.758V172.082C580.768 165.285 581.686 159.934 583.521 156.027C585.357 152.082 588.365 149.074 592.545 147.004C596.725 144.895 601.529 143.84 606.959 143.84C613.6 143.84 619.068 145.109 623.365 147.648C627.701 150.148 630.729 153.488 632.447 157.668C634.205 161.809 635.084 167.648 635.084 175.188V185.5ZM611.354 172.844V167.16C611.354 163.137 611.139 160.539 610.709 159.367C610.279 158.195 609.4 157.609 608.072 157.609C606.432 157.609 605.416 158.117 605.025 159.133C604.635 160.109 604.439 162.785 604.439 167.16V172.844H611.354ZM691.217 170.09H670.24V165.871C670.24 162.277 670.025 160.012 669.596 159.074C669.205 158.098 668.189 157.609 666.549 157.609C665.221 157.609 664.225 158.059 663.561 158.957C662.896 159.816 662.564 161.125 662.564 162.883C662.564 165.266 662.721 167.023 663.033 168.156C663.385 169.25 664.381 170.461 666.021 171.789C667.701 173.117 671.119 175.051 676.275 177.59C683.15 180.949 687.662 184.113 689.811 187.082C691.959 190.051 693.033 194.367 693.033 200.031C693.033 206.359 692.213 211.145 690.572 214.387C688.932 217.59 686.178 220.07 682.311 221.828C678.482 223.547 673.854 224.406 668.424 224.406C662.408 224.406 657.252 223.469 652.955 221.594C648.697 219.719 645.768 217.18 644.166 213.977C642.564 210.773 641.764 205.93 641.764 199.445V195.695H662.74V200.617C662.74 204.797 662.994 207.512 663.502 208.762C664.049 210.012 665.104 210.637 666.666 210.637C668.346 210.637 669.518 210.227 670.182 209.406C670.846 208.547 671.178 206.77 671.178 204.074C671.178 200.363 670.748 198.039 669.889 197.102C668.99 196.164 664.4 193.391 656.119 188.781C649.166 184.875 644.928 181.34 643.404 178.176C641.881 174.973 641.119 171.184 641.119 166.809C641.119 160.598 641.939 156.027 643.58 153.098C645.221 150.129 647.994 147.844 651.9 146.242C655.846 144.641 660.416 143.84 665.611 143.84C670.768 143.84 675.143 144.504 678.736 145.832C682.369 147.121 685.143 148.84 687.057 150.988C689.01 153.137 690.182 155.129 690.572 156.965C691.002 158.801 691.217 161.672 691.217 165.578V170.09ZM747.701 170.09H726.725V165.871C726.725 162.277 726.51 160.012 726.08 159.074C725.689 158.098 724.674 157.609 723.033 157.609C721.705 157.609 720.709 158.059 720.045 158.957C719.381 159.816 719.049 161.125 719.049 162.883C719.049 165.266 719.205 167.023 719.518 168.156C719.869 169.25 720.865 170.461 722.506 171.789C724.186 173.117 727.604 175.051 732.76 177.59C739.635 180.949 744.146 184.113 746.295 187.082C748.443 190.051 749.518 194.367 749.518 200.031C749.518 206.359 748.697 211.145 747.057 214.387C745.416 217.59 742.662 220.07 738.795 221.828C734.967 223.547 730.338 224.406 724.908 224.406C718.893 224.406 713.736 223.469 709.439 221.594C705.182 219.719 702.252 217.18 700.65 213.977C699.049 210.773 698.248 205.93 698.248 199.445V195.695H719.225V200.617C719.225 204.797 719.479 207.512 719.986 208.762C720.533 210.012 721.588 210.637 723.15 210.637C724.83 210.637 726.002 210.227 726.666 209.406C727.33 208.547 727.662 206.77 727.662 204.074C727.662 200.363 727.232 198.039 726.373 197.102C725.475 196.164 720.885 193.391 712.604 188.781C705.65 184.875 701.412 181.34 699.889 178.176C698.365 174.973 697.604 171.184 697.604 166.809C697.604 160.598 698.424 156.027 700.064 153.098C701.705 150.129 704.479 147.844 708.385 146.242C712.33 144.641 716.9 143.84 722.096 143.84C727.252 143.84 731.627 144.504 735.221 145.832C738.854 147.121 741.627 148.84 743.541 150.988C745.494 153.137 746.666 155.129 747.057 156.965C747.486 158.801 747.701 161.672 747.701 165.578V170.09Z" fill="#003049"/>
<path d="M306.584 174.297C306.584 167.853 304.024 161.673 299.467 157.116C294.911 152.56 288.73 150 282.286 150H129.791C123.347 150 117.167 152.56 112.611 157.116C108.054 161.673 105.494 167.853 105.494 174.297V249.861H76.1857C72.1582 249.861 68.2957 251.461 65.4478 254.309C62.5999 257.157 61 261.02 61 265.047V327.491C61 331.518 62.5999 335.381 65.4478 338.229C68.2957 341.077 72.1582 342.677 76.1857 342.677H92.4952L98.1443 367.277C98.3913 368.36 98.9303 369.354 99.7025 370.151C100.475 370.949 101.451 371.519 102.525 371.801C103.598 372.083 104.729 372.065 105.793 371.749C106.858 371.434 107.815 370.832 108.562 370.011L133.375 342.677H173.8C177.827 342.677 181.69 341.077 184.538 338.229C187.385 335.381 188.985 331.518 188.985 327.491V293.687H194.088L235.697 339.457C236.443 340.279 237.401 340.88 238.465 341.196C239.529 341.511 240.66 341.529 241.734 341.247C242.807 340.966 243.784 340.395 244.556 339.597C245.328 338.8 245.867 337.806 246.114 336.724L256.046 293.687H282.317C288.761 293.687 294.941 291.127 299.497 286.571C304.054 282.014 306.614 275.834 306.614 269.39L306.584 174.297ZM176.837 327.491C176.837 328.296 176.517 329.069 175.947 329.638C175.378 330.208 174.605 330.528 173.8 330.528H130.672C129.824 330.53 128.987 330.709 128.213 331.055C127.438 331.4 126.745 331.903 126.177 332.532L107.377 353.215L103.247 335.236C102.938 333.897 102.184 332.702 101.108 331.847C100.032 330.992 98.6984 330.527 97.3243 330.528H76.0642C75.2587 330.528 74.4862 330.208 73.9167 329.638C73.3471 329.069 73.0271 328.296 73.0271 327.491V265.047C73.0271 264.242 73.3471 263.469 73.9167 262.899C74.4862 262.33 75.2587 262.01 76.0642 262.01H105.373V269.39C105.373 275.834 107.933 282.014 112.489 286.571C117.046 291.127 123.226 293.687 129.67 293.687H176.837V327.491ZM294.435 269.39C294.435 272.612 293.155 275.702 290.877 277.981C288.598 280.259 285.508 281.539 282.286 281.539H251.186C249.812 281.538 248.478 282.003 247.402 282.858C246.327 283.713 245.573 284.907 245.264 286.246L236.881 322.692L201.255 283.543C200.685 282.92 199.99 282.422 199.216 282.082C198.442 281.742 197.606 281.567 196.76 281.569H129.791C126.569 281.569 123.479 280.289 121.201 278.011C118.923 275.733 117.643 272.643 117.643 269.421V174.297C117.643 171.075 118.923 167.985 121.201 165.707C123.479 163.429 126.569 162.149 129.791 162.149H282.286C285.508 162.149 288.598 163.429 290.877 165.707C293.155 167.985 294.435 171.075 294.435 174.297V269.39Z" fill="#F77F00"/>
<path d="M143.853 209.346H216.745C218.356 209.346 219.901 208.706 221.04 207.567C222.179 206.428 222.819 204.883 222.819 203.272C222.819 201.661 222.179 200.116 221.04 198.976C219.901 197.837 218.356 197.197 216.745 197.197H143.853C142.242 197.197 140.697 197.837 139.558 198.976C138.419 200.116 137.779 201.661 137.779 203.272C137.779 204.883 138.419 206.428 139.558 207.567C140.697 208.706 142.242 209.346 143.853 209.346Z" fill="#F77F00"/>
<path d="M265.339 233.644H143.853C142.242 233.644 140.697 234.284 139.558 235.423C138.419 236.562 137.779 238.107 137.779 239.718C137.779 241.329 138.419 242.874 139.558 244.013C140.697 245.152 142.242 245.792 143.853 245.792H265.339C266.95 245.792 268.495 245.152 269.634 244.013C270.773 242.874 271.413 241.329 271.413 239.718C271.413 238.107 270.773 236.562 269.634 235.423C268.495 234.284 266.95 233.644 265.339 233.644Z" fill="#F77F00"/>
</svg>
