<svg width="785" height="442" viewBox="0 0 785 442" fill="none" xmlns="http://www.w3.org/2000/svg">
<rect width="785" height="442" fill="#023047"/>
<path d="M724.273 284.571V295.68C724.273 299.758 724.068 302.755 723.658 304.669C723.248 306.56 722.371 308.338 721.026 310.001C719.682 311.642 717.95 312.861 715.831 313.658C713.735 314.433 711.319 314.82 708.585 314.82C705.532 314.82 702.945 314.49 700.826 313.829C698.707 313.146 697.055 312.132 695.87 310.787C694.708 309.42 693.876 307.779 693.375 305.865C692.874 303.928 692.623 301.035 692.623 297.184V285.562C692.623 281.347 693.079 278.054 693.99 275.685C694.902 273.315 696.542 271.412 698.912 269.977C701.282 268.541 704.312 267.823 708.004 267.823C711.103 267.823 713.757 268.29 715.968 269.225C718.201 270.136 719.921 271.332 721.129 272.813C722.337 274.295 723.157 275.821 723.59 277.394C724.046 278.966 724.273 281.358 724.273 284.571ZM710.465 281.153C710.465 278.829 710.34 277.371 710.089 276.778C709.838 276.163 709.303 275.855 708.482 275.855C707.662 275.855 707.115 276.163 706.842 276.778C706.568 277.371 706.432 278.829 706.432 281.153V301.627C706.432 303.769 706.568 305.17 706.842 305.831C707.115 306.469 707.651 306.788 708.448 306.788C709.269 306.788 709.804 306.492 710.055 305.899C710.328 305.307 710.465 304.031 710.465 302.071V281.153ZM746.456 258.663V265.67C743.608 265.67 741.922 265.807 741.397 266.08C740.896 266.331 740.646 267.071 740.646 268.302V269.737H746.456V276.915H743.175V314H729.366V276.915H726.529V269.737H729.366C729.366 266.752 729.469 264.758 729.674 263.756C729.879 262.753 730.38 261.865 731.178 261.09C731.998 260.292 733.137 259.688 734.596 259.278C736.054 258.868 738.321 258.663 741.397 258.663H746.456ZM444.854 363.663L453.092 419H438.36L437.643 409.054H432.481L431.627 419H416.725L424.039 363.663H444.854ZM437.232 399.244C436.503 392.978 435.774 385.242 435.045 376.036C433.587 386.609 432.675 394.345 432.311 399.244H437.232ZM480.401 363.663L488.639 419H473.907L473.189 409.054H468.028L467.174 419H452.271L459.586 363.663H480.401ZM472.779 399.244C472.05 392.978 471.321 385.242 470.592 376.036C469.133 386.609 468.222 394.345 467.857 399.244H472.779ZM491.1 363.663H505.592C509.511 363.663 512.519 363.971 514.615 364.586C516.734 365.201 518.318 366.09 519.366 367.252C520.437 368.414 521.155 369.827 521.52 371.49C521.907 373.131 522.101 375.683 522.101 379.146V383.966C522.101 387.498 521.736 390.073 521.007 391.69C520.278 393.308 518.933 394.55 516.974 395.416C515.037 396.282 512.496 396.715 509.352 396.715H505.489V419H491.1V363.663ZM505.489 373.131V387.213C505.899 387.236 506.253 387.247 506.549 387.247C507.87 387.247 508.782 386.928 509.283 386.29C509.807 385.629 510.069 384.273 510.069 382.223V377.677C510.069 375.785 509.773 374.555 509.181 373.985C508.588 373.416 507.358 373.131 505.489 373.131ZM540.626 363.663V419H526.236V363.663H540.626ZM589.742 373.644V408.575C589.742 413.292 589.628 416.345 589.4 417.735C589.195 419.103 588.432 420.549 587.11 422.076C585.789 423.626 583.943 424.799 581.573 425.597C579.226 426.417 576.264 426.827 572.687 426.827C568.289 426.827 564.757 426.075 562.091 424.571C559.425 423.09 558.046 420.162 557.955 415.787H571.354C571.354 417.792 572.083 418.795 573.541 418.795C574.589 418.795 575.284 418.487 575.626 417.872C575.968 417.257 576.139 415.969 576.139 414.01V410.592C574.954 411.663 573.701 412.472 572.379 413.019C571.08 413.565 569.713 413.839 568.277 413.839C565.794 413.839 563.743 413.338 562.125 412.335C560.53 411.332 559.436 410.022 558.844 408.404C558.251 406.764 557.955 404.439 557.955 401.432V384.957C557.955 380.65 558.73 377.551 560.279 375.66C561.829 373.769 564.187 372.823 567.354 372.823C569.086 372.823 570.659 373.176 572.071 373.883C573.507 374.589 574.783 375.649 575.899 377.062L576.891 373.644H589.742ZM575.899 385.675C575.899 383.601 575.774 382.28 575.523 381.71C575.296 381.14 574.771 380.855 573.951 380.855C573.154 380.855 572.584 381.186 572.242 381.847C571.923 382.485 571.764 383.761 571.764 385.675V400.919C571.764 402.947 571.889 404.269 572.14 404.884C572.39 405.476 572.914 405.772 573.712 405.772C574.623 405.772 575.216 405.408 575.489 404.679C575.763 403.95 575.899 402.298 575.899 399.723V385.675ZM608.473 373.644L607.926 379.591C609.931 375.33 612.836 373.074 616.642 372.823V388.785C614.112 388.785 612.255 389.127 611.07 389.811C609.885 390.494 609.156 391.451 608.883 392.682C608.609 393.889 608.473 396.692 608.473 401.09V419H594.664V373.644H608.473ZM650.992 389.571V400.68C650.992 404.758 650.787 407.755 650.377 409.669C649.967 411.56 649.09 413.338 647.745 415.001C646.401 416.642 644.669 417.861 642.55 418.658C640.453 419.433 638.038 419.82 635.304 419.82C632.25 419.82 629.664 419.49 627.545 418.829C625.426 418.146 623.774 417.132 622.589 415.787C621.427 414.42 620.595 412.779 620.094 410.865C619.592 408.928 619.342 406.035 619.342 402.184V390.562C619.342 386.347 619.798 383.054 620.709 380.685C621.62 378.315 623.261 376.412 625.631 374.977C628.001 373.541 631.031 372.823 634.723 372.823C637.822 372.823 640.476 373.29 642.687 374.225C644.92 375.136 646.64 376.332 647.848 377.813C649.055 379.295 649.876 380.821 650.309 382.394C650.764 383.966 650.992 386.358 650.992 389.571ZM637.184 386.153C637.184 383.829 637.058 382.371 636.808 381.778C636.557 381.163 636.021 380.855 635.201 380.855C634.381 380.855 633.834 381.163 633.561 381.778C633.287 382.371 633.15 383.829 633.15 386.153V406.627C633.15 408.769 633.287 410.17 633.561 410.831C633.834 411.469 634.369 411.788 635.167 411.788C635.987 411.788 636.523 411.492 636.773 410.899C637.047 410.307 637.184 409.031 637.184 407.071V386.153ZM687.188 373.644V419H673.141L673.38 415.24C672.423 416.767 671.238 417.918 669.825 418.692C668.435 419.444 666.829 419.82 665.006 419.82C662.932 419.82 661.212 419.456 659.845 418.727C658.478 417.997 657.464 417.029 656.803 415.821C656.165 414.614 655.766 413.36 655.606 412.062C655.447 410.74 655.367 408.131 655.367 404.234V373.644H669.176V404.508C669.176 408.04 669.278 410.136 669.483 410.797C669.711 411.458 670.304 411.788 671.261 411.788C672.286 411.788 672.89 411.446 673.072 410.763C673.277 410.079 673.38 407.88 673.38 404.166V373.644H687.188ZM706.192 373.644L705.953 377.643C707.184 376.025 708.539 374.817 710.021 374.02C711.502 373.222 713.119 372.823 714.874 372.823C717.016 372.823 718.862 373.404 720.411 374.566C721.983 375.706 722.963 377.027 723.351 378.531C723.738 380.035 723.932 382.587 723.932 386.188V405.294C723.932 409.418 723.681 412.358 723.18 414.112C722.701 415.844 721.699 417.234 720.172 418.282C718.668 419.308 716.845 419.82 714.703 419.82C712.994 419.82 711.41 419.422 709.952 418.624C708.494 417.826 707.161 416.642 705.953 415.069V425.46H692.145V373.644H706.192ZM710.123 386.837C710.123 384.034 710.021 382.337 709.815 381.744C709.61 381.152 709.041 380.855 708.106 380.855C707.195 380.855 706.603 381.197 706.329 381.881C706.078 382.564 705.953 384.216 705.953 386.837V405.636C705.953 408.37 706.09 410.079 706.363 410.763C706.637 411.446 707.229 411.788 708.141 411.788C709.029 411.788 709.576 411.48 709.781 410.865C710.009 410.227 710.123 408.701 710.123 406.285V386.837ZM756.71 388.136H744.474V385.675C744.474 383.578 744.348 382.257 744.098 381.71C743.87 381.14 743.277 380.855 742.32 380.855C741.546 380.855 740.965 381.118 740.577 381.642C740.19 382.143 739.996 382.906 739.996 383.932C739.996 385.322 740.087 386.347 740.27 387.008C740.475 387.646 741.056 388.352 742.013 389.127C742.993 389.902 744.986 391.03 747.994 392.511C752.005 394.47 754.636 396.316 755.89 398.048C757.143 399.78 757.77 402.298 757.77 405.602C757.77 409.293 757.291 412.084 756.334 413.976C755.377 415.844 753.771 417.291 751.515 418.316C749.282 419.319 746.581 419.82 743.414 419.82C739.905 419.82 736.897 419.273 734.391 418.18C731.907 417.086 730.198 415.605 729.264 413.736C728.329 411.868 727.862 409.042 727.862 405.26V403.072H740.099V405.943C740.099 408.382 740.247 409.965 740.543 410.694C740.862 411.424 741.477 411.788 742.389 411.788C743.368 411.788 744.052 411.549 744.439 411.07C744.827 410.569 745.021 409.532 745.021 407.96C745.021 405.795 744.77 404.439 744.269 403.893C743.744 403.346 741.067 401.728 736.236 399.039C732.18 396.76 729.708 394.698 728.819 392.853C727.931 390.984 727.486 388.774 727.486 386.222C727.486 382.599 727.965 379.933 728.922 378.224C729.879 376.492 731.497 375.159 733.775 374.225C736.077 373.29 738.743 372.823 741.773 372.823C744.781 372.823 747.333 373.211 749.43 373.985C751.549 374.737 753.167 375.74 754.283 376.993C755.423 378.246 756.106 379.409 756.334 380.479C756.585 381.55 756.71 383.225 756.71 385.504V388.136Z" fill="#8ECAE6"/>
<path fill-rule="evenodd" clip-rule="evenodd" d="M442.901 244.005C438.342 243.914 433.648 244.97 429.453 247.582C429.453 247.586 429.453 247.719 429.453 247.724L363.93 288.783C358.417 276.998 346.445 269.062 333.743 272.188L265.931 289.069L213.856 260.743C212.836 260.186 211.719 259.736 210.565 259.598C209.412 259.461 208.254 259.598 207.132 259.882L135.171 279.195L132.596 269.467C132.284 268.311 131.751 267.27 131.022 266.32C130.293 265.37 129.341 264.487 128.304 263.888C127.267 263.288 126.057 262.9 124.871 262.743C123.683 262.588 122.451 262.743 121.294 263.027L71.7937 276.189C70.635 276.5 69.5976 277.033 68.6463 277.763C67.6946 278.492 66.8147 279.443 66.214 280.481C65.6143 281.519 65.2265 282.726 65.0695 283.915C64.9139 285.104 65.0237 286.333 65.3579 287.491L102.411 425.977C102.722 427.134 103.255 428.174 103.985 429.124C104.714 430.074 105.665 430.957 106.703 431.556C107.741 432.155 108.949 432.544 110.137 432.701C111.325 432.856 112.556 432.701 113.713 432.417L161.926 419.541C163.068 419.234 164.131 418.682 165.073 417.967C166.015 417.252 166.76 416.268 167.362 415.249C167.964 414.231 168.334 413.129 168.507 411.959C168.681 410.788 168.644 409.674 168.365 408.525L164.216 391.357C181.631 389.878 195.027 392.187 234.174 396.222C268.807 399.83 283.624 404.273 321.157 394.219C321.157 394.218 321.299 394.219 321.299 394.219C361.813 383.395 390.388 349.064 406.135 334.704L456.78 290.784C461.253 286.908 464.957 281.967 466.794 276.048C468.633 270.123 468.154 262.994 464.648 256.878V256.736C460.035 248.813 451.606 244.18 442.903 244.003L442.901 244.005ZM442.329 262.318C444.795 262.318 447.365 263.647 448.767 266.038C449.725 267.727 449.767 268.772 449.197 270.616C448.62 272.473 447.104 274.883 444.762 276.91L394.117 320.974C394.067 321.02 394.026 321.07 393.975 321.116C376.103 337.381 349.553 367.636 316.435 376.481C281.185 385.926 271.71 381.771 236.033 378.055C195.325 373.859 180.472 371.365 159.78 373.477L152.913 345.58C152.643 344.4 152.188 343.272 151.482 342.289C150.777 341.305 149.795 340.492 148.764 339.857C147.734 339.222 146.67 338.756 145.474 338.569C144.278 338.381 142.93 338.423 141.754 338.711C140.579 339 139.579 339.564 138.607 340.285C137.635 341.006 136.794 341.963 136.175 343.003C135.556 344.044 135.056 345.095 134.887 346.294C134.717 347.492 134.887 348.843 135.175 350.013L148.48 404.091L117.721 412.389L85.3891 291.5L117.292 283.06L126.305 317.109C126.602 318.282 127.153 319.289 127.879 320.256C128.605 321.224 129.553 322.076 130.597 322.688C131.641 323.3 132.832 323.671 134.031 323.833C135.229 323.993 136.439 324.002 137.607 323.691C138.776 323.379 139.941 322.857 140.898 322.117C141.855 321.377 142.589 320.451 143.187 319.399C143.784 318.347 144.186 317.167 144.331 315.965C144.478 314.764 144.377 313.553 144.043 312.389L139.892 296.938L208.276 278.483L260.208 306.809C261.204 307.352 262.375 307.809 263.499 307.954C264.623 308.1 265.689 307.954 266.79 307.67L338.178 289.93C341.042 289.229 346.44 292.051 348.336 299.086C350.233 306.189 346.968 311.252 344.33 311.962L261.496 334.137C260.325 334.435 259.172 334.984 258.206 335.711C257.24 336.437 256.527 337.386 255.917 338.429C255.305 339.472 254.791 340.665 254.629 341.862C254.469 343.06 254.583 344.272 254.913 345.439C255.224 346.606 255.748 347.773 256.487 348.729C257.226 349.686 258.154 350.421 259.205 351.018C260.255 351.616 261.439 352.017 262.638 352.163C263.838 352.309 265.051 352.208 266.215 351.879L349.049 329.704C359.085 327.011 365.043 318.51 366.645 308.674L439.179 263.18C440.142 262.582 441.205 262.329 442.326 262.321L442.329 262.318Z" fill="#219EBC"/>
<path d="M372.457 48.3857H355.274V43.1123C355.274 40.6514 355.055 39.084 354.615 38.4102C354.176 37.7363 353.443 37.3994 352.418 37.3994C351.305 37.3994 350.455 37.8535 349.869 38.7617C349.312 39.6699 349.034 41.0469 349.034 42.8926C349.034 45.2656 349.356 47.0527 350.001 48.2539C350.616 49.4551 352.359 50.9053 355.23 52.6045C363.463 57.4971 368.648 61.5107 370.787 64.6455C372.926 67.7803 373.995 72.834 373.995 79.8066C373.995 84.875 373.395 88.6104 372.193 91.0127C371.021 93.415 368.736 95.4365 365.338 97.0771C361.939 98.6885 357.984 99.4941 353.473 99.4941C348.521 99.4941 344.288 98.5566 340.772 96.6816C337.286 94.8066 335.001 92.4189 333.917 89.5186C332.833 86.6182 332.291 82.502 332.291 77.1699V72.5117H349.474V81.1689C349.474 83.835 349.708 85.5488 350.177 86.3105C350.675 87.0723 351.539 87.4531 352.77 87.4531C354 87.4531 354.908 86.9697 355.494 86.0029C356.109 85.0361 356.417 83.6006 356.417 81.6963C356.417 77.5068 355.846 74.7676 354.703 73.4785C353.531 72.1895 350.646 70.0361 346.046 67.0186C341.446 63.9717 338.399 61.7598 336.905 60.3828C335.411 59.0059 334.166 57.1016 333.17 54.6699C332.203 52.2383 331.72 49.1328 331.72 45.3535C331.72 39.9043 332.408 35.9199 333.785 33.4004C335.191 30.8809 337.447 28.918 340.553 27.5117C343.658 26.0762 347.408 25.3584 351.803 25.3584C356.607 25.3584 360.694 26.1348 364.063 27.6875C367.462 29.2402 369.703 31.2031 370.787 33.5762C371.9 35.9199 372.457 39.9189 372.457 45.5732V48.3857ZM419.962 39.6846V98H401.9L402.208 93.166C400.978 95.1289 399.454 96.6084 397.638 97.6045C395.851 98.5713 393.785 99.0547 391.441 99.0547C388.775 99.0547 386.563 98.5859 384.806 97.6484C383.048 96.7109 381.744 95.4658 380.895 93.9131C380.074 92.3604 379.562 90.749 379.356 89.0791C379.151 87.3799 379.049 84.0254 379.049 79.0156V39.6846H396.803V79.3672C396.803 83.9082 396.935 86.6035 397.198 87.4531C397.491 88.3027 398.253 88.7275 399.483 88.7275C400.802 88.7275 401.578 88.2881 401.812 87.4092C402.076 86.5303 402.208 83.7031 402.208 78.9277V39.6846H419.962ZM444.396 39.6846L444.088 44.8262C445.67 42.7461 447.413 41.1934 449.317 40.168C451.222 39.1426 453.302 38.6299 455.558 38.6299C458.312 38.6299 460.685 39.377 462.677 40.8711C464.698 42.3359 465.958 44.0352 466.456 45.9688C466.954 47.9023 467.203 51.1836 467.203 55.8125V80.3779C467.203 85.6807 466.881 89.46 466.236 91.7158C465.621 93.9424 464.332 95.7295 462.369 97.0771C460.436 98.3955 458.092 99.0547 455.338 99.0547C453.141 99.0547 451.104 98.542 449.229 97.5166C447.354 96.4912 445.641 94.9678 444.088 92.9463V106.306H426.334V39.6846H444.396ZM449.449 56.6475C449.449 53.0439 449.317 50.8613 449.054 50.0996C448.79 49.3379 448.058 48.957 446.856 48.957C445.685 48.957 444.923 49.3965 444.571 50.2754C444.249 51.1543 444.088 53.2783 444.088 56.6475V80.8174C444.088 84.333 444.264 86.5303 444.615 87.4092C444.967 88.2881 445.729 88.7275 446.9 88.7275C448.043 88.7275 448.746 88.332 449.01 87.541C449.303 86.7207 449.449 84.7578 449.449 81.6523V56.6475ZM491.153 39.6846L490.846 44.8262C492.428 42.7461 494.171 41.1934 496.075 40.168C497.979 39.1426 500.06 38.6299 502.315 38.6299C505.069 38.6299 507.442 39.377 509.435 40.8711C511.456 42.3359 512.716 44.0352 513.214 45.9688C513.712 47.9023 513.961 51.1836 513.961 55.8125V80.3779C513.961 85.6807 513.639 89.46 512.994 91.7158C512.379 93.9424 511.09 95.7295 509.127 97.0771C507.193 98.3955 504.85 99.0547 502.096 99.0547C499.898 99.0547 497.862 98.542 495.987 97.5166C494.112 96.4912 492.398 94.9678 490.846 92.9463V106.306H473.092V39.6846H491.153ZM496.207 56.6475C496.207 53.0439 496.075 50.8613 495.812 50.0996C495.548 49.3379 494.815 48.957 493.614 48.957C492.442 48.957 491.681 49.3965 491.329 50.2754C491.007 51.1543 490.846 53.2783 490.846 56.6475V80.8174C490.846 84.333 491.021 86.5303 491.373 87.4092C491.725 88.2881 492.486 88.7275 493.658 88.7275C494.801 88.7275 495.504 88.332 495.768 87.541C496.061 86.7207 496.207 84.7578 496.207 81.6523V56.6475ZM560.016 60.1631V74.4453C560.016 79.6895 559.752 83.542 559.225 86.0029C558.697 88.4346 557.569 90.7197 555.841 92.8584C554.112 94.9678 551.886 96.5352 549.161 97.5605C546.466 98.5566 543.36 99.0547 539.845 99.0547C535.919 99.0547 532.594 98.6299 529.869 97.7803C527.145 96.9014 525.021 95.5977 523.497 93.8691C522.003 92.1113 520.934 90.002 520.289 87.541C519.645 85.0508 519.322 81.3301 519.322 76.3789V61.4375C519.322 56.0176 519.908 51.7842 521.08 48.7373C522.252 45.6904 524.361 43.2441 527.408 41.3984C530.455 39.5527 534.352 38.6299 539.098 38.6299C543.082 38.6299 546.495 39.2305 549.337 40.4316C552.208 41.6035 554.42 43.1416 555.973 45.0459C557.525 46.9502 558.58 48.9131 559.137 50.9346C559.723 52.9561 560.016 56.0322 560.016 60.1631ZM542.262 55.7686C542.262 52.7803 542.101 50.9053 541.778 50.1436C541.456 49.3525 540.768 48.957 539.713 48.957C538.658 48.957 537.955 49.3525 537.604 50.1436C537.252 50.9053 537.076 52.7803 537.076 55.7686V82.0918C537.076 84.8457 537.252 86.6475 537.604 87.4971C537.955 88.3174 538.644 88.7275 539.669 88.7275C540.724 88.7275 541.412 88.3467 541.734 87.585C542.086 86.8232 542.262 85.1826 542.262 82.6631V55.7686ZM583.658 39.6846L582.955 47.3311C585.533 41.8525 589.269 38.9521 594.161 38.6299V59.1523C590.909 59.1523 588.521 59.5918 586.998 60.4707C585.475 61.3496 584.537 62.5801 584.186 64.1621C583.834 65.7148 583.658 69.3184 583.658 74.9727V98H565.904V39.6846H583.658ZM616.881 31.9062V41.0908H621.671V50.3193H616.881V81.5205C616.881 85.3584 617.071 87.4971 617.452 87.9365C617.862 88.376 619.518 88.5957 622.418 88.5957V98H615.255C611.212 98 608.326 97.8389 606.598 97.5166C604.869 97.165 603.346 96.3887 602.027 95.1875C600.709 93.957 599.889 92.5654 599.566 91.0127C599.244 89.4307 599.083 85.7393 599.083 79.9385V50.3193H595.26V41.0908H599.083V31.9062H616.881ZM660.211 31.9062V41.0908H665.001V50.3193H660.211V81.5205C660.211 85.3584 660.401 87.4971 660.782 87.9365C661.192 88.376 662.848 88.5957 665.748 88.5957V98H658.585C654.542 98 651.656 97.8389 649.928 97.5166C648.199 97.165 646.676 96.3887 645.357 95.1875C644.039 93.957 643.219 92.5654 642.896 91.0127C642.574 89.4307 642.413 85.7393 642.413 79.9385V50.3193H638.59V41.0908H642.413V31.9062H660.211ZM686.666 26.8525V42.8486C688.189 41.4424 689.83 40.3877 691.588 39.6846C693.375 38.9814 695.279 38.6299 697.301 38.6299C700.406 38.6299 703.043 39.4209 705.211 41.0029C707.408 42.585 708.741 44.416 709.21 46.4961C709.708 48.5469 709.957 52.3115 709.957 57.79V98H692.203V56.9551C692.203 53.5566 692.027 51.374 691.676 50.4072C691.354 49.4404 690.606 48.957 689.435 48.957C688.351 48.957 687.618 49.4551 687.237 50.4512C686.856 51.4473 686.666 53.4248 686.666 56.3838V98H668.912V26.8525H686.666ZM756.319 69.875H733.336V82.4873C733.336 85.124 733.526 86.8232 733.907 87.585C734.288 88.3467 735.021 88.7275 736.104 88.7275C737.452 88.7275 738.346 88.2295 738.785 87.2334C739.254 86.208 739.488 84.2451 739.488 81.3447V73.6543H756.319V77.9609C756.319 81.5645 756.085 84.333 755.616 86.2666C755.177 88.2002 754.122 90.2656 752.452 92.4629C750.782 94.6602 748.658 96.3154 746.08 97.4287C743.531 98.5127 740.323 99.0547 736.456 99.0547C732.706 99.0547 729.396 98.5127 726.524 97.4287C723.653 96.3447 721.412 94.8652 719.801 92.9902C718.219 91.0859 717.12 89.0059 716.505 86.75C715.89 84.4648 715.582 81.1543 715.582 76.8184V59.8115C715.582 54.7139 716.271 50.7002 717.647 47.7705C719.024 44.8115 721.28 42.5557 724.415 41.0029C727.55 39.4209 731.153 38.6299 735.226 38.6299C740.206 38.6299 744.308 39.582 747.53 41.4863C750.782 43.3613 753.053 45.8662 754.342 49.001C755.66 52.1064 756.319 56.4863 756.319 62.1406V69.875ZM738.521 60.3828V56.1201C738.521 53.1025 738.36 51.1543 738.038 50.2754C737.716 49.3965 737.057 48.957 736.061 48.957C734.83 48.957 734.068 49.3379 733.775 50.0996C733.482 50.832 733.336 52.8389 733.336 56.1201V60.3828H738.521ZM551.886 149.685L551.578 155.046C552.867 152.907 554.435 151.311 556.28 150.256C558.155 149.172 560.309 148.63 562.74 148.63C565.787 148.63 568.277 149.348 570.211 150.783C572.145 152.219 573.39 154.035 573.946 156.232C574.503 158.4 574.781 162.033 574.781 167.131V208H557.027V167.614C557.027 163.601 556.896 161.154 556.632 160.275C556.368 159.396 555.636 158.957 554.435 158.957C553.175 158.957 552.384 159.47 552.062 160.495C551.739 161.491 551.578 164.187 551.578 168.581V208H533.824V149.685H551.886ZM621.144 179.875H598.16V192.487C598.16 195.124 598.351 196.823 598.731 197.585C599.112 198.347 599.845 198.728 600.929 198.728C602.276 198.728 603.17 198.229 603.609 197.233C604.078 196.208 604.312 194.245 604.312 191.345V183.654H621.144V187.961C621.144 191.564 620.909 194.333 620.44 196.267C620.001 198.2 618.946 200.266 617.276 202.463C615.606 204.66 613.482 206.315 610.904 207.429C608.355 208.513 605.147 209.055 601.28 209.055C597.53 209.055 594.22 208.513 591.349 207.429C588.478 206.345 586.236 204.865 584.625 202.99C583.043 201.086 581.944 199.006 581.329 196.75C580.714 194.465 580.406 191.154 580.406 186.818V169.812C580.406 164.714 581.095 160.7 582.472 157.771C583.849 154.812 586.104 152.556 589.239 151.003C592.374 149.421 595.978 148.63 600.05 148.63C605.03 148.63 609.132 149.582 612.354 151.486C615.606 153.361 617.877 155.866 619.166 159.001C620.484 162.106 621.144 166.486 621.144 172.141V179.875ZM603.346 170.383V166.12C603.346 163.103 603.185 161.154 602.862 160.275C602.54 159.396 601.881 158.957 600.885 158.957C599.654 158.957 598.893 159.338 598.6 160.1C598.307 160.832 598.16 162.839 598.16 166.12V170.383H603.346ZM667.198 179.875H644.215V192.487C644.215 195.124 644.405 196.823 644.786 197.585C645.167 198.347 645.899 198.728 646.983 198.728C648.331 198.728 649.225 198.229 649.664 197.233C650.133 196.208 650.367 194.245 650.367 191.345V183.654H667.198V187.961C667.198 191.564 666.964 194.333 666.495 196.267C666.056 198.2 665.001 200.266 663.331 202.463C661.661 204.66 659.537 206.315 656.959 207.429C654.41 208.513 651.202 209.055 647.335 209.055C643.585 209.055 640.274 208.513 637.403 207.429C634.532 206.345 632.291 204.865 630.68 202.99C629.098 201.086 627.999 199.006 627.384 196.75C626.769 194.465 626.461 191.154 626.461 186.818V169.812C626.461 164.714 627.149 160.7 628.526 157.771C629.903 154.812 632.159 152.556 635.294 151.003C638.429 149.421 642.032 148.63 646.104 148.63C651.085 148.63 655.187 149.582 658.409 151.486C661.661 153.361 663.932 155.866 665.221 159.001C666.539 162.106 667.198 166.486 667.198 172.141V179.875ZM649.4 170.383V166.12C649.4 163.103 649.239 161.154 648.917 160.275C648.595 159.396 647.936 158.957 646.939 158.957C645.709 158.957 644.947 159.338 644.654 160.1C644.361 160.832 644.215 162.839 644.215 166.12V170.383H649.4ZM713.429 136.853V208H695.675V203.781C693.976 205.539 692.188 206.857 690.313 207.736C688.438 208.615 686.476 209.055 684.425 209.055C681.671 209.055 679.283 208.337 677.262 206.901C675.24 205.437 673.937 203.752 673.351 201.848C672.794 199.943 672.516 196.838 672.516 192.531V165.241C672.516 160.759 672.794 157.58 673.351 155.705C673.937 153.83 675.255 152.189 677.306 150.783C679.356 149.348 681.803 148.63 684.645 148.63C686.842 148.63 688.849 149.025 690.665 149.816C692.511 150.607 694.181 151.794 695.675 153.376V136.853H713.429ZM695.675 164.362C695.675 162.224 695.484 160.788 695.104 160.056C694.752 159.323 694.034 158.957 692.95 158.957C691.896 158.957 691.178 159.294 690.797 159.968C690.445 160.612 690.27 162.077 690.27 164.362V192.927C690.27 195.3 690.445 196.867 690.797 197.629C691.148 198.361 691.822 198.728 692.818 198.728C693.961 198.728 694.723 198.317 695.104 197.497C695.484 196.647 695.675 194.597 695.675 191.345V164.362ZM756.056 168.317H740.323V165.153C740.323 162.458 740.162 160.759 739.84 160.056C739.547 159.323 738.785 158.957 737.555 158.957C736.559 158.957 735.812 159.294 735.313 159.968C734.815 160.612 734.566 161.594 734.566 162.912C734.566 164.699 734.684 166.018 734.918 166.867C735.182 167.688 735.929 168.596 737.159 169.592C738.419 170.588 740.982 172.038 744.85 173.942C750.006 176.462 753.39 178.835 755.001 181.062C756.612 183.288 757.418 186.525 757.418 190.773C757.418 195.52 756.803 199.108 755.572 201.54C754.342 203.942 752.276 205.803 749.376 207.121C746.505 208.41 743.033 209.055 738.961 209.055C734.449 209.055 730.582 208.352 727.359 206.945C724.166 205.539 721.969 203.635 720.768 201.232C719.566 198.83 718.966 195.197 718.966 190.334V187.521H734.698V191.213C734.698 194.348 734.889 196.384 735.27 197.321C735.68 198.259 736.471 198.728 737.643 198.728C738.902 198.728 739.781 198.42 740.279 197.805C740.777 197.16 741.026 195.827 741.026 193.806C741.026 191.022 740.704 189.279 740.06 188.576C739.386 187.873 735.943 185.793 729.732 182.336C724.518 179.406 721.339 176.755 720.196 174.382C719.054 171.979 718.482 169.138 718.482 165.856C718.482 161.198 719.098 157.771 720.328 155.573C721.559 153.347 723.639 151.633 726.568 150.432C729.527 149.23 732.955 148.63 736.852 148.63C740.719 148.63 744 149.128 746.695 150.124C749.42 151.091 751.5 152.38 752.936 153.991C754.4 155.603 755.279 157.097 755.572 158.474C755.895 159.851 756.056 162.004 756.056 164.934V168.317Z" fill="#8ECAE6"/>
<path d="M136.295 136.853V146.125H118.014V136.853H136.295ZM136.295 149.685V208H118.014V149.685H136.295ZM160.245 149.685L159.938 155.222C161.314 153.024 162.955 151.384 164.859 150.3C166.764 149.187 168.932 148.63 171.363 148.63C176.109 148.63 179.845 150.827 182.569 155.222C184.063 153.024 185.748 151.384 187.623 150.3C189.498 149.187 191.578 148.63 193.863 148.63C196.881 148.63 199.371 149.362 201.334 150.827C203.326 152.292 204.601 154.094 205.157 156.232C205.714 158.342 205.992 161.784 205.992 166.56V208H188.766V169.987C188.766 165.007 188.59 161.931 188.238 160.759C187.916 159.558 187.14 158.957 185.909 158.957C184.649 158.957 183.829 159.543 183.448 160.715C183.097 161.887 182.921 164.978 182.921 169.987V208H165.694V170.954C165.694 165.241 165.548 161.813 165.255 160.671C164.991 159.528 164.229 158.957 162.97 158.957C162.179 158.957 161.505 159.265 160.948 159.88C160.392 160.466 160.084 161.198 160.025 162.077C159.967 162.927 159.938 164.758 159.938 167.57V208H142.711V149.685H160.245ZM229.679 149.685L229.371 155.222C230.748 153.024 232.389 151.384 234.293 150.3C236.197 149.187 238.365 148.63 240.797 148.63C245.543 148.63 249.278 150.827 252.003 155.222C253.497 153.024 255.182 151.384 257.057 150.3C258.932 149.187 261.012 148.63 263.297 148.63C266.314 148.63 268.805 149.362 270.768 150.827C272.76 152.292 274.034 154.094 274.591 156.232C275.147 158.342 275.426 161.784 275.426 166.56V208H258.199V169.987C258.199 165.007 258.023 161.931 257.672 160.759C257.35 159.558 256.573 158.957 255.343 158.957C254.083 158.957 253.263 159.543 252.882 160.715C252.53 161.887 252.354 164.978 252.354 169.987V208H235.128V170.954C235.128 165.241 234.981 161.813 234.688 160.671C234.425 159.528 233.663 158.957 232.403 158.957C231.612 158.957 230.938 159.265 230.382 159.88C229.825 160.466 229.518 161.198 229.459 162.077C229.4 162.927 229.371 164.758 229.371 167.57V208H212.145V149.685H229.679ZM321.788 179.875H298.805V192.487C298.805 195.124 298.995 196.823 299.376 197.585C299.757 198.347 300.489 198.728 301.573 198.728C302.921 198.728 303.814 198.229 304.254 197.233C304.723 196.208 304.957 194.245 304.957 191.345V183.654H321.788V187.961C321.788 191.564 321.554 194.333 321.085 196.267C320.646 198.2 319.591 200.266 317.921 202.463C316.251 204.66 314.127 206.315 311.549 207.429C309 208.513 305.792 209.055 301.925 209.055C298.175 209.055 294.864 208.513 291.993 207.429C289.122 206.345 286.881 204.865 285.27 202.99C283.688 201.086 282.589 199.006 281.974 196.75C281.358 194.465 281.051 191.154 281.051 186.818V169.812C281.051 164.714 281.739 160.7 283.116 157.771C284.493 154.812 286.749 152.556 289.884 151.003C293.019 149.421 296.622 148.63 300.694 148.63C305.675 148.63 309.776 149.582 312.999 151.486C316.251 153.361 318.521 155.866 319.811 159.001C321.129 162.106 321.788 166.486 321.788 172.141V179.875ZM303.99 170.383V166.12C303.99 163.103 303.829 161.154 303.507 160.275C303.185 159.396 302.525 158.957 301.529 158.957C300.299 158.957 299.537 159.338 299.244 160.1C298.951 160.832 298.805 162.839 298.805 166.12V170.383H303.99ZM368.019 136.853V208H350.265V203.781C348.565 205.539 346.778 206.857 344.903 207.736C343.028 208.615 341.065 209.055 339.015 209.055C336.261 209.055 333.873 208.337 331.852 206.901C329.83 205.437 328.526 203.752 327.94 201.848C327.384 199.943 327.105 196.838 327.105 192.531V165.241C327.105 160.759 327.384 157.58 327.94 155.705C328.526 153.83 329.845 152.189 331.896 150.783C333.946 149.348 336.393 148.63 339.234 148.63C341.432 148.63 343.438 149.025 345.255 149.816C347.101 150.607 348.771 151.794 350.265 153.376V136.853H368.019ZM350.265 164.362C350.265 162.224 350.074 160.788 349.693 160.056C349.342 159.323 348.624 158.957 347.54 158.957C346.485 158.957 345.768 159.294 345.387 159.968C345.035 160.612 344.859 162.077 344.859 164.362V192.927C344.859 195.3 345.035 196.867 345.387 197.629C345.738 198.361 346.412 198.728 347.408 198.728C348.551 198.728 349.312 198.317 349.693 197.497C350.074 196.647 350.265 194.597 350.265 191.345V164.362ZM392.672 136.853V146.125H374.391V136.853H392.672ZM392.672 149.685V208H374.391V149.685H392.672ZM414.952 172.272H398.297V168.361C398.297 163.85 398.81 160.378 399.835 157.946C400.89 155.485 402.984 153.317 406.119 151.442C409.254 149.567 413.326 148.63 418.336 148.63C424.342 148.63 428.868 149.699 431.915 151.838C434.962 153.947 436.793 156.555 437.408 159.66C438.023 162.736 438.331 169.094 438.331 178.732V208H421.061V202.814C419.977 204.895 418.57 206.462 416.842 207.517C415.143 208.542 413.106 209.055 410.733 209.055C407.628 209.055 404.771 208.19 402.164 206.462C399.586 204.704 398.297 200.881 398.297 194.992V190.202C398.297 185.837 398.985 182.863 400.362 181.281C401.739 179.699 405.152 177.854 410.602 175.744C416.432 173.459 419.552 171.921 419.962 171.13C420.372 170.339 420.577 168.728 420.577 166.296C420.577 163.249 420.343 161.271 419.874 160.363C419.435 159.426 418.688 158.957 417.633 158.957C416.432 158.957 415.685 159.353 415.392 160.144C415.099 160.905 414.952 162.912 414.952 166.164V172.272ZM420.577 180.271C417.735 182.351 416.08 184.094 415.611 185.5C415.172 186.906 414.952 188.928 414.952 191.564C414.952 194.582 415.143 196.53 415.523 197.409C415.934 198.288 416.725 198.728 417.896 198.728C419.01 198.728 419.728 198.391 420.05 197.717C420.401 197.014 420.577 195.197 420.577 192.268V180.271ZM463.16 141.906V151.091H467.95V160.319H463.16V191.521C463.16 195.358 463.351 197.497 463.731 197.937C464.142 198.376 465.797 198.596 468.697 198.596V208H461.534C457.491 208 454.605 207.839 452.877 207.517C451.148 207.165 449.625 206.389 448.307 205.188C446.988 203.957 446.168 202.565 445.846 201.013C445.523 199.431 445.362 195.739 445.362 189.938V160.319H441.539V151.091H445.362V141.906H463.16ZM512.071 179.875H489.088V192.487C489.088 195.124 489.278 196.823 489.659 197.585C490.04 198.347 490.772 198.728 491.856 198.728C493.204 198.728 494.098 198.229 494.537 197.233C495.006 196.208 495.24 194.245 495.24 191.345V183.654H512.071V187.961C512.071 191.564 511.837 194.333 511.368 196.267C510.929 198.2 509.874 200.266 508.204 202.463C506.534 204.66 504.41 206.315 501.832 207.429C499.283 208.513 496.075 209.055 492.208 209.055C488.458 209.055 485.147 208.513 482.276 207.429C479.405 206.345 477.164 204.865 475.553 202.99C473.971 201.086 472.872 199.006 472.257 196.75C471.642 194.465 471.334 191.154 471.334 186.818V169.812C471.334 164.714 472.022 160.7 473.399 157.771C474.776 154.812 477.032 152.556 480.167 151.003C483.302 149.421 486.905 148.63 490.978 148.63C495.958 148.63 500.06 149.582 503.282 151.486C506.534 153.361 508.805 155.866 510.094 159.001C511.412 162.106 512.071 166.486 512.071 172.141V179.875ZM494.273 170.383V166.12C494.273 163.103 494.112 161.154 493.79 160.275C493.468 159.396 492.809 158.957 491.812 158.957C490.582 158.957 489.82 159.338 489.527 160.1C489.234 160.832 489.088 162.839 489.088 166.12V170.383H494.273Z" fill="white"/>
</svg>
